<svg width="34" height="34" viewBox="0 0 34 34" fill="none" xmlns="http://www.w3.org/2000/svg">
<path d="M33.7391 21.1574H0.260742V3.70071C0.260742 2.58886 1.16503 1.68457 2.27688 1.68457H31.7229C32.8344 1.68457 33.7391 2.58886 33.7391 3.70071V21.1574ZM1.0047 20.4135H32.9951V3.70071C32.9951 2.99915 32.4245 2.42853 31.7229 2.42853H2.27688C1.57532 2.42853 1.0047 2.99915 1.0047 3.70071V20.4135Z" fill="#331B3B"/>
<path d="M31.7229 25.779H2.27688C1.16503 25.779 0.260742 24.8744 0.260742 23.7629V20.4136H33.7391V23.7629C33.7391 24.8744 32.8344 25.779 31.7229 25.779ZM1.0047 21.1575V23.7629C1.0047 24.4644 1.57532 25.0351 2.27688 25.0351H31.7229C32.4245 25.0351 32.9951 24.4644 32.9951 23.7629V21.1575H1.0047Z" fill="#331B3B"/>
<path d="M22.1426 30.3775H11.8573C11.6966 30.3775 11.5542 30.2745 11.5039 30.1216C11.4537 29.9687 11.5077 29.8013 11.6371 29.7061C13.0499 28.6687 13.9929 27.0837 14.2242 25.3577C14.2488 25.1732 14.4065 25.0352 14.5929 25.0352H19.4063C19.5927 25.0352 19.7504 25.1728 19.7749 25.3577C20.0063 27.084 20.9497 28.6687 22.3624 29.7061C22.4923 29.8013 22.5458 29.9687 22.4956 30.1216C22.4454 30.2745 22.3037 30.3775 22.1426 30.3775ZM12.8661 29.6336H21.1342C20.0766 28.592 19.3546 27.2391 19.089 25.7787H14.9109C14.6457 27.2391 13.9237 28.592 12.8661 29.6336Z" fill="#331B3B"/>
<path d="M22.9716 32.3163H11.028C10.2885 32.3163 9.68701 31.7148 9.68701 30.9753C9.68701 30.2358 10.2885 29.6343 11.028 29.6343H22.9716C23.7111 29.6343 24.3126 30.2358 24.3126 30.9753C24.3126 31.7148 23.7111 32.3163 22.9716 32.3163ZM11.028 30.3779C10.6988 30.3779 10.431 30.6457 10.431 30.9749C10.431 31.3041 10.6988 31.5719 11.028 31.5719H22.9716C23.3012 31.5719 23.5686 31.3041 23.5686 30.9749C23.5686 30.6457 23.3008 30.3779 22.9716 30.3779H11.028Z" fill="#331B3B"/>
<path d="M17.6326 23.4681H16.3671C16.1618 23.4681 15.9951 23.3018 15.9951 23.0961C15.9951 22.8904 16.1618 22.7241 16.3671 22.7241H17.6326C17.8383 22.7241 18.0046 22.8904 18.0046 23.0961C18.0046 23.3018 17.8383 23.4681 17.6326 23.4681Z" fill="#331B3B"/>
</svg>
