<svg preserveAspectRatio="none" width="100%" height="100%" overflow="visible" style="display: block;" viewBox="0 0 16.5892 18.7161" fill="none" xmlns="http://www.w3.org/2000/svg">
<g id="Group">
<path id="Vector" d="M0.850729 17.8653V16.8019C0.850729 15.8244 1.04327 14.8564 1.41736 13.9533C1.79145 13.0501 2.33976 12.2295 3.03099 11.5383C3.72222 10.8471 4.54283 10.2988 5.44596 9.92466C6.34909 9.55057 7.31707 9.35803 8.29461 9.35803C9.27216 9.35803 10.2401 9.55057 11.1433 9.92466C12.0464 10.2988 12.867 10.8471 13.5582 11.5383C14.2495 12.2295 14.7978 13.0501 15.1719 13.9533C15.546 14.8564 15.7385 15.8244 15.7385 16.8019V17.8653" stroke="var(--stroke-0, #A0A3BD)" stroke-width="1.70146" stroke-linecap="round" stroke-linejoin="round"/>
<path id="Vector_2" d="M8.29451 9.35802C9.42265 9.35802 10.5046 8.90987 11.3023 8.11216C12.1 7.31445 12.5482 6.23251 12.5482 5.10438C12.5482 3.97624 12.1 2.89431 11.3023 2.09659C10.5046 1.29888 9.42265 0.850729 8.29451 0.850729C7.16638 0.850729 6.08445 1.29888 5.28673 2.09659C4.48902 2.89431 4.04087 3.97624 4.04087 5.10438C4.04087 6.23251 4.48902 7.31445 5.28673 8.11216C6.08445 8.90987 7.16638 9.35802 8.29451 9.35802V9.35802Z" stroke="var(--stroke-0, #A0A3BD)" stroke-width="1.70146" stroke-linecap="round" stroke-linejoin="round"/>
</g>
</svg>
