<svg preserveAspectRatio="none" width="100%" height="100%" overflow="visible" style="display: block;" viewBox="0 0 18.716 18.716" fill="none" xmlns="http://www.w3.org/2000/svg">
<g id="Info">
<path id="Vector" d="M9.35802 17.8653C14.0565 17.8653 17.8653 14.0565 17.8653 9.35802C17.8653 4.65957 14.0565 0.850729 9.35802 0.850729C4.65957 0.850729 0.850729 4.65957 0.850729 9.35802C0.850729 14.0565 4.65957 17.8653 9.35802 17.8653Z" stroke="var(--stroke-0, #003400)" stroke-width="1.70146" stroke-linecap="round" stroke-linejoin="round"/>
<path id="Vector_2" d="M9.35804 13.6117V9.35803" stroke="var(--stroke-0, #003400)" stroke-width="1.70146" stroke-linecap="round" stroke-linejoin="round"/>
<path id="Vector_3" d="M9.35825 5.38524C9.26359 5.38524 9.17106 5.41331 9.09235 5.4659C9.01364 5.5185 8.9523 5.59324 8.91607 5.6807C8.87985 5.76816 8.87037 5.86439 8.88884 5.95723C8.9073 6.05007 8.95289 6.13535 9.01982 6.20229C9.08676 6.26922 9.17204 6.31481 9.26488 6.33327C9.35772 6.35174 9.45396 6.34226 9.54141 6.30604C9.62887 6.26981 9.70362 6.20847 9.75621 6.12976C9.8088 6.05105 9.83687 5.95852 9.83687 5.86386C9.83703 5.80096 9.82477 5.73864 9.80078 5.6805C9.77678 5.62236 9.74154 5.56953 9.69706 5.52505C9.65258 5.48057 9.59975 5.44533 9.54161 5.42133C9.48346 5.39734 9.42115 5.38508 9.35825 5.38524Z" fill="var(--fill-0, #003400)" stroke="var(--stroke-0, #003400)" stroke-width="1.70146" stroke-linecap="round" stroke-linejoin="round"/>
</g>
</svg>
