<svg preserveAspectRatio="none" width="100%" height="100%" overflow="visible" style="display: block;" viewBox="0 0 20.4175 20.4175" fill="none" xmlns="http://www.w3.org/2000/svg">
<g id="Group">
<path id="Vector" d="M18.319 0.850729H2.09847C1.40936 0.850729 0.850729 1.40936 0.850729 2.09847V18.319C0.850729 19.0081 1.40936 19.5668 2.09847 19.5668H18.319C19.0081 19.5668 19.5668 19.0081 19.5668 18.319V2.09847C19.5668 1.40936 19.0081 0.850729 18.319 0.850729Z" stroke="var(--stroke-0, #A0A3BD)" stroke-width="1.70146" stroke-linecap="round" stroke-linejoin="round"/>
<path id="Vector_2" d="M11.0406 13.3281H15.8236" stroke="var(--stroke-0, #A0A3BD)" stroke-width="1.70146" stroke-linecap="round" stroke-linejoin="round"/>
<path id="Vector_3" d="M4.59394 13.3281H6.88146" stroke="var(--stroke-0, #A0A3BD)" stroke-width="1.70146" stroke-linecap="round" stroke-linejoin="round"/>
<path id="Vector_4" fill-rule="evenodd" clip-rule="evenodd" d="M11.0406 13.3281C11.0406 13.7394 10.9186 14.1415 10.6901 14.4834C10.4616 14.8254 10.1368 15.092 9.75683 15.2494C9.37684 15.4068 8.95871 15.4479 8.55531 15.3677C8.15192 15.2875 7.78138 15.0894 7.49054 14.7986C7.19971 14.5077 7.00165 14.1372 6.92141 13.7338C6.84117 13.3304 6.88235 12.9123 7.03975 12.5323C7.19715 12.1523 7.46369 11.8275 7.80567 11.599C8.14766 11.3705 8.54972 11.2485 8.96102 11.2485C9.51255 11.2485 10.0415 11.4676 10.4315 11.8576C10.8215 12.2476 11.0406 12.7766 11.0406 13.3281V13.3281Z" stroke="var(--stroke-0, #A0A3BD)" stroke-width="1.70146" stroke-linecap="round" stroke-linejoin="round"/>
<path id="Vector_5" d="M11.8724 7.08941H4.59394" stroke="var(--stroke-0, #A0A3BD)" stroke-width="1.70146" stroke-linecap="round" stroke-linejoin="round"/>
<path id="Vector_6" fill-rule="evenodd" clip-rule="evenodd" d="M16.0315 7.08941C16.0315 6.67811 15.9096 6.27605 15.6811 5.93407C15.4525 5.59209 15.1278 5.32554 14.7478 5.16815C14.3678 5.01075 13.9497 4.96957 13.5463 5.04981C13.1429 5.13005 12.7723 5.32811 12.4815 5.61894C12.1907 5.90977 11.9926 6.28031 11.9124 6.68371C11.8321 7.0871 11.8733 7.50523 12.0307 7.88522C12.1881 8.26521 12.4546 8.59 12.7966 8.8185C13.1386 9.04701 13.5407 9.16897 13.952 9.16897C14.5035 9.16897 15.0324 8.94988 15.4224 8.55988C15.8124 8.16989 16.0315 7.64094 16.0315 7.08941Z" stroke="var(--stroke-0, #A0A3BD)" stroke-width="1.70146" stroke-linecap="round" stroke-linejoin="round"/>
</g>
</svg>
