<svg preserveAspectRatio="none" width="100%" height="100%" overflow="visible" style="display: block;" viewBox="0 0 30 30" fill="none" xmlns="http://www.w3.org/2000/svg">
<g id="fi_10620608" clip-path="url(#clip0_0_4)">
<path id="Vector" d="M24.2394 18.9475C21.3214 18.9475 18.9475 21.3214 18.9475 24.2394C18.9475 27.1573 21.3214 29.5312 24.2394 29.5312C27.1574 29.5312 29.5313 27.1573 29.5313 24.2394C29.5313 21.3215 27.1573 18.9475 24.2394 18.9475ZM24.2394 28.5938C21.8384 28.5938 19.885 26.6404 19.885 24.2394C19.885 21.8384 21.8384 19.885 24.2394 19.885C26.6404 19.885 28.5938 21.8384 28.5938 24.2394C28.5938 26.6405 26.6404 28.5938 24.2394 28.5938ZM24.2394 20.3174C22.0768 20.3174 20.3174 22.0768 20.3174 24.2394C20.3174 26.4021 22.0768 28.1614 24.2394 28.1614C26.4021 28.1614 28.1614 26.4021 28.1614 24.2394C28.1614 22.0768 26.402 20.3174 24.2394 20.3174ZM24.2394 27.2238C22.5938 27.2238 21.2549 25.885 21.2549 24.2394C21.2549 22.5937 22.5938 21.2548 24.2394 21.2548C25.885 21.2548 27.2239 22.5937 27.2239 24.2394C27.2238 25.885 25.885 27.2238 24.2394 27.2238ZM26.13 25.3309C26.0432 25.4812 25.8856 25.5653 25.7236 25.5653C25.6441 25.5653 25.5635 25.5451 25.4897 25.5025L24.005 24.6453C23.8599 24.5616 23.7706 24.4069 23.7706 24.2394V22.1877C23.7706 21.9288 23.9805 21.7189 24.2394 21.7189C24.4982 21.7189 24.7081 21.9288 24.7081 22.1877V23.9687L25.9584 24.6906C26.1827 24.8201 26.2595 25.1067 26.13 25.3309ZM1.32885 9.90158C1.32885 10.1964 1.46279 10.752 2.35998 11.1609C2.90777 11.4105 3.62566 11.548 4.38141 11.548C5.13715 11.548 5.85504 11.4105 6.40277 11.1609C7.29996 10.752 7.43391 10.1964 7.43391 9.90158C7.43391 9.32971 6.96592 8.8418 6.17232 8.54742C7.26076 7.24606 8.294 5.77717 8.294 4.38135C8.29395 2.22393 6.53877 0.46875 4.38135 0.46875C2.22393 0.46875 0.46875 2.22393 0.46875 4.38135C0.46875 5.77717 1.50199 7.24606 2.59043 8.54742C1.79684 8.8418 1.32885 9.32971 1.32885 9.90158ZM6.49635 9.90158C6.49635 10.1074 5.75525 10.6106 4.38135 10.6106C3.00744 10.6106 2.26629 10.1074 2.26629 9.90158C2.26629 9.77801 2.56922 9.494 3.25687 9.32297C3.32057 9.39574 3.38391 9.46799 3.44637 9.53912C3.65355 9.77525 3.84926 9.99832 4.02346 10.2043C4.11258 10.3096 4.24348 10.3703 4.38135 10.3703C4.51922 10.3703 4.65018 10.3096 4.73924 10.2043C4.91338 9.99838 5.10908 9.77537 5.31627 9.53918C5.37873 9.46799 5.44207 9.39574 5.50576 9.32297C6.19342 9.494 6.49635 9.77807 6.49635 9.90158ZM4.38135 1.40625C6.0218 1.40625 7.35639 2.74084 7.35639 4.38135C7.35639 5.79281 5.76996 7.60072 4.61156 8.9209C4.53305 9.01037 4.45623 9.09797 4.38129 9.18369C4.30641 9.09791 4.22947 9.01031 4.15096 8.92084C2.99268 7.60072 1.40625 5.79275 1.40625 4.38135C1.40625 2.74084 2.74084 1.40625 4.38135 1.40625ZM6.59666 4.38135C6.59666 3.15979 5.60285 2.16598 4.38135 2.16598C3.15979 2.16598 2.16598 3.15979 2.16598 4.38135C2.16598 5.60291 3.15979 6.59666 4.38135 6.59666C5.60285 6.59666 6.59666 5.60291 6.59666 4.38135ZM3.10354 4.38135C3.10354 3.67676 3.67676 3.10348 4.38141 3.10348C5.08594 3.10348 5.65922 3.6767 5.65922 4.38135C5.65922 5.08588 5.086 5.65916 4.38141 5.65916C3.67676 5.65916 3.10354 5.08594 3.10354 4.38135ZM9.80578 3.37963C9.70887 3.13951 9.82482 2.86635 10.0649 2.76943C11.6336 2.13592 13.294 1.81471 15.0001 1.81471C18.522 1.81471 21.8331 3.18621 24.3235 5.67656C26.8139 8.16697 28.1854 11.4781 28.1854 15C28.1854 15.4325 28.1638 15.8649 28.122 16.2945L28.7258 15.6708C28.9058 15.4848 29.2026 15.4799 29.3886 15.6601C29.5747 15.8402 29.5794 16.137 29.3994 16.3229L27.7674 18.0084C27.6786 18.1001 27.5569 18.1512 27.4307 18.1512C27.4144 18.1512 27.398 18.1503 27.3816 18.1486C27.2383 18.1335 27.1099 18.0533 27.0334 17.9312L25.7882 15.9428C25.6508 15.7234 25.7173 15.4341 25.9367 15.2968C26.1563 15.1594 26.4454 15.2259 26.5828 15.4453L27.1697 16.3825C27.2211 15.9245 27.248 15.4625 27.248 15.0001C27.248 8.24666 21.7536 2.75232 15.0001 2.75232C13.415 2.75232 11.8727 3.05063 10.4161 3.63885C10.1759 3.73582 9.90264 3.61963 9.80578 3.37963ZM18.0786 27.3503C18.1317 27.6037 17.9694 27.8521 17.716 27.9052C16.8285 28.0911 15.9148 28.1854 15 28.1854C11.4781 28.1854 8.16691 26.8138 5.67656 24.3234C3.18615 21.8331 1.81465 18.5219 1.81465 15C1.81465 14.5675 1.83633 14.1351 1.87822 13.7054L1.27424 14.3292C1.09418 14.5153 0.797344 14.5201 0.611426 14.3399C0.425391 14.1599 0.420645 13.8631 0.600703 13.6771L2.23271 11.9916C2.33297 11.888 2.47541 11.8365 2.61855 11.8515C2.76182 11.8666 2.89025 11.9467 2.96672 12.0688L4.21189 14.0572C4.3493 14.2767 4.28279 14.5659 4.06342 14.7033C3.98607 14.7517 3.90006 14.7748 3.8151 14.7748C3.65895 14.7748 3.50631 14.6969 3.41736 14.5548L2.83043 13.6175C2.77898 14.0756 2.75215 14.5377 2.75215 15C2.75215 21.7535 8.24654 27.2479 15 27.2479C15.8503 27.2479 16.6994 27.1603 17.5237 26.9876C17.7776 26.9343 18.0256 27.097 18.0786 27.3503ZM9.77877 18.3982H12.5922V18.9679H11.6169C10.9124 18.9679 10.3392 19.4681 10.3392 20.083V21.0026C10.3392 21.2614 10.5491 21.4713 10.808 21.4713H19.1921C19.451 21.4713 19.6608 21.2614 19.6608 21.0026V20.083C19.6608 19.4681 19.0877 18.9679 18.3831 18.9679H17.4079V18.3982H20.2213C21.0028 18.3982 21.6386 17.7623 21.6386 16.9809V10.4546C21.6386 9.67312 21.0028 9.03732 20.2213 9.03732H20.0638V7.82555C20.0638 7.56668 19.854 7.3568 19.5951 7.3568C17.3868 7.3568 16.6775 7.54893 15.2646 7.93172C15.1793 7.95486 15.0912 7.97871 14.9999 8.00326C14.9087 7.97871 14.8206 7.95486 14.7353 7.93172C13.3223 7.54893 12.6131 7.3568 10.4048 7.3568C10.1459 7.3568 9.93604 7.56668 9.93604 7.82555V9.03732H9.77865C8.99707 9.03732 8.36127 9.67318 8.36127 10.4546V16.9809C8.36133 17.7624 8.99719 18.3982 9.77877 18.3982ZM18.7233 20.083V20.5338H11.2767V20.083C11.2767 20.022 11.4092 19.9054 11.6169 19.9054H18.3831C18.5908 19.9054 18.7233 20.022 18.7233 20.083ZM16.4704 18.9679H13.5297V18.3982H16.4704V18.9679ZM15.4688 8.84772C15.4825 8.84402 15.4962 8.84027 15.5098 8.83658C16.7753 8.49375 17.4076 8.32254 19.1264 8.29752V13.5802C17.6126 13.613 16.4051 13.8083 15.4688 14.1729V8.84772ZM10.8736 8.29746C12.5924 8.32248 13.2247 8.49375 14.4902 8.83652C14.5038 8.84021 14.5175 8.84396 14.5313 8.84766V14.1729C13.595 13.8082 12.3874 13.6129 10.8736 13.5801V8.29746ZM9.29883 10.4546C9.29883 10.19 9.5141 9.97482 9.77871 9.97482H9.93609V14.0439C9.93609 14.3028 10.146 14.5127 10.4048 14.5127C12.3714 14.5127 13.8386 14.7841 14.7656 15.3193C14.8381 15.3612 14.9191 15.3821 15 15.3821C15.0809 15.3821 15.1619 15.3612 15.2344 15.3193C16.1614 14.7841 17.6286 14.5127 19.5952 14.5127C19.854 14.5127 20.0639 14.3028 20.0639 14.0439V9.97482H20.2213C20.486 9.97482 20.7012 10.1901 20.7012 10.4546V16.9809C20.7012 17.2455 20.4859 17.4607 20.2213 17.4607H9.77877C9.5141 17.4607 9.29889 17.2454 9.29889 16.9809V10.4546H9.29883ZM11.2148 10.3186C11.229 10.0601 11.449 9.86168 11.7086 9.87627C12.5017 9.91992 13.1382 10.014 13.8369 10.1907C14.0879 10.2543 14.2399 10.5092 14.1764 10.7602C14.1227 10.9726 13.9318 11.1141 13.7223 11.1141C13.6843 11.1141 13.6455 11.1094 13.607 11.0996C12.9698 10.9385 12.3867 10.8525 11.6571 10.8124C11.3986 10.7982 11.2006 10.5771 11.2148 10.3186ZM14.1773 9.43488C14.125 9.64898 13.9334 9.79254 13.7224 9.79254C13.6855 9.79254 13.6481 9.78814 13.6107 9.77906C12.9429 9.61594 12.3775 9.53461 11.6593 9.49846C11.4007 9.48539 11.2017 9.26525 11.2147 9.00668C11.2277 8.74816 11.4495 8.55035 11.7064 8.56207C12.4878 8.60145 13.104 8.69021 13.8332 8.86834C14.0847 8.92975 14.2388 9.1834 14.1773 9.43488ZM11.2149 11.6305C11.2303 11.3721 11.4513 11.1753 11.7105 11.1902C12.5119 11.2377 13.1687 11.3367 13.84 11.5113C14.0905 11.5765 14.2408 11.8324 14.1756 12.083C14.1207 12.294 13.9306 12.4338 13.7224 12.4338C13.6833 12.4338 13.6436 12.4289 13.6039 12.4186C12.9942 12.2599 12.3931 12.1697 11.6552 12.1261C11.3968 12.1109 11.1997 11.889 11.2149 11.6305ZM14.1751 13.4035C14.1193 13.6134 13.9297 13.7521 13.7222 13.7521C13.6824 13.7521 13.642 13.747 13.6017 13.7363C13.0149 13.5804 12.3959 13.4862 11.6535 13.4396C11.3951 13.4235 11.1988 13.2009 11.215 12.9425C11.2313 12.6841 11.4544 12.4881 11.7122 12.504C12.5176 12.5545 13.1944 12.6581 13.8422 12.8301C14.0925 12.8966 14.2415 13.1533 14.1751 13.4035ZM15.8227 9.43488C15.7612 9.1834 15.9153 8.92975 16.1668 8.86828C16.896 8.69016 17.5122 8.60139 18.2936 8.56201C18.5517 8.54877 18.7723 8.74799 18.7853 9.00662C18.7983 9.26514 18.5993 9.48533 18.3407 9.4984C17.6225 9.53455 17.0572 9.61588 16.3893 9.779C16.3519 9.78809 16.3145 9.79248 16.2776 9.79248C16.0666 9.79254 15.875 9.64904 15.8227 9.43488ZM18.7851 11.6305C18.8004 11.889 18.6032 12.1109 18.3448 12.1262C17.6069 12.1697 17.0058 12.26 16.3961 12.4187C16.3564 12.429 16.3167 12.4339 16.2776 12.4339C16.0693 12.4339 15.8792 12.294 15.8244 12.0831C15.7592 11.8325 15.9094 11.5765 16.16 11.5114C16.8313 11.3367 17.4881 11.2377 18.2895 11.1903C18.5481 11.1765 18.7698 11.3721 18.7851 11.6305ZM18.785 12.9425C18.8012 13.2009 18.6049 13.4235 18.3465 13.4397C17.6042 13.4862 16.9852 13.5804 16.3983 13.7363C16.358 13.747 16.3175 13.7521 16.2778 13.7521C16.0703 13.7521 15.8807 13.6135 15.8249 13.4036C15.7585 13.1533 15.9075 12.8967 16.1578 12.8302C16.8056 12.6582 17.4824 12.5546 18.2878 12.5041C18.5484 12.4881 18.7688 12.6842 18.785 12.9425ZM18.7852 10.3186C18.7994 10.5771 18.6014 10.7982 18.3429 10.8124C17.6133 10.8526 17.0302 10.9385 16.393 11.0996C16.3545 11.1094 16.3158 11.1141 16.2777 11.1141C16.0682 11.1141 15.8773 10.9726 15.8236 10.7602C15.7601 10.5092 15.9121 10.2543 16.1631 10.1907C16.8618 10.014 17.4983 9.91992 18.2914 9.87627C18.551 9.86303 18.7709 10.0601 18.7852 10.3186Z" fill="var(--fill-0, black)"/>
</g>
<defs>
<clipPath id="clip0_0_4">
<rect width="30" height="30" fill="white"/>
</clipPath>
</defs>
</svg>
