<svg preserveAspectRatio="none" width="100%" height="100%" overflow="visible" style="display: block;" viewBox="0 0 28 21" fill="none" xmlns="http://www.w3.org/2000/svg">
<g id="Group 1171275553">
<path id="Vector" d="M14.3656 2.23085L14 2.44584L13.6339 2.23085C10.0888 0.142531 7.16283 -0.419581 3.53683 0.294256C3.41745 0.317709 3.30946 0.38563 3.23168 0.486192C3.15389 0.586754 3.11123 0.713588 3.11113 0.84461V16.521C3.11109 16.603 3.12775 16.6841 3.15992 16.7584C3.19208 16.8327 3.23898 16.8984 3.29728 16.951C3.35536 17.004 3.42368 17.0423 3.49725 17.0632C3.57082 17.084 3.64776 17.0868 3.72246 17.0714C7.13846 16.4029 9.77772 16.9113 13.1372 18.8898L13.7516 19.2521C13.7749 19.2641 13.799 19.2742 13.8237 19.2823C13.8393 19.2885 13.8533 19.2969 13.8688 19.3014C13.9549 19.3267 14.0457 19.3267 14.1317 19.3014C14.1462 19.2974 14.1602 19.289 14.1748 19.2834C14.2001 19.2752 14.2247 19.2647 14.2484 19.2521L14.8623 18.8898C18.2234 16.9113 20.8621 16.4035 24.2776 17.0714C24.3523 17.0872 24.4293 17.0846 24.5029 17.0638C24.5766 17.0429 24.6449 17.0044 24.7028 16.951C24.7611 16.8984 24.808 16.8327 24.8401 16.7584C24.8723 16.6841 24.8889 16.603 24.8889 16.521V0.84461C24.8888 0.713588 24.8461 0.586754 24.7684 0.486192C24.6906 0.38563 24.5826 0.317709 24.4632 0.294256C20.8362 -0.419581 17.9112 0.142531 14.3656 2.23085ZM13.4815 17.8177C11.3204 16.4566 8.87108 15.7193 6.3695 15.6767C5.62588 15.6795 4.88345 15.7411 4.14817 15.8609V1.3177C7.36298 0.770707 9.91876 1.3177 13.1372 3.21343L13.4815 3.41666V17.8177ZM23.8519 15.8581C20.5541 15.333 17.7956 15.9141 14.5185 17.8177V3.41666L14.8623 3.21343C18.0813 1.3177 20.6402 0.770148 23.8519 1.3177V15.8581Z" fill="var(--fill-0, black)"/>
<path id="Vector_2" d="M5.67564 4.55153L5.73164 5.67127C7.79455 5.54694 9.85267 5.99386 11.7107 6.96962L12.1411 5.95065C10.1279 4.90871 7.90517 4.42771 5.67564 4.55153Z" fill="var(--fill-0, black)"/>
<path id="Vector_3" d="M5.67417 7.91132L5.73329 9.03106C7.79567 8.9062 9.85337 9.35295 11.7108 10.3288L12.1411 9.30988C10.1291 8.26276 7.90453 7.78168 5.67417 7.91132Z" fill="var(--fill-0, black)"/>
<path id="Vector_4" d="M5.67417 11.2704L5.73329 12.3902C7.79571 12.2648 9.85353 12.7115 11.7108 13.688L12.1411 12.669C10.1293 11.6211 7.90459 11.14 5.67417 11.2704Z" fill="var(--fill-0, black)"/>
<path id="Vector_5" d="M27.329 20.9753C27.3785 20.9914 27.4298 20.9997 27.4815 20.9999C27.619 20.9999 27.7509 20.9409 27.8481 20.8359C27.9454 20.7309 28 20.5885 28 20.44V3.64386C28 3.49537 27.9454 3.35296 27.8481 3.24797C27.7509 3.14297 27.619 3.08398 27.4815 3.08398H25.9259V16.5209C25.9259 16.7669 25.8758 17.0098 25.7792 17.2326C25.6827 17.4553 25.542 17.6525 25.3671 17.81C25.1922 17.9676 24.9874 18.0818 24.7671 18.1446C24.5469 18.2073 24.3166 18.217 24.0924 18.1731C20.9362 17.5572 18.4878 18.0298 15.359 19.8729L14.7456 20.2351C14.6715 20.2742 14.5945 20.3066 14.5154 20.332L14.4661 20.3527C18.687 19.3666 23.0715 19.5663 27.2004 20.9327L27.329 20.9753Z" fill="var(--fill-0, black)"/>
<path id="Vector_6" d="M0 3.64397V20.4401C0 20.5886 0.0546296 20.731 0.151871 20.836C0.249112 20.941 0.380999 21 0.518518 21C0.570174 20.9999 0.621532 20.9916 0.670963 20.9754L0.799555 20.9328C4.92822 19.5659 9.31272 19.3662 13.5333 20.3528C13.5162 20.3449 13.4996 20.3382 13.4815 20.3315C13.403 20.306 13.3266 20.2738 13.2528 20.2352L12.6389 19.873C9.51015 18.0299 7.0617 17.5557 3.906 18.1732C3.68199 18.2169 3.45184 18.2069 3.23178 18.1441C3.01173 18.0812 2.80713 17.967 2.63242 17.8094C2.45772 17.6518 2.31717 17.4548 2.2207 17.2322C2.12422 17.0096 2.07417 16.7668 2.07407 16.521V3.08409H0.518518C0.380999 3.08409 0.249112 3.14308 0.151871 3.24808C0.0546296 3.35307 0 3.49548 0 3.64397Z" fill="var(--fill-0, black)"/>
<path id="Vector_7" d="M15.8589 5.95058L16.2892 6.96955C18.1473 5.99378 20.2053 5.5465 22.2683 5.67008L22.3243 4.55034C20.0946 4.42636 17.8718 4.90778 15.8589 5.95058Z" fill="var(--fill-0, black)"/>
<path id="Vector_8" d="M15.8589 9.30991L16.2892 10.3289C18.1466 9.35265 20.2042 8.90515 22.2667 9.02885L22.3258 7.90911C20.0953 7.78029 17.8708 8.26213 15.8589 9.30991Z" fill="var(--fill-0, black)"/>
<path id="Vector_9" d="M15.8589 12.669L16.2892 13.688C18.1464 12.7113 20.2041 12.2637 22.2667 12.388L22.3258 11.2682C20.0953 11.1394 17.8708 11.6213 15.8589 12.669Z" fill="var(--fill-0, black)"/>
</g>
</svg>
