<svg preserveAspectRatio="none" width="100%" height="100%" overflow="visible" style="display: block;" viewBox="0 0 30 30" fill="none" xmlns="http://www.w3.org/2000/svg">
<g id="fi_15756443" clip-path="url(#clip0_0_4)">
<path id="Vector" d="M27.533 4.07408H26.9462V0.43875C26.9462 0.212578 26.7629 0.0292969 26.5368 0.0292969H3.46324C3.23713 0.0292969 3.05379 0.212637 3.05379 0.43875V4.07402H2.46697C1.62146 4.07402 0.933633 4.76191 0.933633 5.60742V23.7394C0.933633 24.5849 1.62152 25.2728 2.46697 25.2728H12.2408V27.1658H9.57187C9.34576 27.1658 9.16242 27.3492 9.16242 27.5753V29.5612C9.16242 29.7874 9.34576 29.9706 9.57187 29.9706H20.4281C20.6542 29.9706 20.8376 29.7873 20.8376 29.5612V27.5753C20.8376 27.3491 20.6542 27.1658 20.4281 27.1658H17.7592V25.2728H27.533C28.3785 25.2728 29.0664 24.5849 29.0664 23.7394V5.60742C29.0664 4.76197 28.3785 4.07408 27.533 4.07408ZM3.8727 0.848262H26.1274V2.52416H3.8727V0.848262ZM1.75248 5.60742C1.75248 5.2135 2.07299 4.89299 2.46691 4.89299H3.05373V15.3547C3.05373 15.5809 3.23707 15.7642 3.46318 15.7642C3.6893 15.7642 3.87264 15.5808 3.87264 15.3547V3.34301H26.1273V20.6162H3.8727V17.0207C3.8727 16.7946 3.68936 16.6113 3.46324 16.6113C3.23713 16.6113 3.05379 16.7946 3.05379 17.0207V20.6162H1.75248V5.60742ZM20.0187 27.9848V29.1517H9.98133V27.9848H12.6502H17.3498H20.0187ZM13.0597 27.1658V25.2728H16.9403V27.1658H13.0597ZM28.2475 23.7394C28.2475 24.1333 27.927 24.4538 27.5331 24.4538H17.3498H12.6502H2.46697C2.07299 24.4538 1.75254 24.1333 1.75254 23.7394V21.4352H28.2476V23.7394H28.2475ZM28.2475 20.6163H26.9462V4.89299H27.533C27.927 4.89299 28.2475 5.2135 28.2475 5.60742V20.6163H28.2475ZM5.35137 12.981H13.2288C13.4549 12.981 13.6382 12.7976 13.6382 12.5715V4.69412C13.6382 4.46795 13.4549 4.28467 13.2288 4.28467H5.35137C5.12525 4.28467 4.94191 4.46801 4.94191 4.69412V12.5715C4.94191 12.7976 5.1252 12.981 5.35137 12.981ZM5.76076 5.10357H12.8193V12.162H5.76076V5.10357ZM5.35137 19.5421H8.21092C8.43703 19.5421 8.62037 19.3588 8.62037 19.1327V16.2732C8.62037 16.047 8.43703 15.8637 8.21092 15.8637H5.35137C5.12525 15.8637 4.94191 16.0471 4.94191 16.2732V19.1327C4.94191 19.3588 5.1252 19.5421 5.35137 19.5421ZM5.76076 16.6826H7.80141V18.7232H5.76076V16.6826ZM10.4206 16.2731V19.1326C10.4206 19.3588 10.6039 19.5421 10.8301 19.5421H13.6896C13.9157 19.5421 14.099 19.3587 14.099 19.1326V16.2731C14.099 16.047 13.9157 15.8637 13.6896 15.8637H10.8301C10.6039 15.8637 10.4206 16.047 10.4206 16.2731ZM11.2395 16.6826H13.2802V18.7232H11.2395V16.6826ZM19.1699 15.8637H16.3104C16.0843 15.8637 15.9009 16.047 15.9009 16.2731V19.1326C15.9009 19.3588 16.0842 19.5421 16.3104 19.5421H19.1699C19.3961 19.5421 19.5794 19.3587 19.5794 19.1326V16.2731C19.5794 16.047 19.3961 15.8637 19.1699 15.8637ZM18.7605 18.7232H16.7198V16.6826H18.7605V18.7232ZM24.6486 15.8637H21.7891C21.563 15.8637 21.3797 16.047 21.3797 16.2731V19.1326C21.3797 19.3588 21.563 19.5421 21.7891 19.5421H24.6486C24.8747 19.5421 25.0581 19.3587 25.0581 19.1326V16.2731C25.0581 16.047 24.8747 15.8637 24.6486 15.8637ZM24.2392 18.7232H22.1985V16.6826H24.2392V18.7232ZM11.6324 7.38615H10.5367V6.29045C10.5367 6.06428 10.3533 5.881 10.1272 5.881H8.45127C8.22516 5.881 8.04182 6.06434 8.04182 6.29045V7.38615H6.94605C6.71994 7.38615 6.5366 7.56949 6.5366 7.79561V9.47156C6.5366 9.69773 6.71994 9.88102 6.94605 9.88102H8.04182V10.9767C8.04182 11.2029 8.22516 11.3862 8.45127 11.3862H10.1272C10.3533 11.3862 10.5367 11.2028 10.5367 10.9767V9.88102H11.6324C11.8585 9.88102 12.0418 9.69768 12.0418 9.47156V7.79561C12.0418 7.56949 11.8585 7.38615 11.6324 7.38615ZM11.2229 9.06211H10.1272C9.90111 9.06211 9.71777 9.24545 9.71777 9.47156V10.5673H8.86072V9.47156C8.86072 9.24539 8.67738 9.06211 8.45127 9.06211H7.35551V8.20512H8.45127C8.67738 8.20512 8.86072 8.02178 8.86072 7.79566V6.69996H9.71777V7.79566C9.71777 8.02184 9.90111 8.20512 10.1272 8.20512H11.2229V9.06211ZM14.714 4.69412C14.714 4.46795 14.8973 4.28467 15.1235 4.28467H16.7546C16.9808 4.28467 17.1641 4.46801 17.1641 4.69412C17.1641 4.92023 16.9808 5.10357 16.7546 5.10357H15.1235C14.8973 5.10357 14.714 4.92023 14.714 4.69412ZM17.978 4.69412C17.978 4.46795 18.1614 4.28467 18.3875 4.28467H24.6486C24.8747 4.28467 25.0581 4.46801 25.0581 4.69412C25.0581 4.92023 24.8747 5.10357 24.6486 5.10357H18.3875C18.1614 5.10357 17.978 4.92023 17.978 4.69412ZM25.0581 6.6634C25.0581 6.88957 24.8747 7.07285 24.6486 7.07285H23.0175C22.7914 7.07285 22.608 6.88951 22.608 6.6634C22.608 6.43723 22.7914 6.25395 23.0175 6.25395H24.6486C24.8747 6.25395 25.0581 6.43723 25.0581 6.6634ZM14.714 6.6634C14.714 6.43723 14.8973 6.25395 15.1235 6.25395H21.3863C21.6124 6.25395 21.7957 6.43729 21.7957 6.6634C21.7957 6.88957 21.6124 7.07285 21.3863 7.07285H15.1235C14.8973 7.07285 14.714 6.88957 14.714 6.6634ZM14.714 8.63279C14.714 8.40662 14.8973 8.22334 15.1235 8.22334H16.7546C16.9808 8.22334 17.1641 8.40668 17.1641 8.63279C17.1641 8.85891 16.9808 9.04225 16.7546 9.04225H15.1235C14.8973 9.04225 14.714 8.85891 14.714 8.63279ZM25.0581 8.63279C25.0581 8.85896 24.8747 9.04225 24.6486 9.04225H18.3875C18.1614 9.04225 17.978 8.85891 17.978 8.63279C17.978 8.40668 18.1614 8.22334 18.3875 8.22334H24.6486C24.8747 8.22328 25.0581 8.40662 25.0581 8.63279ZM25.0581 10.6021C25.0581 10.8283 24.8747 11.0116 24.6486 11.0116H23.0175C22.7914 11.0116 22.608 10.8282 22.608 10.6021C22.608 10.376 22.7914 10.1927 23.0175 10.1927H24.6486C24.8747 10.1927 25.0581 10.376 25.0581 10.6021ZM14.714 10.6021C14.714 10.376 14.8973 10.1927 15.1235 10.1927H21.3863C21.6124 10.1927 21.7957 10.376 21.7957 10.6021C21.7957 10.8282 21.6124 11.0116 21.3863 11.0116H15.1235C14.8973 11.0116 14.714 10.8282 14.714 10.6021ZM14.714 12.5715C14.714 12.3453 14.8973 12.162 15.1235 12.162H16.7546C16.9808 12.162 17.1641 12.3454 17.1641 12.5715C17.1641 12.7976 16.9808 12.9809 16.7546 12.9809H15.1235C14.8973 12.981 14.714 12.7976 14.714 12.5715ZM25.0581 12.5715C25.0581 12.7976 24.8747 12.9809 24.6486 12.9809H18.3875C18.1614 12.9809 17.978 12.7976 17.978 12.5715C17.978 12.3453 18.1614 12.162 18.3875 12.162H24.6486C24.8747 12.162 25.0581 12.3454 25.0581 12.5715ZM6.34102 1.68533C6.34102 1.9115 6.15768 2.09479 5.93156 2.09479H5.35137C5.12525 2.09479 4.94191 1.91145 4.94191 1.68533C4.94191 1.45916 5.12525 1.27588 5.35137 1.27588H5.93156C6.15768 1.27588 6.34102 1.45922 6.34102 1.68533ZM8.91873 1.68533C8.91873 1.9115 8.73539 2.09479 8.50928 2.09479H7.92744C7.70133 2.09479 7.51799 1.91145 7.51799 1.68533C7.51799 1.45916 7.70127 1.27588 7.92744 1.27588H8.50928C8.73539 1.27588 8.91873 1.45922 8.91873 1.68533ZM11.4947 1.68533C11.4947 1.9115 11.3114 2.09479 11.0853 2.09479H10.5051C10.279 2.09479 10.0956 1.91145 10.0956 1.68533C10.0956 1.45916 10.279 1.27588 10.5051 1.27588H11.0853C11.3115 1.27588 11.4947 1.45922 11.4947 1.68533Z" fill="var(--fill-0, black)"/>
</g>
<defs>
<clipPath id="clip0_0_4">
<rect width="30" height="30" fill="white"/>
</clipPath>
</defs>
</svg>
