<svg preserveAspectRatio="none" width="100%" height="100%" overflow="visible" style="display: block;" viewBox="0 0 30 30" fill="none" xmlns="http://www.w3.org/2000/svg">
<g id="fi_18595661">
<path id="Vector" fill-rule="evenodd" clip-rule="evenodd" d="M9.11218 26.7206C9.17359 26.8682 9.23506 27.0158 9.29647 27.1634L9.29665 27.1638C9.41988 27.4619 9.42012 27.7622 9.29841 28.062L9.29765 28.0637C9.17447 28.3595 8.962 28.5727 8.663 28.6986L8.66194 28.6991L6.87612 29.4394C6.27982 29.6884 5.58941 29.4026 5.34206 28.8069C4.33459 26.386 3.32565 23.9651 2.31818 21.5442C2.19241 21.2467 2.192 20.9447 2.31594 20.6449C2.43959 20.346 2.65324 20.1325 2.95024 20.0088L4.73788 19.2668C5.33376 19.0195 6.022 19.3025 6.27176 19.8989L6.27194 19.8994C6.32476 20.0263 6.37759 20.1532 6.43047 20.2802C7.30547 19.8665 8.17923 19.4501 9.049 19.0246C9.49823 18.8049 9.90959 18.6119 10.3069 18.4665V17.7649C10.3069 17.2346 10.6507 16.7809 11.1265 16.6156C10.8936 14.4459 10.2085 13.6339 9.68482 12.7915C9.26529 12.1166 8.935 11.4251 8.935 10.1669C8.935 7.25541 11.2968 4.89359 14.2096 4.89359C17.1212 4.89359 19.4831 7.25535 19.4831 10.1669C19.4831 10.2724 19.4807 10.3736 19.4761 10.4712C19.421 11.6437 19.0563 12.2904 18.6195 12.9713C18.2374 13.5666 17.7927 14.1916 17.5085 15.3421C17.418 15.7087 17.3436 16.128 17.2915 16.6155C17.3394 16.6321 17.3859 16.6515 17.4309 16.6738C17.8334 16.8723 18.1112 17.2878 18.1112 17.7649V19.4999C18.1112 19.7426 18.0388 19.9694 17.9145 20.1599L17.9992 20.1825C18.5605 20.3329 19.0028 20.7126 19.2521 21.1941L23.8662 19.8405C25.8554 19.2569 26.9551 19.6827 27.4386 20.3363C27.7607 20.7716 27.8446 21.3354 27.7241 21.8926C27.5545 22.6766 26.9756 23.4376 26.1865 23.7421L19.2132 26.4292C18.0413 26.8802 16.4755 27.5109 15.2179 27.1458L11.5029 26.0681L11.5022 26.0678C11.064 25.9399 10.6435 25.9755 10.2325 26.1756L9.11218 26.7206ZM8.53553 27.4788C8.42482 27.2128 5.61941 20.4752 5.51176 20.2165C5.43712 20.0385 5.23171 19.9537 5.05365 20.0276L3.26665 20.7693C3.17788 20.8063 3.11412 20.8703 3.07712 20.9597C3.04071 21.0479 3.04 21.1366 3.07771 21.2255L3.07824 21.2268C4.08588 23.6479 5.09494 26.0692 6.10265 28.4905L6.10271 28.4907C6.17635 28.6681 6.38176 28.7534 6.55982 28.6788L8.34512 27.9387L8.34565 27.9385C8.43488 27.9006 8.49924 27.8371 8.53712 27.7473C8.57259 27.658 8.57241 27.5681 8.53553 27.4788ZM11.1304 18.2354C12.1644 18.0439 13.2199 18.262 14.7011 19.299L16.9104 19.8909C17.1192 19.8828 17.2876 19.7099 17.2876 19.4999V17.7649C17.2876 17.6105 17.1968 17.4765 17.0665 17.4123C17.0148 17.3867 16.9565 17.3724 16.8951 17.3724H11.5229C11.307 17.3724 11.1304 17.549 11.1304 17.7649V18.2354ZM8.79506 25.9589L9.87182 25.4351C10.4743 25.1417 11.0906 25.0896 11.7324 25.2769L15.4475 26.3547C15.9688 26.506 16.5521 26.4323 17.1268 26.285C17.7598 26.1228 18.3825 25.8663 18.9172 25.6606L25.89 22.9736C26.4225 22.7682 26.8046 22.2475 26.9191 21.7184C26.9879 21.4002 26.9604 21.0748 26.7765 20.8262C26.6199 20.6146 26.3546 20.4695 25.9745 20.4111C25.5068 20.3391 24.8902 20.3985 24.0981 20.6309L19.4727 21.9878C19.4858 22.1966 19.4659 22.4108 19.4091 22.6233C19.1255 23.6819 18.0263 24.3169 16.9683 24.0317L12.4909 22.8328C12.2714 22.774 12.1409 22.548 12.1996 22.3284C12.2585 22.1089 12.4845 21.9784 12.704 22.0371L17.1814 23.2361L17.182 23.2362C17.8028 23.4036 18.4471 23.0309 18.6134 22.4102C18.7797 21.7892 18.4071 21.1445 17.7861 20.9782L14.4171 20.0757C14.3698 20.0631 14.3252 20.0421 14.2853 20.0138C12.8161 18.971 11.8619 18.8404 10.8399 19.1554C10.3892 19.2944 9.92782 19.5117 9.411 19.7645C8.52624 20.1973 7.63741 20.6207 6.74735 21.0414C7.42976 22.6805 8.11259 24.3196 8.79506 25.9589ZM11.9477 16.5489H13.7979V11.3106L11.9181 10.2249C11.7212 10.1112 11.6538 9.85918 11.7674 9.66235C11.8811 9.46559 12.1331 9.39806 12.3299 9.51171L14.2096 10.5974L16.0881 9.51176C16.2848 9.39806 16.5369 9.46553 16.6506 9.66229C16.7644 9.85906 16.6969 10.1111 16.5001 10.2248L14.6214 11.3105V16.5489H16.4705C16.5271 16.0101 16.6094 15.5479 16.7091 15.1446C17.0224 13.8759 17.5051 13.1831 17.9263 12.5265C18.2928 11.9555 18.6073 11.416 18.6535 10.4326C18.6575 10.3474 18.6595 10.2589 18.6595 10.1669C18.6595 7.71006 16.6665 5.71712 14.2096 5.71712C11.7516 5.71712 9.75853 7.71006 9.75853 10.1669C9.75853 11.4998 10.2061 12.0786 10.6818 12.8213C11.1902 13.6151 11.7402 14.5694 11.9477 16.5489ZM20.871 18.9775H21.7745C21.8289 17.6565 23.4192 16.9976 24.3919 17.8937L25.0311 17.2545C24.1351 16.2818 24.7939 14.6915 26.115 14.6371V13.7336C24.7941 13.6791 24.1352 12.0891 25.0308 11.1164L24.3919 10.4769C23.4192 11.373 21.8289 10.7149 21.7745 9.39306H20.8665C20.8332 9.587 20.6641 9.73482 20.4606 9.73482C20.2334 9.73482 20.0489 9.55029 20.0489 9.32306C20.0489 8.907 20.3864 8.56953 20.8024 8.56953H21.8431C22.2591 8.56953 22.5965 8.907 22.5965 9.32306C22.5965 9.98176 23.3943 10.3119 23.8599 9.84629C24.1539 9.55235 24.6321 9.55235 24.926 9.84629L25.6617 10.5826C25.9559 10.8768 25.9559 11.3539 25.6617 11.6481C25.1961 12.1137 25.5266 12.9115 26.185 12.9115C26.6024 12.9115 26.9385 13.2489 26.9385 13.665V14.7056C26.9385 15.1216 26.6024 15.4591 26.185 15.4591C25.5266 15.4591 25.1961 16.2569 25.6617 16.7225C25.9556 17.0165 25.9556 17.4946 25.6617 17.7885L24.926 18.5243C24.6321 18.8182 24.1539 18.8182 23.8599 18.5243C23.3943 18.0587 22.5965 18.3892 22.5965 19.0476C22.5965 19.465 22.2591 19.8011 21.8431 19.8011H20.8024C20.3864 19.8011 20.0489 19.465 20.0489 19.0476C20.0489 18.6688 19.7852 18.3993 19.4729 18.3257C19.2518 18.2735 19.1145 18.0516 19.1666 17.8304C19.2188 17.6092 19.4407 17.472 19.6619 17.5241C20.3004 17.6746 20.8398 18.2163 20.871 18.9775ZM21.3231 16.8619C19.8487 16.8619 18.6468 15.6593 18.6468 14.1856C18.6468 12.7113 19.8487 11.5093 21.3231 11.5093C22.7967 11.5093 23.9994 12.7113 23.9994 14.1856C23.9994 15.6593 22.7967 16.8619 21.3231 16.8619ZM21.3231 16.0384C22.3432 16.0384 23.1758 15.2058 23.1758 14.1856C23.1758 13.1649 22.3432 12.3328 21.3231 12.3328C20.3024 12.3328 19.4703 13.1649 19.4703 14.1856C19.4703 15.2058 20.3024 16.0384 21.3231 16.0384ZM14.6214 2.44635C14.6214 2.67359 14.4369 2.85812 14.2096 2.85812C13.9824 2.85812 13.7979 2.67359 13.7979 2.44635V0.882353C13.7979 0.655118 13.9824 0.470588 14.2096 0.470588C14.4369 0.470588 14.6214 0.655118 14.6214 0.882353V2.44635ZM10.2064 3.40771C10.3201 3.60447 10.2527 3.85653 10.0559 3.97024C9.85918 4.08394 9.60712 4.01653 9.49341 3.81976L8.71141 2.46647C8.59771 2.26971 8.66518 2.01765 8.86194 1.90394C9.05871 1.79024 9.31077 1.85765 9.42447 2.05441L10.2064 3.40771ZM6.86482 6.44829C7.06159 6.562 7.129 6.81406 7.01529 7.01082C6.90165 7.20765 6.64953 7.27506 6.45276 7.16135L5.09953 6.37941C4.90276 6.26571 4.83529 6.01359 4.949 5.81682C5.06271 5.62006 5.31476 5.55265 5.51153 5.66635L6.86482 6.44829ZM18.9247 3.81976C18.811 4.01653 18.5589 4.08394 18.3621 3.97024C18.1654 3.85653 18.0979 3.60447 18.2116 3.40771L18.9936 2.05441C19.1073 1.85765 19.3594 1.79024 19.5561 1.90394C19.7529 2.01765 19.8204 2.26971 19.7066 2.46647L18.9247 3.81976ZM21.9653 7.16135C21.7685 7.27506 21.5165 7.20765 21.4028 7.01082C21.2891 6.81406 21.3565 6.562 21.5532 6.44829L22.9065 5.66635C23.1033 5.55265 23.3554 5.62006 23.4691 5.81682C23.5828 6.01359 23.5154 6.26571 23.3186 6.37941L21.9653 7.16135Z" fill="var(--fill-0, black)"/>
</g>
</svg>
