<svg preserveAspectRatio="xMidYMid meet" width="100%" height="100%" overflow="visible" style="display: block;" viewBox="0 0 29.4643 29.4643" fill="none" xmlns="http://www.w3.org/2000/svg">
<g id="Social Media Icon Square/Instagram">
<path id="Instagram" d="M15.2746 0.612577C20.8493 0.612577 23.6369 0.612413 25.6447 1.9407C26.5412 2.5339 27.3093 3.30201 27.9025 4.19851C29.231 6.20633 29.2306 8.99444 29.2306 14.5696C29.2306 20.1445 29.2309 22.9319 27.9025 24.9397C27.3092 25.8363 26.5413 26.6043 25.6447 27.1975C23.6369 28.526 20.8495 28.5257 15.2746 28.5257C9.6994 28.5257 6.91129 28.5261 4.90347 27.1975C4.00697 26.6043 3.23886 25.8362 2.64566 24.9397C1.31737 22.932 1.31753 20.1443 1.31753 14.5696C1.31753 8.99444 1.31714 6.20633 2.64566 4.19851C3.23891 3.30193 4.00688 2.53395 4.90347 1.9407C6.91129 0.612187 9.6994 0.612577 15.2746 0.612577ZM15.2736 7.34402C11.2832 7.34427 8.04805 10.5792 8.048 14.5696C8.048 18.56 11.2832 21.7949 15.2736 21.7952C19.2642 21.7952 22.4992 18.5602 22.4992 14.5696C22.4991 10.5791 19.2641 7.34402 15.2736 7.34402ZM15.2736 9.78836C17.914 9.78836 20.0548 11.9292 20.0548 14.5696C20.0548 17.2101 17.914 19.3509 15.2736 19.3509C12.6333 19.3506 10.4933 17.2099 10.4933 14.5696C10.4934 11.9293 12.6334 9.78861 15.2736 9.78836ZM22.7853 5.28348C21.8478 5.28348 21.0873 6.04323 21.0871 6.98074C21.0871 7.91841 21.8476 8.67898 22.7853 8.67898C23.7228 8.67883 24.4826 7.91831 24.4826 6.98074C24.4824 6.04333 23.7227 5.28363 22.7853 5.28348Z" fill="var(--fill-0, #5B6A5A)"/>
</g>
</svg>
