<svg preserveAspectRatio="xMidYMid meet" width="100%" height="100%" overflow="visible" style="display: block;" viewBox="0 0 27.9135 25.9826" fill="none" xmlns="http://www.w3.org/2000/svg">
<g id="Group 73">
<path id="LinkedIn" d="M0 3.01818C0 2.14333 0.314351 1.42159 0.943025 0.852964C1.5717 0.284313 2.389 0 3.39489 0C4.38283 0 5.18214 0.27993 5.79287 0.839842C6.42154 1.41723 6.73589 2.16957 6.73589 3.09692C6.73589 3.93676 6.43054 4.63661 5.81981 5.19652C5.19114 5.77391 4.36486 6.06261 3.341 6.06261H3.31406C2.32612 6.06261 1.52681 5.77391 0.916081 5.19652C0.305351 4.61913 0 3.89301 0 3.01818ZM0.350266 25.9826V8.45091H6.33174V25.9826H0.350266ZM9.6458 25.9826H15.6273V16.1932C15.6273 15.5808 15.6991 15.1084 15.8428 14.776C16.0943 14.1811 16.476 13.678 16.9879 13.2669C17.4998 12.8557 18.142 12.6501 18.9144 12.6501C20.9262 12.6501 21.9321 13.9711 21.9321 16.6131V25.9826H27.9135V15.9307C27.9135 13.3412 27.2849 11.3772 26.0275 10.0387C24.7701 8.70024 23.1086 8.03099 21.0429 8.03099C18.7258 8.03099 16.9206 9.00205 15.6273 10.9442V10.9967H15.6003L15.6273 10.9442V8.45091H9.6458C9.68171 9.01079 9.69968 10.7517 9.69968 13.6737C9.69968 16.5956 9.68171 20.6986 9.6458 25.9826Z" fill="var(--fill-0, #5B6A5A)"/>
</g>
</svg>
