<svg preserveAspectRatio="none" width="100%" height="100%" overflow="visible" style="display: block;" viewBox="0 0 11.6667 15.8484" fill="none" xmlns="http://www.w3.org/2000/svg">
<g id="Container">
<path id="Icon" d="M5.83333 15.8484C4.20833 15.8484 2.82986 15.2824 1.69792 14.1505C0.565972 13.0186 0 11.6401 0 10.0151C0 8.70953 0.385417 7.53939 1.15625 6.50467C1.92708 5.46995 2.9375 4.77203 4.1875 4.41092C3.90972 4.34148 3.63889 4.24078 3.375 4.10884C3.11111 3.97689 2.875 3.80675 2.66667 3.59842C2.20833 3.14009 1.91319 2.59495 1.78125 1.963C1.64931 1.33106 1.61806 0.688697 1.6875 0.0359195C2.34028 -0.0335249 2.98264 -0.0022749 3.61458 0.12967C4.24653 0.261614 4.79167 0.556753 5.25 1.01509C5.56944 1.33453 5.80208 1.69564 5.94792 2.09842C6.09375 2.5012 6.1875 2.92481 6.22917 3.36925C6.40972 2.9387 6.62847 2.53245 6.88542 2.1505C7.14236 1.76856 7.43056 1.41786 7.75 1.09842C7.90278 0.945642 8.09722 0.869253 8.33333 0.869253C8.56944 0.869253 8.76389 0.945642 8.91667 1.09842C9.06944 1.2512 9.14583 1.44564 9.14583 1.68175C9.14583 1.91786 9.06944 2.11231 8.91667 2.26509C8.61111 2.57064 8.34028 2.90745 8.10417 3.2755C7.86806 3.64356 7.69444 4.03592 7.58333 4.45259C8.80556 4.84148 9.79167 5.54634 10.5417 6.56717C11.2917 7.588 11.6667 8.73731 11.6667 10.0151C11.6667 11.6401 11.1007 13.0186 9.96875 14.1505C8.83681 15.2824 7.45833 15.8484 5.83333 15.8484V15.8484M5.83333 14.1818C6.98611 14.1818 7.96875 13.7755 8.78125 12.963C9.59375 12.1505 10 11.1679 10 10.0151C10 8.86231 9.59375 7.87967 8.78125 7.06717C7.96875 6.25467 6.98611 5.84842 5.83333 5.84842C4.68056 5.84842 3.69792 6.25467 2.88542 7.06717C2.07292 7.87967 1.66667 8.86231 1.66667 10.0151C1.66667 11.1679 2.07292 12.1505 2.88542 12.963C3.69792 13.7755 4.68056 14.1818 5.83333 14.1818V14.1818M5.83333 10.0151V10.0151V10.0151V10.0151V10.0151V10.0151V10.0151V10.0151V10.0151V10.0151" fill="var(--fill-0, #5B6A5A)"/>
</g>
</svg>
