<svg preserveAspectRatio="none" width="100%" height="100%" overflow="visible" style="display: block;" viewBox="0 0 16.6667 15" fill="none" xmlns="http://www.w3.org/2000/svg">
<g id="Container">
<path id="Icon" d="M0 4.16667V1.66667C0 1.20833 0.163194 0.815972 0.489583 0.489583C0.815972 0.163194 1.20833 0 1.66667 0H15C15.4583 0 15.8507 0.163194 16.1771 0.489583C16.5035 0.815972 16.6667 1.20833 16.6667 1.66667V6.25H15V1.66667V1.66667V1.66667H1.66667V1.66667V1.66667V4.16667H0V4.16667M4.16667 10.8333C4.01389 10.8333 3.86806 10.7951 3.72917 10.7188C3.59028 10.6424 3.48611 10.5278 3.41667 10.375L1.97917 7.5H0V5.83333H2.5C2.65278 5.83333 2.79861 5.87153 2.9375 5.94792C3.07639 6.02431 3.18056 6.13889 3.25 6.29167L4.16667 8.125L6.75 2.95833C6.81944 2.81944 6.92361 2.71528 7.0625 2.64583C7.20139 2.57639 7.34722 2.54167 7.5 2.54167C7.65278 2.54167 7.79861 2.57639 7.9375 2.64583C8.07639 2.71528 8.18056 2.81944 8.25 2.95833L9.64583 5.75C9.39583 5.90278 9.15625 6.0625 8.92708 6.22917C8.69792 6.39583 8.48611 6.58333 8.29167 6.79167L7.5 5.20833L4.91667 10.375C4.84722 10.5278 4.74306 10.6424 4.60417 10.7188C4.46528 10.7951 4.31944 10.8333 4.16667 10.8333V10.8333M7.22917 13.3333H1.66667C1.20833 13.3333 0.815972 13.1701 0.489583 12.8438C0.163194 12.5174 0 12.125 0 11.6667V9.16667H1.66667V11.6667V11.6667V11.6667H6.72917C6.77083 11.9583 6.83333 12.2431 6.91667 12.5208C7 12.7986 7.10417 13.0694 7.22917 13.3333V13.3333M8.33333 6.66667V6.66667V6.66667V6.66667V6.66667V6.66667V6.66667V6.66667V6.66667V6.66667V6.66667V6.66667V6.66667V6.66667V6.66667V6.66667V6.66667V6.66667M12.5 15C11.3472 15 10.3646 14.5938 9.55208 13.7812C8.73958 12.9688 8.33333 11.9861 8.33333 10.8333C8.33333 9.68056 8.73958 8.69792 9.55208 7.88542C10.3646 7.07292 11.3472 6.66667 12.5 6.66667C13.6528 6.66667 14.6354 7.07292 15.4479 7.88542C16.2604 8.69792 16.6667 9.68056 16.6667 10.8333C16.6667 11.9861 16.2604 12.9688 15.4479 13.7812C14.6354 14.5938 13.6528 15 12.5 15V15M12.6667 11.25L14.5625 9.35417L13.9792 8.77083L12.0833 10.6667L12.6667 11.25V11.25" fill="var(--fill-0, #5B6A5A)"/>
</g>
</svg>
