<svg width="36" height="36" viewBox="0 0 36 36" fill="none" xmlns="http://www.w3.org/2000/svg">
<path d="M16.3562 21.3904C14.728 21.3904 13.1001 20.7704 11.8606 19.5309C9.38207 17.0524 9.38207 13.0188 11.8606 10.5402C14.3396 8.06166 18.3732 8.06126 20.8517 10.5402C23.3307 13.0188 23.3307 17.0524 20.8517 19.5309C19.6122 20.7704 17.984 21.3904 16.3562 21.3904ZM16.3558 9.46853C14.9296 9.46853 13.503 10.0113 12.4172 11.0972C10.2454 13.2689 10.2454 16.8023 12.4172 18.974C14.5889 21.1458 18.1227 21.1458 20.2944 18.974C22.4662 16.8023 22.4662 13.2689 20.2944 11.0972C19.2085 10.0117 17.7824 9.46853 16.3558 9.46853Z" fill="#331B3B"/>
<path d="M29.272 25.8646L24.0372 20.6294C23.5591 20.1513 22.8336 20.0764 22.2707 20.3935L21.1155 19.2383C23.3196 16.7444 23.2361 12.9247 20.8512 10.5402C18.3731 8.06126 14.3391 8.06166 11.8602 10.5402C9.38158 13.0188 9.38158 17.0524 11.8602 19.5309C13.0996 20.77 14.7275 21.3904 16.3557 21.3904C17.8603 21.3904 19.3609 20.8539 20.5586 19.7956L21.7138 20.9508C21.3967 21.5136 21.4712 22.2387 21.9497 22.7173L27.1849 27.9521C27.4626 28.2302 27.8332 28.3834 28.2283 28.3834C28.6233 28.3834 28.994 28.2302 29.2716 27.9521C29.5497 27.674 29.7029 27.3034 29.7029 26.9084C29.7029 26.5133 29.5501 26.1423 29.272 25.8646ZM12.4175 18.974C10.2457 16.8023 10.2457 13.2689 12.4175 11.0972C13.5033 10.0113 14.9295 9.46853 16.3561 9.46853C17.7827 9.46853 19.2088 10.0113 20.2947 11.0972C22.4665 13.2689 22.4665 16.8023 20.2947 18.974C18.123 21.1458 14.5888 21.1454 12.4175 18.974ZM28.7151 27.3952C28.4567 27.6536 28.0006 27.6536 27.7419 27.3952L22.5067 22.16C22.2384 21.8913 22.2384 21.455 22.5067 21.1863C22.641 21.0524 22.817 20.9851 22.9935 20.9851C23.1695 20.9851 23.346 21.052 23.4799 21.1863L28.7147 26.4216C28.8439 26.5507 28.9152 26.7236 28.9152 26.908C28.9152 27.0923 28.8443 27.2656 28.7151 27.3952Z" fill="#331B3B"/>
<path d="M12.2342 17.2988C12.1149 17.2988 11.9971 17.2449 11.9199 17.1428C11.7888 16.9695 11.8226 16.7222 11.9963 16.591L17.6802 12.2893C17.7692 12.2223 17.8818 12.1955 17.9913 12.2164C18.1004 12.2373 18.1961 12.3031 18.254 12.398L20.0142 15.283L20.6066 14.8577C20.7822 14.73 21.0288 14.771 21.1564 14.9478C21.2832 15.1247 21.243 15.3705 21.0662 15.4977L20.1292 16.1708C20.0402 16.2346 19.9279 16.2594 19.8216 16.237C19.7141 16.2153 19.6203 16.1495 19.5636 16.0562L17.809 13.1802L12.4721 17.2189C12.4004 17.2728 12.3169 17.2988 12.2342 17.2988Z" fill="#331B3B"/>
<path d="M26.5796 21.8632C26.7974 21.8632 26.9735 21.6871 26.9735 21.4693V2.24056C26.9735 1.15744 26.0924 0.276367 25.0093 0.276367H8.26067C7.17755 0.276367 6.29688 1.15744 6.29688 2.24056V33.7602C6.29688 34.8429 7.17795 35.724 8.26067 35.724H25.0089C26.092 35.724 26.9731 34.8429 26.9731 33.7602V28.9752C26.9731 28.7574 26.797 28.5813 26.5792 28.5813C26.3614 28.5813 26.1854 28.7574 26.1854 28.9752V29.9933H7.0846V18.3109L8.1047 19.9805C8.1626 20.0754 8.25831 20.1412 8.36741 20.1621C8.39183 20.1668 8.41625 20.1692 8.44067 20.1692C8.52574 20.1692 8.60924 20.1416 8.67856 20.0896L9.92711 19.1451C10.1004 19.0136 10.1347 18.7666 10.0035 18.5933C9.87196 18.42 9.62501 18.3858 9.45171 18.5169L8.55016 19.1991L7.0846 16.8005V4.79476H26.1857V10.85L23.348 12.889C23.1711 13.0158 23.1306 13.262 23.2578 13.4389C23.3346 13.546 23.4555 13.6031 23.578 13.6031C23.6575 13.6031 23.7379 13.5791 23.8072 13.5291L26.1857 11.8201V21.4697C26.1857 21.6867 26.3618 21.8632 26.5796 21.8632ZM26.1857 30.781V33.7598C26.1857 34.4081 25.658 34.9359 25.0093 34.9359H8.26067C7.61238 34.9359 7.0846 34.4081 7.0846 33.7598V30.781H26.1857ZM7.0846 4.00703V2.24056C7.0846 1.59187 7.61238 1.06409 8.26067 1.06409H25.0089C25.6576 1.06409 26.1854 1.59187 26.1854 2.24056V4.00703H7.0846Z" fill="#331B3B"/>
<path d="M16.6349 34.2781C15.8638 34.2781 15.2363 33.6507 15.2363 32.8795C15.2363 32.1083 15.8638 31.4805 16.6349 31.4805C17.4061 31.4805 18.0335 32.1083 18.0335 32.8795C18.0335 33.6507 17.4061 34.2781 16.6349 34.2781ZM16.6349 32.2686C16.2982 32.2686 16.0241 32.5427 16.0241 32.8799C16.0241 33.217 16.2982 33.4907 16.6349 33.4907C16.9717 33.4907 17.2458 33.217 17.2458 32.8799C17.2458 32.5427 16.9721 32.2686 16.6349 32.2686Z" fill="#331B3B"/>
<path d="M19.032 2.90247H14.2379C14.0204 2.90247 13.844 2.72602 13.844 2.50861C13.844 2.2912 14.0204 2.11475 14.2379 2.11475H19.032C19.2498 2.11475 19.4258 2.2912 19.4258 2.50861C19.4258 2.72602 19.2498 2.90247 19.032 2.90247Z" fill="#331B3B"/>
</svg>
