<svg preserveAspectRatio="none" width="100%" height="100%" overflow="visible" style="display: block;" viewBox="0 0 94 94" fill="none" xmlns="http://www.w3.org/2000/svg">
<g id="medical-records_16767429 1">
<path id="Vector" d="M27.6006 39.2767C30.8939 39.15 34.2589 39.1193 37.54 38.9723C38.6875 38.7537 41.7237 39.6693 41.7858 37.763C41.9611 33.8153 41.5144 28.5246 36.8456 27.4441C39.5244 25.6217 39.4407 20.6977 36.2141 19.545C35.8971 19.3592 33.615 19.2568 33.9837 19.7552C33.971 19.8273 33.8847 19.902 33.9623 19.9548C33.8828 19.9986 33.8043 19.9799 33.7471 20.0741C33.8872 20.4711 34.3546 20.3087 34.5513 20.5549C34.5732 20.6901 34.7411 20.618 34.8376 20.6615C36.6134 21.6329 37.0016 24.7697 34.7763 25.5115C31.2976 26.9989 30.0182 21.7696 33.0024 20.5119C33.1175 20.2881 33.3105 20.2506 33.4528 20.0907C33.485 19.9824 33.5592 20.0306 33.6069 19.9731C33.6372 19.8747 33.6913 19.8515 33.7469 19.8065C33.2761 18.8078 32.1689 18.8855 31.2124 19.0929C27.912 20.1497 27.39 25.0552 29.9207 27.1937C27.3455 27.9993 25.8044 30.6861 25.4249 33.2151C25.5699 35.211 24.2209 39.757 27.6006 39.2767ZM28.3601 33.9416C28.5393 31.6242 29.7979 29.1612 32.1333 28.4066C33.1504 28.7104 34.2623 28.6797 35.2661 28.3521C38.6199 29.506 39.6444 33.0626 39.2312 36.3208C35.6213 36.1455 31.9853 36.2823 28.3737 36.2812C28.38 35.9377 28.3535 34.2418 28.3601 33.9416ZM54.7594 26.8781C54.7828 27.0235 54.7825 27.0235 54.8093 27.0925C54.7864 27.1125 54.7722 27.2324 54.7361 27.2783C54.675 27.4266 54.5841 27.4962 54.4861 27.7012C54.3375 27.6789 54.2344 27.8125 54.1081 27.8411C54.0366 27.8568 53.9382 27.8495 53.8918 27.9139C53.8515 28.0184 53.8082 27.9252 53.7614 28.0136C53.7071 28.0069 53.6649 28.0658 53.6123 28.1324C51.7152 28.5196 49.7412 28.2526 47.8322 28.0329C47.8036 28.0512 47.776 28.0489 47.7502 27.961C47.6732 27.8648 47.518 27.9073 47.4094 27.8337C47.2968 27.779 47.1948 27.6763 47.0682 27.7864C47.0207 27.7687 47.0309 27.6254 46.9194 27.641C46.7413 27.7317 46.6085 27.3107 46.7612 27.2293C46.7254 27.1474 46.7962 27.0138 46.7296 26.9398C47.4062 25.4278 49.1965 25.77 50.5359 25.4978C52.0956 25.3019 54.403 24.7375 54.7594 26.8781ZM54.7594 36.265C54.7828 36.4104 54.7825 36.4104 54.8093 36.4794C54.7864 36.4994 54.7722 36.6193 54.7361 36.6652C54.6748 36.8139 54.5853 36.8806 54.4861 37.0881C54.3375 37.0658 54.2344 37.1994 54.1081 37.228C54.0366 37.2435 53.9382 37.2364 53.8918 37.3008C53.8515 37.4053 53.8082 37.3121 53.7614 37.4005C53.7073 37.394 53.6649 37.4527 53.6123 37.5193C51.7152 37.9065 49.7412 37.6395 47.8322 37.4198C47.8036 37.4381 47.776 37.4358 47.7502 37.3479C47.6732 37.2517 47.518 37.2942 47.4094 37.2206C47.2968 37.1659 47.195 37.0632 47.0682 37.1733C47.0207 37.1558 47.0311 37.0123 46.9194 37.0279C46.7413 37.1186 46.6085 36.6976 46.7612 36.6162C46.7254 36.5343 46.7962 36.4007 46.7296 36.3269C47.3861 34.8439 49.1021 35.1637 50.4108 34.8942C51.9343 34.7029 54.4564 34.1212 54.7594 36.265ZM54.8093 45.8663C54.7408 45.9084 54.6733 45.9286 54.6299 46.0254C54.5663 46.0811 54.474 46.0273 54.4202 46.1354C54.2542 46.3067 53.9906 46.2162 53.8078 46.4257C46.2034 47.5725 38.2497 47.0746 30.5782 46.7352C29.7862 46.5955 28.876 46.5658 28.1205 46.5021C27.745 46.3041 27.2019 46.5793 26.9089 46.1337C26.9865 46.0346 27.0843 46.0508 27.1829 46.0033C27.0832 45.9566 27.1814 45.8802 27.1939 45.8028C26.6015 45.5274 29.747 44.8607 30.0309 44.7385C33.232 44.3293 36.4917 44.5207 39.7102 44.2811C43.2577 44.4164 52.716 42.8999 54.8093 45.8663ZM80 61.0055C79.3734 56.2805 75.1081 57.1374 71.5688 57.1155C73.6351 42.508 72.6137 27.4577 72.6487 12.7448C73.2759 5.12658 66.2832 5.91699 60.8654 6.12842C52.2877 6.12969 43.4494 6.24708 34.8925 6.37331C29.7207 6.46525 24.4936 6.15788 25.6329 13.0972C22.3563 12.6383 18.4979 14.0723 18.3776 17.8255C18.4323 28.9201 18.4601 40.1125 19.5133 51.1709C15.8387 50.8547 13.6692 52.7278 14.0413 56.46C14.1161 60.8684 14.1944 65.2572 14.386 69.6708C14.3994 73.7792 14.5311 77.8812 14.5805 81.9835C14.8657 84.8546 17.5537 87.3007 20.54 86.9374C18.4747 86.6029 16.6402 84.6991 16.2475 82.7281C16.5312 73.5215 17.0198 64.2705 16.9284 55.0344C17.0651 54.4422 17.6213 54.0452 18.2479 54.0948C25.6098 54.1437 33.1404 54.1843 40.5006 54.1354L45.0198 54.1262C45.9801 54.07 46.9981 54.1487 47.5627 55.0574C49.1439 57.4235 50.5291 60.2866 53.8691 60.0727C61.1421 59.9873 68.5776 60.0009 75.8536 59.9429C76.8585 59.9974 77.3254 60.9759 77.191 61.895C77.3144 66.0732 77.1869 73.987 77.2488 78.2614C77.2503 81.373 77.8116 84.7652 73.7524 85.4879C56.4097 85.7014 38.8692 85.4397 21.6332 86.7849C21.8644 86.8362 22.2428 86.8017 22.4252 86.8737C22.1727 87.0136 21.732 87.0073 22.3522 87.0742C21.7569 87.1213 21.1104 87.0988 20.5398 87.2046C37.9036 88.0962 55.4507 87.8012 72.8713 87.9872C75.7357 88.1692 78.601 86.3915 79.4843 83.6436C80.4044 76.3621 79.7161 68.3559 80 61.0055ZM58.8044 57.1456C57.0231 56.9035 53.0286 57.8258 51.9958 56.3026C48.3966 49.5461 45.5344 51.3569 39.0077 51.156C32.7795 51.164 26.5523 51.1701 20.3243 51.1682C20.6038 40.775 20.85 30.2914 20.8532 19.8717C20.7206 18.1561 20.9299 15.8103 23.1421 15.6796C33.4648 15.8719 43.9683 15.7922 54.297 15.792C55.7282 16.0219 59.4978 15.1015 60.3381 16.833C61.4867 29.9952 60.1958 43.9144 61.6936 57.1502C60.7416 57.1252 59.7679 57.1462 58.8044 57.1456ZM69.8244 57.134C67.3347 57.1429 64.8581 57.1587 62.3675 57.1641C64.3206 44.4103 63.5339 31.2316 63.73 18.3298C63.8333 13.7456 59.4999 12.3042 55.5904 12.8331C45.9387 12.9489 36.1081 13.0564 26.4456 13.0953C26.2357 10.467 27.2776 7.95519 30.3922 8.38963C39.8166 8.71509 49.3572 8.60022 58.8 8.7883C61.2802 8.84195 64.677 8.89413 67.1457 8.88066C69.2046 8.88698 70.0443 10.6828 69.7637 12.5125C69.8672 27.3164 69.4669 42.3832 70.6736 57.1248C70.3907 57.1282 70.1077 57.1311 69.8244 57.134ZM34.1866 57.3528C33.953 57.4654 33.6828 57.442 33.4316 57.5085C33.6996 57.5447 33.4835 57.5887 33.414 57.7109C33.4926 57.7751 33.6451 57.7328 33.7416 57.7839C21.5995 59.849 19.3922 77.6071 32.492 79.9199C39.6173 81.2091 46.0134 73.9818 44.2068 67.1212C42.9562 61.9108 38.6782 59.6227 34.1866 57.6202C49.7887 55.6938 52.1414 79.2302 37.4225 82.4684C18.2269 86.5941 14.635 56.9662 34.1866 57.3528ZM39.8069 73.0977C42.4732 73.3174 42.1725 70.5298 42.0455 68.7163C42.2266 65.6312 39.5335 66.3657 37.4346 66.3573C37.2103 62.373 36.8731 61.9295 32.9647 63.0751C33.0289 63.1264 33.1341 63.0919 33.1848 63.1639C33.143 63.26 32.9905 63.3193 33.1644 63.3643C32.9939 63.4117 32.8126 63.3917 32.6606 63.4948C33.3881 63.9919 34.3342 63.6275 35.1022 63.9212C35.1332 63.9174 35.4298 63.8954 35.4593 63.8928C35.2313 68.8688 34.2878 68.6029 39.6056 68.6395C39.5849 69.2519 39.5931 69.8858 39.5846 70.4968C34.82 70.356 34.8832 69.9037 34.9177 74.8191C34.4148 74.8435 33.9135 74.8561 33.408 74.817C33.4267 70.1248 33.581 70.3821 28.9086 70.4553C28.9105 69.8696 28.89 69.2837 28.8993 68.6978C33.2344 68.1209 33.1099 69.2012 32.7923 64.5406C32.7236 64.1848 32.5018 63.7902 32.4946 63.4653C32.5527 63.3848 32.5313 63.2632 32.6604 63.2274C31.1431 62.3328 31.177 65.148 30.9213 66.0501C27.2153 65.7692 25.7639 65.6714 25.9444 69.9279C25.5584 73.4146 27.4829 73.609 30.3937 73.4396C30.3793 76.9143 30.5731 77.9199 34.3817 77.6913C38.2083 77.823 37.8608 76.1839 37.7281 73.1078C38.037 73.1064 39.5323 73.0975 39.8069 73.0977ZM40.1026 68.6479C40.1158 68.6483 40.1506 68.6492 40.1633 68.6496C40.1366 68.6523 40.1099 68.6509 40.0829 68.6477L40.1026 68.6479ZM28.2309 68.7228C28.2939 68.7167 28.3573 68.7108 28.4207 68.7047C28.3817 68.7243 28.2089 68.7361 28.2309 68.7228ZM28.2121 70.4583C28.214 70.4583 28.2365 70.4579 28.2377 70.4583C28.235 70.4583 28.2153 70.4583 28.2121 70.4583ZM28.8887 71.1477C28.8887 71.1431 28.8887 71.1304 28.8889 71.126C28.8893 71.1302 28.8887 71.1437 28.8887 71.1477ZM32.6631 74.8242C32.6642 74.8235 32.6846 74.8233 32.6918 74.8242C32.6888 74.8242 32.6665 74.8242 32.6631 74.8242ZM35.6766 74.8208L35.6501 74.8214C35.6766 74.8183 35.7421 74.8191 35.6766 74.8208Z" fill="var(--fill-0, #5B6A5A)"/>
</g>
</svg>
