<svg preserveAspectRatio="none" width="100%" height="100%" overflow="visible" style="display: block;" viewBox="0 0 66 66" fill="none" xmlns="http://www.w3.org/2000/svg">
<g id="machine-learning_18219915 1" clip-path="url(#clip0_0_4)">
<path id="Vector" d="M43.957 0.773309C43.957 0.77318 43.957 0.77318 43.957 0.773309C43.9561 0.785684 43.9552 0.79793 43.957 0.773309Z" fill="var(--fill-0, #5B6A5A)"/>
<path id="Vector_2" d="M22.043 65.2267C22.043 65.2268 22.043 65.2268 22.043 65.2267C22.0448 65.2021 22.0439 65.2143 22.043 65.2267Z" fill="var(--fill-0, #5B6A5A)"/>
<path id="Vector_3" d="M22.1719 0.773824C22.1719 0.773437 22.1719 0.773566 22.1719 0.77318V0.773824L22.1717 0.773953C22.1743 0.797156 22.18 0.848848 22.1719 0.773824Z" fill="var(--fill-0, #5B6A5A)"/>
<path id="Vector_4" d="M43.8281 65.2262V65.2268C43.8281 65.2266 43.8281 65.2264 43.8281 65.2262L43.8283 65.226C43.8257 65.2028 43.82 65.1512 43.8281 65.2262Z" fill="var(--fill-0, #5B6A5A)"/>
<path id="Vector_5" d="M33.129 0.773566L33.1289 0.773051C33.1228 0.846527 33.1271 0.796898 33.129 0.773566Z" fill="var(--fill-0, #5B6A5A)"/>
<path id="Vector_6" d="M32.871 65.2264L32.8711 65.2269C32.8772 65.1535 32.8729 65.2031 32.871 65.2264Z" fill="var(--fill-0, #5B6A5A)"/>
<path id="Vector_7" d="M50.9297 24.494C50.9295 24.494 50.9293 24.4938 50.9291 24.4938C50.9362 24.4942 50.9343 24.4942 50.9297 24.494ZM50.9288 24.4939C50.9289 24.4939 50.929 24.4938 50.9291 24.4938C50.8853 24.4918 50.916 24.4934 50.9288 24.4939ZM25.148 26.1946C25.1692 26.2845 25.1284 26.1096 25.148 26.1946ZM45.0313 37.3422C45.2223 38.0976 45.0005 39.6342 44.935 39.8602C44.5657 41.1366 43.7036 42.2467 42.571 42.9379C41.6588 43.4984 40.6172 43.7722 39.563 43.7362C39.6032 44.2939 39.4695 45.031 39.4027 45.2237C39.1613 45.9689 38.6502 46.6623 38.0098 47.115C37.2273 47.7341 36.0666 48.0193 35.0836 47.9579C34.8918 47.9459 33.3637 47.5947 33.0112 47.1145C32.664 47.7046 30.6671 48.0674 30.3676 48.0555C29.735 48.0581 29.0763 47.8241 28.5435 47.4953C28.0661 47.2006 27.6841 46.7988 27.3496 46.3519C27.2086 46.1636 26.5309 44.7224 26.4293 43.8146C25.5391 43.7962 24.6812 43.545 23.8882 43.102C22.6218 42.3948 21.5939 41.2282 21.1388 39.8412C21.0781 39.656 20.8071 38.1946 20.9464 37.4126C20.79 37.2884 20.6803 37.1935 20.6388 37.1485C19.8764 36.3204 19.2096 35.2157 19.0969 34.0696C19.041 33.6674 18.8098 30.3964 19.5247 30.2971C19.9098 29.1352 20.6271 28.1498 21.5725 27.3753C21.6971 27.2699 22.2328 26.9524 22.8534 26.6475C22.4522 25.857 23.158 23.0104 23.3205 22.6606C23.7848 21.6617 24.5028 20.8848 25.3634 20.224C26.6882 19.3646 28.1203 18.8473 29.7193 18.9427C30.0003 18.9594 32.4819 19.4831 32.9573 20.1028C33.3055 19.3585 36.4647 18.7854 36.7779 18.8004C38.0162 18.8598 39.7023 19.2823 40.6102 20.1955C41.4338 21.0239 42.1769 21.7785 42.6614 22.864C42.7335 23.0258 43.4845 25.6618 43.1796 26.5552C43.9107 26.8877 44.5626 27.2547 44.6927 27.3581C45.9403 28.3491 46.7321 29.8614 46.9561 31.4287C47.2602 33.5577 46.5325 35.8028 45.0313 37.3422ZM20.077 30.6444L19.9409 30.6004C19.9833 30.6288 20.0283 30.6468 20.077 30.6444ZM32.9721 20.4616C32.6642 20.6437 30.2894 20.1753 29.9276 20.19C28.4692 20.2494 27.1187 20.7588 25.9524 21.629C25.303 22.0649 24.769 22.7724 24.3988 23.4406C24.2187 23.7656 23.7761 25.5125 23.4526 26.3717C24.2695 26.0225 25.0586 25.8084 25.148 26.1946C25.2076 26.4479 23.0091 27.693 22.7527 27.909C21.8795 28.7223 21.1896 29.666 20.8753 30.8389C20.877 30.8272 20.8785 30.8151 20.8802 30.8032C20.8257 31.006 20.6763 31.085 20.6215 31.2945C20.4169 32.0759 20.4545 33.0981 20.5372 33.8948C20.581 34.7016 20.9994 35.5012 21.4376 36.1549C21.7333 36.5961 24.3109 38.6535 24.2323 38.8895C24.0552 39.4221 22.8139 38.7322 21.8353 38.0642C21.9624 38.5136 22.0759 38.9599 22.1479 39.1161C22.7613 40.4458 23.899 41.5898 25.2646 42.1422C25.9051 42.4147 26.6455 42.5997 27.3483 42.5542C27.7702 42.5357 29.5698 42.0544 29.7288 42.292C30.1221 42.8782 28.0515 43.5569 27.3875 43.7311C27.7134 44.2867 28.0625 45.019 28.2028 45.1841C28.5169 45.5587 28.8539 45.9038 29.2516 46.1869C29.5906 46.4099 29.9573 46.5583 30.3489 46.6638C30.7241 46.7578 32.2917 46.5209 32.8313 46.6518C31.8985 45.5574 32.148 34.5887 32.2082 33.5459C32.2547 32.5554 32.5985 21.0422 32.9721 20.4616ZM33.0003 46.7408C33.0002 46.7408 33.0001 46.7409 33 46.7409C33 46.7411 33.0001 46.7411 33.0001 46.7412C33.0002 46.7411 33.0002 46.7409 33.0003 46.7408ZM44.383 28.8594C44.0629 28.4322 40.8211 26.3494 40.852 26.1953C40.933 25.7908 41.698 25.9587 42.5261 26.2792C42.2432 25.5009 41.8741 24.1745 41.7635 23.9359C41.4017 23.2328 40.9695 22.6008 40.402 22.0595C39.5575 21.2407 38.8667 20.7322 37.6847 20.3537C36.8332 20.081 35.9286 19.9765 35.039 20.072C34.8374 20.0941 33.5854 20.5117 33.1432 20.4861C34.1843 21.2941 33.7721 32.027 33.7211 32.952C33.6592 34.0733 33.5292 45.924 33.0475 46.7011C33.3445 46.5342 34.6109 46.7271 34.8476 46.7041C35.5496 46.6353 36.2294 46.4156 36.8553 46.0948C37.2593 45.8631 37.6127 45.5846 37.9154 45.2269C38.0907 45.023 38.4096 44.2034 38.7065 43.6371C38.2687 43.5269 35.6553 42.76 36.272 42.1605C36.4206 42.0116 38.1459 42.4133 38.4163 42.4187C39.6317 42.4428 40.731 42.3299 41.7939 41.6775C42.75 41.0957 43.4036 40.2323 43.8773 39.2357C43.9316 39.0968 44.0391 38.5797 44.1693 38.0699C43.3718 38.6653 42.2255 39.3545 41.7678 38.889C41.6948 38.8167 43.5093 37.3078 43.5962 37.2164C44.6934 35.943 45.4388 34.5091 45.5353 32.79C45.6132 31.4075 45.2181 29.9734 44.383 28.8594ZM65.7169 44.1236C65.717 44.1236 65.717 44.1236 65.7169 44.1236C65.7044 44.1228 65.692 44.1219 65.7169 44.1236ZM65.2758 46.3298C64.8979 46.768 64.3764 47.1817 63.8082 47.3385C62.3783 47.7888 60.8454 47.085 60.0239 45.9198C58.7793 46.3515 55.9457 46.4634 55.2377 45.9247C54.2092 45.0819 53.4625 43.9161 52.5702 42.9421C52.4465 42.7969 52.1677 42.3392 51.9779 42.227C51.8917 42.1685 51.4366 42.2025 51.1158 42.1513C50.9228 44.3235 50.3979 46.4145 49.0389 48.1286C47.7027 49.8846 45.541 51.0027 43.4032 51.3643C43.0687 51.4331 42.7245 51.483 42.3748 51.5203C42.4028 51.8243 42.4213 52.1145 42.5667 52.1384C43.6369 52.4917 44.6337 53.9691 45.3248 54.7924C45.892 55.4653 46.0664 55.6989 46.1381 56.6355C46.1506 56.9499 46.1279 58.9338 45.8439 59.9756C46.6078 60.4545 47.2154 61.2095 47.4076 62.081C47.5517 63.124 47.3062 64.1596 46.6036 64.971C46.4034 65.2047 44.0669 66.5071 43.9941 65.7828C43.9423 66.4031 41.904 65.3763 41.787 65.2753C41.3488 64.8976 40.935 64.3761 40.7782 63.808C40.332 62.3912 41.0193 60.8738 42.1655 60.0469C41.9314 59.2009 41.8982 57.6708 41.8782 57.3508C41.7612 56.8366 40.6454 56.0388 40.3002 55.6536C39.7992 55.0948 38.7347 54.1521 38.5509 53.367C38.3744 53.1914 38.5235 52.2832 38.7342 51.5959C38.2401 51.5874 37.7538 51.5805 37.2835 51.5866C36.5348 51.5869 35.7867 51.5842 35.0389 51.5792C35.5835 53.4756 35.274 58.2929 34.7823 60.0006C35.9554 60.767 36.6089 62.091 36.3665 63.5692C36.1948 64.5473 35.4111 65.4397 34.4997 65.7998C34.4754 65.8096 32.8235 66.2111 32.8694 65.7171C32.879 65.6004 34.5354 64.72 34.7301 64.4328C34.9803 64.0552 35.1457 63.6114 35.1461 63.1558C35.147 62.2186 34.4694 61.2625 33.5497 61.0038C32.3754 60.5892 31.3011 61.5668 30.8963 62.5887C30.703 63.3139 30.9987 64.0351 31.4375 64.606C31.5917 64.8067 32.8667 65.6138 32.8691 65.7164C32.8682 65.7274 32.868 65.7331 32.8694 65.7171C32.8703 66.4167 30.8724 65.357 30.7645 65.2651C29.9656 64.5844 29.4802 63.5843 29.5806 62.5256C29.6912 61.647 30.2693 60.7088 31.0549 60.0836C30.4064 58.4393 30.6078 53.4168 31.1396 51.5273C30.2955 51.511 29.4512 51.4921 28.6062 51.4686C28.2262 51.457 27.8391 51.45 27.4478 51.4442C27.6823 52.3647 27.4865 53.9771 27.2286 54.3287C26.9277 54.8026 26.4515 55.2893 26.0166 55.6469C25.4451 56.12 24.5771 56.5571 24.1322 57.147C23.8488 57.4481 23.8153 59.0079 23.6513 59.9293C24.4509 60.4049 25.0927 61.1806 25.2914 62.0809C25.4355 63.124 25.1902 64.1596 24.4875 64.9711C24.2873 65.2048 21.951 66.5061 21.8778 65.7841C21.8239 66.4035 19.7876 65.3768 19.6704 65.2757C19.2323 64.8979 18.8186 64.3763 18.6616 63.8081C18.2114 62.3783 18.9153 60.8453 20.0805 60.0238C19.6487 58.7792 19.5369 55.9456 20.0756 55.2377C20.9183 54.2091 22.0842 53.4625 23.0582 52.5702C23.2033 52.4464 23.6611 52.1676 23.7732 51.9779C23.8203 51.9085 23.8073 51.5997 23.8271 51.3144C21.8879 51.1491 19.9985 50.7406 18.4103 49.6568C16.8904 48.6195 15.7255 47.0649 15.0476 45.3658C14.6881 44.4231 14.4885 43.4166 14.382 42.3838C14.1161 42.4083 13.883 42.4373 13.8618 42.5668C13.5084 43.637 12.031 44.6338 11.2077 45.3249C10.5348 45.8921 10.3012 46.0665 9.36461 46.1382C9.05021 46.1507 7.06634 46.128 6.02439 45.8441C5.54563 46.608 4.79063 47.2154 3.91909 47.4076C2.87611 47.5517 1.84048 47.3063 1.02915 46.6036C0.795438 46.4034 -0.507031 44.067 0.217294 43.9942C-0.403003 43.9424 0.623864 41.9041 0.724797 41.7871C1.10249 41.3489 1.62405 40.9351 2.19214 40.7782C3.60895 40.3321 5.12643 41.0194 5.95323 42.1655C6.79925 41.9314 8.32936 41.8983 8.64931 41.8783C9.16352 41.7613 9.96132 40.6455 10.3465 40.3002C10.9053 39.7993 11.848 38.7348 12.6332 38.551C12.7992 38.3842 13.6198 38.5081 14.2897 38.7003C14.3106 37.8024 14.3443 36.9174 14.3493 36.0692C14.3513 35.7312 14.3552 35.3933 14.3588 35.0554C12.4215 35.5761 7.68896 35.269 5.99951 34.7825C5.23316 35.9555 3.90917 36.6089 2.431 36.3664C1.45286 36.1947 0.5607 35.4111 0.200407 34.4996C0.190481 34.4748 -0.210675 32.8254 0.282649 32.8693C-0.415636 32.8691 0.643329 30.8724 0.73511 30.7647C1.41586 29.9658 2.41592 29.4804 3.47463 29.5808C4.35338 29.6914 5.29169 30.2697 5.91675 31.0552C7.55129 30.4111 12.5231 30.6055 14.4385 31.13C14.4755 29.8997 14.5234 28.6699 14.5847 27.4402C13.6694 27.6864 12.0269 27.489 11.6715 27.2288C11.1977 26.9279 10.7109 26.4517 10.3533 26.0168C9.88024 25.4454 9.44311 24.5773 8.85324 24.1324C8.55211 23.849 6.99235 23.8155 6.07093 23.6515C5.59539 24.4511 4.81963 25.0929 3.91935 25.2916C2.87624 25.4357 1.84061 25.1904 1.02915 24.4877C0.795438 24.2875 -0.50587 21.9512 0.216133 21.878C-0.403261 21.8241 0.623477 19.7878 0.72454 19.6706C1.10236 19.2325 1.62392 18.8188 2.19214 18.6618C3.62197 18.2116 5.15492 18.9155 5.97644 20.0807C7.22103 19.649 10.0546 19.5371 10.7626 20.0758C11.7911 20.9186 12.5378 22.0844 13.4301 23.0584C13.5538 23.2035 13.8326 23.6613 14.0224 23.7734C14.1015 23.8272 14.4916 23.8027 14.8032 23.8378C15.0267 21.1648 15.5843 19.0715 17.6234 17.0514C19.3383 15.4113 21.4297 14.7882 23.6335 14.5637C23.5999 14.2313 23.5921 13.8883 23.4334 13.8622C22.3633 13.5089 21.3664 12.0315 20.6754 11.2082C20.1082 10.5353 19.9338 10.3017 19.8621 9.36507C19.8496 9.05067 19.8723 7.0668 20.1561 6.02485C19.3922 5.54609 18.7848 4.79109 18.5926 3.91956C18.4485 2.87657 18.6939 1.84094 19.3966 1.02961C19.5968 0.795899 21.9332 -0.50657 22.0061 0.217755C22.0579 -0.402542 24.0961 0.624325 24.2132 0.725258C24.6513 1.10295 25.0651 1.62451 25.222 2.1926C25.6684 3.61031 24.9808 5.12702 23.8346 5.95344C24.0687 6.79945 24.1018 8.3297 24.1219 8.64977C24.239 9.16385 25.3548 9.96178 25.7 10.3469C26.2009 10.9058 27.2654 11.8484 27.4493 12.6336C27.6299 12.8133 27.4699 13.7603 27.2513 14.4525C27.8334 14.4594 28.4136 14.4709 28.9872 14.4763C29.6542 14.4826 30.3205 14.4921 30.9867 14.5043C30.4078 12.6697 30.719 7.73363 31.2178 6.0001C30.0448 5.23375 29.3912 3.90976 29.6337 2.43146C29.8054 1.45345 30.589 0.560903 31.5005 0.200868C31.5248 0.191071 33.1767 -0.210472 33.1308 0.283626C33.1213 0.399641 31.4649 1.28007 31.2702 1.56727C31.02 1.94484 30.8546 2.38866 30.8542 2.84422C30.8533 3.7815 31.5309 4.73759 32.4506 4.99631C33.6249 5.41087 34.6992 4.43325 35.104 3.41141C35.2973 2.68618 35.0016 1.96495 34.5628 1.39402C34.4086 1.19332 33.1336 0.386235 33.1312 0.283626C33.1321 0.272669 33.1325 0.266997 33.1311 0.282981C33.1302 -0.416593 35.1279 0.643016 35.2358 0.734926C36.0347 1.41568 36.5201 2.41573 36.4197 3.47444C36.3091 4.35307 35.731 5.29125 34.9454 5.91644C35.6101 7.6015 35.3819 12.8347 34.8205 14.6076C35.5947 14.6349 36.3689 14.6652 37.1437 14.7004C37.62 14.722 38.112 14.7361 38.6125 14.7499C38.289 13.8836 38.4946 12.0493 38.7717 11.6713C39.0726 11.1975 39.5488 10.7107 39.9837 10.3531C40.5552 9.88005 41.4232 9.44293 41.8679 8.85306C42.1514 8.55193 42.185 6.99216 42.349 6.07074C41.5494 5.59521 40.9076 4.81945 40.7089 3.91917C40.5648 2.87606 40.81 1.84043 41.5128 1.02896C41.713 0.795255 44.0494 -0.506054 44.1225 0.21595C44.1764 -0.403445 46.2127 0.623294 46.3299 0.724356C46.768 1.10218 47.1817 1.62374 47.3386 2.19195C47.7887 3.62178 47.085 5.15473 45.9198 5.97625C46.3516 7.22084 46.4634 10.0545 45.9247 10.7624C45.082 11.791 43.9161 12.5376 42.9421 13.4299C42.797 13.5536 42.3392 13.8324 42.2271 14.0222C42.1658 14.1124 42.2061 14.6081 42.1433 14.9296C43.3108 15.0452 44.452 15.2447 45.4924 15.6178C46.9993 16.2158 48.0302 17.155 49.134 18.3128C49.8034 19.1402 50.3104 20.1291 50.6439 21.1395C50.6947 21.2935 51.0015 22.7543 51.0677 23.6966C51.4485 23.5825 52.1019 23.6548 52.1383 23.4334C52.4916 22.3632 53.969 21.3664 54.7923 20.6753C55.4652 20.1081 55.6988 19.9337 56.6354 19.862C56.9498 19.8495 58.9337 19.8722 59.9757 20.1561C60.4544 19.3922 61.2094 18.7848 62.0809 18.5926C63.1239 18.4485 64.1596 18.6939 64.9709 19.3966C65.2046 19.5967 66.5071 21.9332 65.7827 22.006C66.403 22.0578 65.3762 24.0961 65.2752 24.2131C64.8976 24.6513 64.376 25.0651 63.8079 25.222C62.3911 25.6681 60.8736 24.9808 60.0468 23.8347C59.2008 24.0688 57.6707 24.1019 57.3507 24.1219C56.8365 24.2389 56.0387 25.3547 55.6537 25.6999C55.0947 26.2009 54.1522 27.2654 53.3669 27.4492C53.1494 27.6678 51.8079 27.3875 51.1546 27.1081C51.1866 28.2907 51.2011 29.7272 51.2065 31.0976C52.7409 30.3725 58.1658 30.6891 60.0007 31.2175C60.7671 30.0446 62.0909 29.3912 63.5692 29.6336C64.5473 29.8053 65.4395 30.589 65.7998 31.5005C65.8097 31.5252 66.2108 33.1747 65.7175 33.1307C66.4158 33.131 65.3568 35.1276 65.2651 35.2354C64.5843 36.0342 63.5843 36.5197 62.5255 36.4193C61.6468 36.3087 60.7084 35.7304 60.0833 34.9448C58.333 35.6345 52.757 35.3634 51.2035 34.7542C51.2005 35.3526 51.197 35.7741 51.1958 35.9208C51.1888 36.7932 51.2086 37.702 51.2171 38.6247C52.0688 38.2833 53.9457 38.4909 54.3285 38.7714C54.8024 39.0723 55.2891 39.5485 55.6467 39.9834C56.1198 40.5548 56.5569 41.4229 57.1468 41.8676C57.4479 42.1512 59.0077 42.1847 59.9291 42.3487C60.4047 41.5491 61.1804 40.9073 62.0807 40.7086C63.1238 40.5645 64.1594 40.8098 64.9709 41.5125C65.2046 41.7127 66.5059 44.049 65.7839 44.1222C66.4036 44.1763 65.3768 46.2128 65.2758 46.3298ZM62.5887 35.1039C63.3141 35.297 64.035 35.0017 64.6061 34.5628C64.8068 34.4086 65.6136 33.134 65.7164 33.1311C65.7273 33.132 65.7331 33.1325 65.717 33.131C65.5997 33.1206 64.7202 31.4651 64.4328 31.2701C64.0553 31.02 63.6115 30.8545 63.1559 30.8541C62.2186 30.8534 61.2625 31.5309 61.0038 32.4505C60.5887 33.625 61.5674 34.6988 62.5887 35.1039ZM51.2064 34.1174C52.7675 33.563 58.2927 33.4366 58.7293 33.9947C58.7278 33.996 58.7267 33.9982 58.7259 34.0009C58.8528 33.9952 59.1864 33.9824 59.5385 34.0031C59.3185 33.4232 59.2834 32.7976 59.5341 32.1946C59.5423 32.17 59.5512 32.1459 59.5597 32.1215C57.4174 32.5312 52.6369 32.3525 51.209 31.8601C51.2104 32.6873 51.2089 33.465 51.2064 34.1174ZM63.5659 24.0472C63.6533 24.0313 63.7259 24.0056 63.8142 23.9731C64.2544 23.7979 64.6651 23.5208 64.9866 23.1722C65.1476 22.9976 65.5587 22.0241 65.7164 22.0072C65.7218 22.0066 65.726 22.0072 65.7311 22.0069C65.7262 22.0068 65.7222 22.0074 65.717 22.0072C65.7313 22.0055 65.7265 22.006 65.7162 22.0072C65.5247 21.9923 64.6604 20.4255 64.3421 20.2337C63.8431 19.936 63.102 19.7067 62.5128 19.8802C61.7048 20.0625 61.0017 20.9347 60.9274 21.7594C60.8317 23.1441 62.1765 24.3013 63.5659 24.0472ZM2.43422 19.836C2.3467 19.852 2.27412 19.8775 2.18569 19.9101C1.74535 20.0853 1.33465 20.3622 1.01316 20.7109C0.852028 20.8856 0.440946 21.8588 0.283294 21.8763C0.270403 21.8753 0.257512 21.8744 0.283036 21.8763C0.473559 21.8904 1.3402 23.4586 1.65782 23.6502C2.15695 23.948 2.89803 24.177 3.48739 24.0035C4.29537 23.8215 4.99843 22.9488 5.07281 22.1242C5.16845 20.7392 3.8237 19.5823 2.43422 19.836ZM3.41146 30.8962C2.68611 30.7031 1.96513 30.9984 1.39408 31.4373C1.19337 31.5915 0.386547 32.8661 0.283809 32.8689C0.272852 32.868 0.267051 32.8675 0.283165 32.8691C0.400598 32.8795 1.28 34.5349 1.56733 34.73C1.9449 34.98 2.38872 35.1455 2.84427 35.1459C3.78155 35.1467 4.73765 34.4692 4.99636 33.5496C5.41144 32.3751 4.43279 31.3013 3.41146 30.8962ZM2.43422 41.9528C2.34682 41.9688 2.27425 41.9945 2.18595 42.027C1.74573 42.202 1.33491 42.4793 1.01355 42.8278C0.852544 43.0024 0.441462 43.976 0.283809 43.9929C0.278395 43.9934 0.274141 43.9929 0.269114 43.9932C0.274012 43.9933 0.278008 43.9926 0.283165 43.9929C0.268856 43.9946 0.273497 43.9941 0.283809 43.9929C0.475493 44.0077 1.33981 45.5746 1.65808 45.7664C2.15707 46.064 2.89816 46.2934 3.48739 46.1199C4.29537 45.9376 4.99843 45.0654 5.07281 44.2407C5.16845 42.8559 3.8237 41.6988 2.43422 41.9528ZM14.3181 41.5977C14.2777 40.9321 14.2688 40.2599 14.2746 39.5902C13.7718 39.6592 13.2229 39.6758 13.0727 39.7439C12.3145 40.1083 11.5511 41.1956 10.9324 41.7703C10.2804 42.3688 9.57756 43.2566 8.64931 43.2282C8.38106 43.2115 7.26357 43.1853 6.41047 43.0394C6.58861 43.5542 6.63579 44.1139 6.50238 44.6802C6.48214 44.7761 6.4561 44.8713 6.42722 44.9659C7.62193 44.7565 9.45755 44.7003 9.76512 44.6213C9.76474 44.6199 9.76396 44.6193 9.76267 44.6191C10.9279 43.5783 12.2236 42.6922 13.3265 41.5817C13.4784 41.5245 13.9082 41.5314 14.3181 41.5977ZM14.414 31.9919C12.4892 32.451 7.67736 32.5248 7.27091 32.0054C7.27233 32.0041 7.27349 32.0019 7.27427 31.9992C7.14742 32.0049 6.81381 32.0176 6.46164 31.997C6.68168 32.5768 6.71675 33.2024 6.46602 33.8054C6.4579 33.8302 6.44888 33.8544 6.44037 33.8789C8.4058 33.503 12.5918 33.6219 14.3725 34.0246C14.3829 33.3465 14.3966 32.6691 14.414 31.9919ZM14.7548 24.5027C14.3543 24.6839 13.7983 24.756 13.549 24.6408C12.1717 24.1808 10.8414 22.2815 9.88526 21.2672C9.46606 21.0518 7.62489 21.1274 6.43109 20.9842C6.59209 21.482 6.63064 22.0198 6.5025 22.5637C6.4891 22.6271 6.47247 22.6901 6.4552 22.753C7.24926 22.5812 8.23256 22.5255 8.46136 22.5466C9.68185 22.6597 10.2581 23.5404 10.96 24.4178C11.414 24.9926 11.8977 25.4924 12.3652 26.0542C12.6531 26.5931 13.8884 26.4815 14.6313 26.5644C14.6687 25.8774 14.7092 25.1901 14.7548 24.5027ZM43.8759 5.07288C45.261 5.17007 46.4176 3.82223 46.164 2.43417C46.148 2.34664 46.1225 2.27407 46.0899 2.18564C45.9147 1.74529 45.6378 1.3346 45.2891 1.01311C45.1144 0.851973 44.1412 0.440891 44.1237 0.283239C44.1238 0.280532 44.124 0.277954 44.1242 0.275633C44.124 0.277825 44.1239 0.279243 44.1237 0.282981C44.1096 0.473504 42.5413 1.34014 42.3498 1.65777C42.0524 2.15625 41.8223 2.89849 41.9965 3.48733C42.1786 4.29532 43.0513 4.9985 43.8759 5.07288ZM39.4161 14.7731C40.1254 14.7946 40.8452 14.8237 41.5602 14.8784C41.3343 14.478 41.2318 13.8251 41.3593 13.549C41.8204 12.1712 43.718 10.8418 44.7329 9.88521C44.9483 9.466 44.8727 7.62484 45.016 6.43104C44.5181 6.59204 43.9803 6.63058 43.4365 6.50245C43.373 6.48904 43.31 6.47241 43.2471 6.45514C43.4188 7.2492 43.4746 8.2325 43.4535 8.46131C43.3404 9.68179 42.4596 10.258 41.5823 10.9599C41.0074 11.4139 40.5077 11.8977 39.9459 12.3651C39.3706 12.6722 39.5363 14.0578 39.4161 14.7731ZM31.9385 14.5252C32.6431 14.5412 33.3476 14.5604 34.0518 14.5829C33.5544 12.7892 33.4594 7.68968 33.9947 7.27073C33.996 7.27215 33.9982 7.27331 34.0009 7.27408C33.9952 7.14737 33.9825 6.81363 34.0032 6.46146C33.4233 6.6815 32.7977 6.71656 32.1948 6.46584C32.1701 6.45772 32.1461 6.44882 32.1216 6.44032C32.5086 8.46453 32.3702 12.8436 31.9385 14.5252ZM21.7595 5.07288C23.1444 5.17007 24.3011 3.82223 24.0473 2.43417C24.0313 2.34677 24.0057 2.2742 23.9732 2.1859C23.7981 1.74568 23.5208 1.33486 23.1723 1.01349C22.9976 0.852489 22.0241 0.441407 22.0072 0.283754C22.0067 0.27834 22.0072 0.274087 22.007 0.269059C22.0068 0.273958 22.0075 0.277954 22.0072 0.28311C22.0055 0.268801 22.0061 0.273442 22.0072 0.283754C21.9924 0.475438 20.4255 1.33975 20.2337 1.65802C19.9361 2.15702 19.7068 2.8981 19.8803 3.48733C20.0625 4.29532 20.9347 4.9985 21.7595 5.07288ZM24.4183 13.3265C24.4844 13.5014 24.4651 14.0454 24.3679 14.5028C25.052 14.4585 25.7438 14.4455 26.4359 14.446C26.3439 13.9036 26.3322 13.2401 26.2561 13.0725C25.8917 12.3143 24.8044 11.5509 24.2297 10.9322C23.6312 10.2803 22.7434 9.57751 22.7718 8.64925C22.7885 8.381 22.8147 7.263 22.9606 6.40977C22.4458 6.58791 21.886 6.63522 21.3196 6.50219C21.2237 6.48195 21.1286 6.45591 21.034 6.42704C21.2433 7.62174 21.2995 9.45737 21.3785 9.76494C21.38 9.76455 21.3806 9.76378 21.3807 9.76249C22.4218 10.9277 23.3079 12.2236 24.4183 13.3265ZM22.1243 60.9272C20.7394 60.8317 19.5824 62.1764 19.8362 63.5659C19.8522 63.6534 19.8777 63.726 19.9103 63.8144C20.0855 64.2548 20.3624 64.6655 20.7111 64.987C20.8857 65.1481 21.859 65.5592 21.8765 65.7168C21.8755 65.7297 21.8746 65.7426 21.8765 65.7171C21.8906 65.5266 23.4588 64.6599 23.6504 64.3423C23.9482 63.8432 24.1772 63.1021 24.0037 62.5127C23.8216 61.7047 22.9489 61.0016 22.1243 60.9272ZM26.5583 51.4308C25.8941 51.4201 25.2221 51.404 24.5521 51.3657C24.6959 51.7509 24.7447 52.2263 24.6409 52.4512C24.1798 53.829 22.2822 55.1584 21.2673 56.115C21.0519 56.5342 21.1274 58.3754 20.9842 59.5692C21.4821 59.4082 22.0199 59.3696 22.5637 59.4977C22.6271 59.5112 22.6902 59.5278 22.7531 59.5451C22.5814 58.751 22.5256 57.7677 22.5467 57.5389C22.6597 56.3184 23.5404 55.7422 24.4179 55.0403C24.9928 54.5863 25.4925 54.1025 26.0542 53.6351C26.5789 53.355 26.4875 52.1784 26.5583 51.4308ZM34.0382 51.5691C33.3525 51.5623 32.6667 51.5531 31.9811 51.5417C32.4499 53.4357 32.5289 58.3197 32.0054 58.7292C32.0042 58.7278 32.002 58.7266 31.9993 58.7259C32.0049 58.8526 32.0177 59.1863 31.9969 59.5385C32.5769 59.3184 33.2025 59.2834 33.8054 59.5341C33.8301 59.5422 33.8541 59.5511 33.8786 59.5596C33.4987 57.5727 33.625 53.3151 34.0382 51.5691ZM44.2407 60.9272C42.8559 60.8317 41.6988 62.1764 41.9529 63.5659C41.9689 63.6533 41.9944 63.7259 42.027 63.8142C42.2021 64.2544 42.4793 64.6652 42.8278 64.9866C43.0024 65.1476 43.9759 65.5587 43.9928 65.7163C43.9933 65.7217 43.9928 65.726 43.9931 65.731C43.9933 65.7261 43.9924 65.7221 43.9928 65.717C43.9945 65.7313 43.994 65.7265 43.9928 65.7162C44.0076 65.5246 45.5745 64.6603 45.7663 64.342C46.0637 63.8437 46.2939 63.1014 46.1196 62.5127C45.9388 61.7047 45.0648 61.0016 44.2407 60.9272ZM41.5819 52.6736C41.5198 52.5091 41.5332 52.0189 41.6155 51.5808C40.9419 51.6183 40.2545 51.6189 39.5733 51.6098C39.6569 52.1412 39.6706 52.7656 39.7441 52.9275C40.1085 53.6857 41.1958 54.4491 41.7705 55.0679C42.369 55.7198 43.2568 56.4226 43.2284 57.3508C43.2117 57.6191 43.1855 58.7366 43.0396 59.5897C43.5544 59.4115 44.1141 59.3643 44.6804 59.4977C44.7763 59.518 44.8714 59.544 44.9661 59.5729C44.7567 58.3782 44.7005 56.5426 44.6215 56.235C44.6201 56.2354 44.6194 56.2362 44.6193 56.2374C43.5785 55.0724 42.6923 53.7765 41.5819 52.6736ZM51.1373 26.5367C51.682 26.3455 52.7126 26.3538 52.9274 26.2562C53.6857 25.8918 54.4491 24.8044 55.0678 24.2298C55.7198 23.6313 56.4226 22.7435 57.3509 22.7718C57.6191 22.7886 58.7366 22.8148 59.5897 22.9607C59.4116 22.4458 59.3644 21.8861 59.4978 21.3198C59.518 21.2239 59.5441 21.1288 59.5729 21.0342C58.3782 21.2435 56.5426 21.2997 56.2351 21.3787C56.2354 21.3802 56.2362 21.3808 56.2375 21.3809C55.0723 22.4217 53.7765 23.3078 52.6736 24.4184C52.4375 24.5076 51.5298 24.4413 51.0694 24.238C51.0508 24.401 51.0076 24.4987 50.9291 24.4938C50.9937 24.4965 50.9995 24.381 50.9627 24.1832C50.8607 24.1219 50.7979 24.0507 50.7979 23.9699C50.7979 23.8993 50.8245 23.8446 50.8689 23.8012C50.4871 22.4514 49.2833 19.5788 49.1377 19.3699C48.3747 18.2749 47.2982 17.4034 46.1331 16.7709C44.2967 15.954 42.3803 15.988 40.4077 15.889C37.7683 15.7566 35.1172 15.6637 32.474 15.6768C29.7763 15.6902 27.085 15.7364 24.3886 15.8215C22.4495 15.8819 20.5939 16.2805 19.0442 17.5553C17.3501 19.2647 16.4026 20.8697 16.2575 23.2755C16.0216 27.1848 15.842 31.085 15.8284 35.0026C15.8168 37.9304 15.4128 41.2631 16.1818 44.1168C16.6309 45.7837 17.6894 47.2524 19.0424 48.3034C21.4627 50.1835 25.0158 49.886 27.9223 50.0275C32.7227 50.209 37.5284 50.3463 42.3319 50.1678C44.0802 50.1359 45.9794 49.5256 47.2442 48.2837C50.218 45.3642 50.0804 41.6687 50.2694 37.7033C50.317 36.7054 50.6083 24.4958 50.9288 24.4939H50.9297C51.0297 24.4992 51.0952 25.3273 51.1373 26.5367ZM59.5693 45.0158C59.4083 44.5179 59.3698 43.9801 59.4979 43.4363C59.5113 43.3729 59.528 43.3097 59.5452 43.2468C58.751 43.4185 57.7675 43.4744 57.5391 43.4533C56.3186 43.3402 55.7424 42.4594 55.0405 41.5821C54.5865 41.0073 54.1027 40.5075 53.6353 39.9458C53.3267 39.3698 51.9341 39.5373 51.2209 39.4151C51.22 40.1216 51.2058 40.8324 51.1622 41.5376C51.5649 41.3271 52.1843 41.236 52.4514 41.3592C53.8291 41.8203 55.1586 43.7179 56.1152 44.7328C56.5342 44.9481 58.3754 44.8727 59.5693 45.0158ZM65.7171 44.1236C65.7171 44.1236 65.717 44.1236 65.7169 44.1236C65.5265 44.1096 64.6598 42.5413 64.3424 42.3497C63.8432 42.052 63.1021 41.8229 62.5128 41.9964C61.7048 42.1784 61.0017 43.0511 60.9274 43.8757C60.8318 45.2607 62.1766 46.4176 63.5662 46.1638C63.6537 46.1478 63.7263 46.1223 63.8146 46.0897C64.2548 45.9146 64.6656 45.6375 64.9871 45.2889C65.1483 45.1143 65.5594 44.141 65.717 44.1235C65.7298 44.1246 65.7427 44.1255 65.7171 44.1236ZM0.283294 21.8763C0.283165 21.8763 0.283165 21.8763 0.283294 21.8763C0.308301 21.878 0.295797 21.8771 0.283294 21.8763ZM65.7164 22.0073H65.717C65.7167 22.0073 65.7166 22.0073 65.7164 22.0073L65.7162 22.0072C65.6926 22.0096 65.6402 22.0155 65.7164 22.0073ZM0.283809 43.9928C0.283422 43.9928 0.283551 43.9928 0.283165 43.9928H0.283809V43.9929C0.307399 43.9905 0.359993 43.9845 0.283809 43.9928ZM65.7164 33.1311C65.7165 33.1311 65.7169 33.131 65.717 33.131C65.6426 33.1248 65.6928 33.1291 65.7164 33.1311ZM0.283809 32.8689C0.28368 32.8689 0.283294 32.8691 0.283165 32.8691C0.357415 32.8753 0.307399 32.871 0.283809 32.8689Z" fill="var(--fill-0, #5B6A5A)"/>
</g>
<defs>
<clipPath id="clip0_0_4">
<rect width="66" height="66" fill="white"/>
</clipPath>
</defs>
</svg>
