<svg preserveAspectRatio="none" width="100%" height="100%" overflow="visible" style="display: block;" viewBox="0 0 38 38" fill="none" xmlns="http://www.w3.org/2000/svg">
<g id="medical-checkup_10481277 1" clip-path="url(#clip0_0_4)">
<path id="Vector" d="M26.9167 27.531C26.8464 27.531 26.7754 27.5076 26.7184 27.4613C26.6171 27.3796 26.5753 27.2435 26.6152 27.1187L26.6811 26.9122L25.7526 27.448C25.6202 27.5253 25.4518 27.4955 25.3523 27.379C25.2535 27.2618 25.2523 27.0915 25.3498 26.973L25.871 26.3378L24.8083 26.9515C24.6728 27.0307 24.498 26.9971 24.3998 26.8723C24.3029 26.7476 24.3124 26.5702 24.4226 26.4569L25.4087 25.441L24.3048 26.0781C24.1731 26.1541 24.0052 26.1256 23.9064 26.011C23.807 25.8957 23.8038 25.726 23.8988 25.6069L24.7393 24.5518L24.244 24.8374C24.1319 24.902 23.9926 24.8925 23.8906 24.8127C23.7886 24.7336 23.7456 24.5999 23.781 24.4764L23.9413 23.9185C23.8887 23.8919 23.8431 23.8501 23.8114 23.795C23.7234 23.6442 23.7753 23.4498 23.9273 23.3624L24.2472 23.1775C24.3586 23.1122 24.498 23.123 24.6006 23.2022C24.7032 23.2813 24.7456 23.415 24.7101 23.5385L24.6075 23.8963L25.8704 23.168C26.0009 23.0901 26.1693 23.1198 26.2688 23.2351C26.3682 23.3504 26.3714 23.5201 26.2764 23.6392L25.4359 24.6943L27.0592 23.7576C27.1953 23.6778 27.3701 23.712 27.4677 23.8368C27.5652 23.9615 27.5551 24.1389 27.4449 24.2516L26.4594 25.2681L27.0655 24.9179C27.1966 24.8406 27.3651 24.8704 27.4658 24.9869C27.5646 25.1041 27.5658 25.2744 27.4683 25.3929L26.9471 26.0275L27.0706 25.9565C27.1839 25.8907 27.3252 25.9014 27.4271 25.9838C27.5285 26.0655 27.5703 26.2016 27.5304 26.3264L27.3929 26.7602C27.4385 26.7875 27.4791 26.8261 27.5076 26.8761C27.595 27.0275 27.5424 27.2213 27.3904 27.3087L27.0744 27.4905C27.0256 27.5183 26.9711 27.5323 26.9167 27.5323V27.531Z" fill="var(--fill-0, #F9AC9A)"/>
<path id="Vector_2" d="M35.048 27.5164C34.9587 27.5164 34.8713 27.4784 34.8093 27.4075C34.7098 27.2929 34.7054 27.125 34.7979 27.0047L35.4667 26.1465L33.744 27.1409C33.6028 27.2238 33.4197 27.182 33.3254 27.0478C33.2316 26.9122 33.2576 26.7273 33.3843 26.6228L33.6465 26.4068C33.5401 26.4252 33.4223 26.391 33.3463 26.3036C33.2475 26.1883 33.243 26.0199 33.3361 25.9002L34.409 24.5322L33.7434 24.916C33.6313 24.9799 33.4938 24.9711 33.3919 24.8932C33.2905 24.8153 33.2462 24.6835 33.2785 24.56L33.4501 23.9216C33.3938 23.895 33.3444 23.8513 33.3108 23.7931C33.2228 23.6423 33.2747 23.4479 33.4267 23.3605L33.7465 23.1756C33.8561 23.111 33.9954 23.1198 34.098 23.1984C34.1994 23.2763 34.2437 23.408 34.2114 23.5315L34.0898 23.985L35.511 23.1648C35.6421 23.0888 35.8093 23.1167 35.9087 23.2307C36.0075 23.3459 36.012 23.5144 35.9189 23.6341L34.846 25.0015L36.556 24.0141C36.6966 23.9318 36.8803 23.9723 36.9746 24.1072C37.0684 24.2427 37.0424 24.4277 36.9157 24.5322L36.6523 24.7494C36.7606 24.7279 36.8765 24.764 36.9531 24.852C37.0525 24.9666 37.057 25.1345 36.9645 25.2548L36.2735 26.1408C36.4027 26.1104 36.5484 26.1674 36.6193 26.2909C36.7074 26.4423 36.6554 26.6361 36.5034 26.7235L35.2064 27.4727C35.157 27.5019 35.1025 27.5152 35.048 27.5152V27.5164Z" fill="var(--fill-0, #F9AC9A)"/>
<path id="Vector_3" d="M25.6994 24.3643C25.5949 24.3643 25.4929 24.3124 25.4321 24.218C25.3409 24.0749 25.3789 23.8862 25.5176 23.7886L31.2791 19.7429L23.7462 24.0914C23.5993 24.1775 23.4105 24.1306 23.3193 23.9856C23.2288 23.8412 23.2687 23.6512 23.4099 23.5549L29.6052 19.3502L23.6107 22.8108C23.4631 22.8975 23.2756 22.85 23.1844 22.7056C23.0932 22.5612 23.1331 22.3719 23.2731 22.2756L29.4544 18.0354L23.6107 21.4092C23.4618 21.496 23.2725 21.4478 23.1819 21.3003C23.092 21.154 23.1363 20.9627 23.2801 20.869L25.0426 19.7296L23.61 20.5567C23.4612 20.6435 23.2706 20.5941 23.1813 20.4478C23.0913 20.3009 23.1357 20.1096 23.2801 20.0159L23.9679 19.5738L23.61 19.7803C23.4644 19.8651 23.2775 19.8195 23.1857 19.6783C23.0939 19.5371 23.13 19.3483 23.2668 19.2489L27.7552 16.0221L23.61 18.4148C23.4656 18.499 23.2794 18.4541 23.187 18.3154C23.0945 18.1748 23.1274 17.9873 23.2623 17.8872L26.4144 15.5331L23.61 17.1519C23.4694 17.2336 23.2877 17.1944 23.1933 17.0607C23.0989 16.9271 23.1217 16.7434 23.2459 16.637L25.6741 14.5553L23.7443 15.6693C23.6107 15.7478 23.439 15.7155 23.3402 15.5958C23.2421 15.4755 23.2459 15.3013 23.3491 15.1854L24.6892 13.6775C24.5949 13.6648 24.5068 13.611 24.4555 13.5217C24.3675 13.3703 24.4194 13.1765 24.5714 13.0891L25.9331 12.3025C26.0661 12.2246 26.2384 12.2556 26.3372 12.376C26.436 12.4963 26.4315 12.6705 26.3283 12.7864L25.1237 14.1417L28.3113 12.3019C28.4512 12.2189 28.633 12.2588 28.728 12.3931C28.8224 12.5267 28.7996 12.7104 28.6754 12.8168L26.2472 14.8985L30.7458 12.3012C30.8889 12.2164 31.0758 12.2613 31.1689 12.4007C31.2613 12.5413 31.2284 12.7287 31.0935 12.8288L27.9408 15.1835L32.9346 12.3006C33.0796 12.2145 33.2665 12.2607 33.3589 12.4026C33.4508 12.5444 33.4147 12.7325 33.2779 12.832L28.7894 16.0588L35.0772 12.4292C35.2266 12.3424 35.4166 12.3918 35.5059 12.5381C35.5959 12.685 35.5515 12.8763 35.4071 12.97L34.7231 13.4096L35.6693 12.8636C35.8188 12.7769 36.0075 12.825 36.0981 12.9726C36.188 13.1189 36.1437 13.3101 35.9999 13.4039L34.2348 14.5445L36.1994 13.4108C36.3476 13.3247 36.5351 13.3722 36.6257 13.516C36.7169 13.6604 36.677 13.8497 36.537 13.946L30.355 18.1862L36.8283 14.4495C36.9772 14.364 37.1646 14.4102 37.2552 14.5553C37.3458 14.6997 37.3059 14.8897 37.1646 14.9859L30.9675 19.1925L37.1488 15.6237C37.2957 15.5382 37.4819 15.5844 37.5744 15.7276C37.6656 15.8707 37.6276 16.0594 37.4889 16.157L31.7275 20.2027L37.1893 17.0493C37.3344 16.9638 37.5212 17.0101 37.613 17.1507C37.7055 17.2925 37.67 17.4806 37.5339 17.5794L33.1791 20.7404L37.1893 18.4256C37.3344 18.3413 37.5206 18.3857 37.613 18.5263C37.7049 18.6669 37.6707 18.855 37.5351 18.9544L34.8726 20.9139L37.1893 19.5763C37.3293 19.4934 37.5117 19.5326 37.6067 19.6682C37.7004 19.8024 37.677 19.9861 37.5522 20.0919L35.2817 22.0178L37.1893 20.9171C37.3318 20.8335 37.5155 20.8753 37.6086 21.0115C37.7017 21.1476 37.6751 21.3326 37.5472 21.4364L37.1203 21.7835L37.1887 21.7442C37.3255 21.6644 37.5016 21.6993 37.5978 21.8253C37.6941 21.9507 37.6833 22.1287 37.5712 22.2414L37.2242 22.5904C37.3686 22.5302 37.5402 22.5834 37.6206 22.724C37.7087 22.8754 37.6567 23.0692 37.5047 23.1566L35.4838 24.3238C35.3476 24.4042 35.1715 24.3694 35.0746 24.2427C34.9784 24.1173 34.9891 23.9394 35.1012 23.8266L35.442 23.484L33.9866 24.3238C33.8447 24.408 33.661 24.3656 33.5673 24.2294C33.4742 24.0933 33.5008 23.9083 33.6287 23.8045L34.0531 23.4593L32.5559 24.3238C32.4153 24.4055 32.2341 24.3669 32.1385 24.232C32.0448 24.0977 32.0682 23.914 32.193 23.8083L34.4641 21.8817L30.2341 24.3232C30.0903 24.4087 29.9028 24.3637 29.8104 24.2225C29.7185 24.0819 29.7527 23.8938 29.8883 23.7943L32.5514 21.8348L28.241 24.3232C28.0953 24.4074 27.9078 24.3624 27.8173 24.2218C27.7248 24.08 27.7603 23.8919 27.8964 23.7931L32.2512 20.6321L25.8571 24.3232C25.8071 24.3523 25.7526 24.3656 25.6988 24.3656L25.6994 24.3643Z" fill="var(--fill-0, #4D5C7A)"/>
<path id="Vector_4" d="M32.0251 15.7681C31.932 15.7681 31.8396 15.7269 31.7769 15.649C31.68 15.5262 31.6863 15.3501 31.7927 15.2361L33.1347 13.7959L31.248 14.8852C31.11 14.9669 30.9307 14.9302 30.8345 14.7985C30.7395 14.668 30.7572 14.4869 30.8756 14.3773L31.4425 13.8592L30.6622 14.3095C30.5108 14.3969 30.3164 14.3456 30.2296 14.1936C30.1416 14.0423 30.1935 13.8485 30.3455 13.7611L33.6332 11.863C33.7719 11.7825 33.9511 11.8186 34.0467 11.9497C34.1417 12.0802 34.124 12.2613 34.0056 12.3709L33.4394 12.8883L34.6503 12.1891C34.7846 12.1106 34.9575 12.1429 35.0569 12.2658C35.1538 12.388 35.1475 12.5641 35.0411 12.6787L33.2905 14.5578C33.3304 14.5838 33.3646 14.6199 33.39 14.6636C33.478 14.8149 33.4261 15.0087 33.2741 15.0961L32.1828 15.7257C32.1334 15.7548 32.079 15.7681 32.0245 15.7681H32.0251Z" fill="var(--fill-0, #4B546B)"/>
<path id="Vector_5" d="M28.4253 15.7966C28.3239 15.7966 28.2245 15.7478 28.1637 15.6579C28.0706 15.5211 28.0978 15.3349 28.2283 15.2317L29.2081 14.4527L27.9243 15.1937C27.7888 15.2741 27.6127 15.2393 27.5152 15.1126C27.4189 14.9866 27.4297 14.8086 27.5418 14.6965L28.7128 13.5223L27.2397 14.3729C27.1149 14.4463 26.9566 14.4242 26.8552 14.3203C26.7545 14.2171 26.7362 14.0587 26.8109 13.9352L27.4113 12.9447L26.4911 13.4761C26.372 13.5438 26.2244 13.5299 26.1237 13.4393C26.0218 13.3494 25.9882 13.205 26.0408 13.0796L26.0971 12.9447L26.0636 12.9637C25.9122 13.0517 25.719 12.9998 25.631 12.8478C25.543 12.6958 25.5949 12.5026 25.7469 12.4152L26.5937 11.9263C26.7121 11.8579 26.8584 11.8718 26.961 11.963C27.063 12.053 27.0965 12.1974 27.044 12.3228L26.9876 12.4577L28.1631 11.7794C28.2878 11.7059 28.4462 11.7287 28.5475 11.8319C28.6482 11.9352 28.6666 12.0935 28.5918 12.217L27.9914 13.2075L30.4665 11.7787C30.6033 11.6996 30.7794 11.7338 30.8756 11.8598C30.9719 11.9858 30.9611 12.1638 30.849 12.2759L29.678 13.4501L32.5736 11.7787C32.7167 11.6945 32.9004 11.7376 32.9935 11.8744C33.0866 12.0112 33.0594 12.1974 32.9289 12.3006L29.6875 14.8802C29.7084 15.0062 29.6508 15.1379 29.5336 15.2057L28.5836 15.7542C28.5342 15.7833 28.4791 15.7966 28.4253 15.7966Z" fill="var(--fill-0, #4B546B)"/>
<path id="Vector_6" d="M27.3271 5.79373C27.2276 5.79373 27.1295 5.74687 27.0687 5.65947C26.9743 5.52583 26.9977 5.34217 27.1219 5.23577L29.3525 3.33893L26.1763 5.17243C26.0306 5.2573 25.8438 5.2117 25.7526 5.0711C25.6601 4.92923 25.6956 4.74113 25.8318 4.64233L26.258 4.33263L26.1529 4.39343C26.0116 4.4764 25.8318 4.4365 25.7374 4.3035C25.6424 4.17113 25.6633 3.9881 25.7862 3.88107L27.2954 2.55867L26.41 3.06977C26.2713 3.1521 26.0908 3.1141 25.9958 2.98173C25.9008 2.85063 25.9198 2.66887 26.0395 2.56057L26.7039 1.96207C26.6646 1.93547 26.6304 1.9 26.6051 1.8563C26.517 1.70493 26.569 1.51113 26.721 1.42373L28.3632 0.475633C28.5032 0.394567 28.6824 0.432567 28.7774 0.563667C28.8724 0.694767 28.8534 0.876533 28.7337 0.984833L28.6944 1.0203L29.7692 0.400267C29.9098 0.318567 30.0903 0.3572 30.1847 0.4902C30.2797 0.622567 30.2588 0.8056 30.1359 0.912633L28.6267 2.23567L31.1714 0.766967C31.3158 0.680833 31.5039 0.7277 31.5951 0.8683C31.6876 1.01017 31.6521 1.19827 31.5159 1.29707L31.0935 1.6036L32.0555 1.0488C32.1949 0.966467 32.3773 1.0051 32.4723 1.14063C32.5666 1.27427 32.5432 1.45793 32.4191 1.56433L30.1878 3.4618L33.4691 1.56813C33.6091 1.48707 33.7896 1.5257 33.884 1.6568C33.979 1.78853 33.9593 1.97093 33.8384 2.0786L32.0688 3.65497L34.2196 2.413C34.3577 2.33193 34.5357 2.36803 34.6319 2.4985C34.7276 2.62707 34.7117 2.80757 34.5939 2.91777L33.623 3.82913L34.5553 3.29143C34.6915 3.21163 34.865 3.2452 34.9632 3.36997C35.0601 3.4941 35.0518 3.67143 34.9423 3.7848L34.6617 4.07677C34.7852 4.01027 34.9372 4.03243 35.0366 4.1306C35.1373 4.23193 35.1582 4.38837 35.0873 4.51313L34.8884 4.85957C34.9404 4.8868 34.9847 4.92797 35.0157 4.9818C35.1038 5.13317 35.0518 5.32697 34.8998 5.41437L34.3324 5.7418C34.2082 5.814 34.0524 5.7931 33.9498 5.69177C33.8491 5.59107 33.8282 5.43463 33.8992 5.30987L33.9517 5.21803L33.041 5.7437C32.9055 5.8235 32.7307 5.78993 32.6331 5.66517C32.5362 5.54103 32.5445 5.3637 32.654 5.25033L32.9352 4.95773L31.5691 5.74623C31.4311 5.8273 31.2531 5.7912 31.1568 5.66073C31.0612 5.53153 31.077 5.35167 31.1948 5.24147L32.1651 4.3301L29.7071 5.74877C29.5684 5.83047 29.3879 5.79183 29.2923 5.6601C29.1973 5.52837 29.2169 5.34597 29.3379 5.2383L31.1081 3.66193L27.486 5.75257C27.4366 5.7817 27.3815 5.795 27.3277 5.795L27.3271 5.79373Z" fill="var(--fill-0, #F7AA4C)"/>
<path id="Vector_7" d="M2.86077 37.6643C2.7531 37.6643 2.64797 37.6092 2.58843 37.5104C2.49977 37.3622 2.54727 37.1697 2.6942 37.0785L2.85253 36.9803L1.98233 37.4826C1.8335 37.5693 1.64413 37.5212 1.55357 37.3736C1.46363 37.2273 1.50797 37.0361 1.65173 36.9423L10.1333 31.4596L1.06843 36.6934C0.9196 36.7802 0.728967 36.7321 0.639667 36.5845C0.549733 36.4382 0.594067 36.2463 0.738467 36.1532L9.8344 30.2898L0.810667 35.4996C0.661833 35.587 0.469933 35.537 0.380633 35.3888C0.291333 35.2406 0.3382 35.0487 0.483867 34.9568L5.89823 31.5641L0.810667 34.5015C0.661833 34.5889 0.4712 34.5395 0.381267 34.3913C0.291967 34.2437 0.337567 34.0518 0.4826 33.9593L7.4803 29.533L0.810667 33.3836C0.6612 33.4704 0.4712 33.4216 0.3819 33.2741C0.291967 33.1278 0.3363 32.9365 0.4807 32.8428L9.49177 27.0535L0.810667 32.065C0.6612 32.1512 0.472467 32.1037 0.3819 31.9561C0.291967 31.8098 0.3363 31.6185 0.480067 31.5248L10.2201 25.2231L0.810667 30.6559C0.659933 30.7426 0.4693 30.6926 0.380633 30.545C0.291333 30.3968 0.3382 30.2049 0.4845 30.1131L5.24653 27.139L0.810667 29.6995C0.659933 29.7869 0.4693 29.7369 0.380633 29.5881C0.291333 29.4405 0.3382 29.248 0.485133 29.1561L4.34657 26.7545L0.810667 28.7958C0.659933 28.8832 0.468667 28.8331 0.380633 28.6843C0.291333 28.5361 0.338833 28.3436 0.485767 28.2524L2.85507 26.7875L0.810033 27.9674C0.660567 28.0541 0.470567 28.006 0.381267 27.8584C0.291333 27.7121 0.335667 27.5209 0.479433 27.4271L9.98893 21.2889L0.810667 26.5886C0.661833 26.6766 0.4712 26.6266 0.381267 26.4784C0.291967 26.3308 0.337567 26.1389 0.4826 26.0465L7.5601 21.5675L0.810667 25.4638C0.6612 25.5506 0.4712 25.5012 0.3819 25.3549C0.291967 25.2079 0.3363 25.0167 0.4807 24.9229L9.32457 19.2362L0.810667 24.1522C0.661833 24.2396 0.4712 24.1902 0.381267 24.042C0.291967 23.895 0.336933 23.7031 0.481967 23.6107L7.17377 19.3572L0.810033 23.0312C0.6612 23.1192 0.470567 23.0692 0.380633 22.921C0.291333 22.7734 0.336933 22.5815 0.481967 22.489L5.15787 19.5314L0.810033 22.0419C0.660567 22.1287 0.471833 22.0805 0.3819 21.9336C0.291333 21.7873 0.335033 21.596 0.4788 21.5023L6.40997 17.6434L0.8094 20.8759C0.660567 20.9614 0.4712 20.9146 0.3819 20.7683C0.291333 20.6232 0.333767 20.4326 0.476267 20.3376L5.64363 16.9208L0.808767 19.7119C0.661833 19.7974 0.474367 19.7511 0.383167 19.608C0.291967 19.4649 0.329967 19.2755 0.4693 19.178L5.87353 15.4122L0.808767 18.3356C0.6631 18.4218 0.475 18.3749 0.3838 18.2324C0.291967 18.0899 0.329333 17.9018 0.4674 17.803L4.30413 15.0822L0.808767 17.1C0.664367 17.1849 0.478167 17.1405 0.385067 16.9993C0.293233 16.8581 0.327433 16.6693 0.4636 16.5705L3.12993 14.6199L0.808767 15.9594C0.664367 16.0436 0.4788 15.9999 0.386333 15.8599C0.293867 15.72 0.326167 15.5325 0.460433 15.4318L1.93927 14.3222L0.808767 14.9745C0.673233 15.055 0.497167 15.0201 0.399633 14.8935C0.303367 14.7674 0.314133 14.5895 0.426233 14.4774L2.01273 12.8852L0.8094 13.5799C0.675767 13.6585 0.504133 13.6262 0.405333 13.5065C0.307167 13.3861 0.310967 13.212 0.4142 13.0961L0.953167 12.49C0.868933 12.4716 0.7923 12.419 0.746067 12.3386C0.658033 12.1872 0.709967 11.9934 0.861967 11.906L2.15967 11.1568C2.2933 11.0783 2.46493 11.1099 2.56373 11.2303C2.66253 11.3506 2.6581 11.5248 2.55487 11.6407L2.1888 12.0523L3.76643 11.1416C3.9026 11.0618 4.0793 11.0966 4.17557 11.2227C4.27183 11.3487 4.26107 11.5267 4.14897 11.6388L2.56247 13.231L6.18197 11.1416C6.3251 11.0567 6.51193 11.1011 6.6044 11.241C6.69687 11.381 6.66457 11.5685 6.5303 11.6692L5.0521 12.7781L7.88753 11.1416C8.03257 11.0567 8.21877 11.1017 8.31123 11.2423C8.40307 11.3835 8.36887 11.5723 8.2327 11.6711L5.56637 13.6217L9.8629 11.1416C10.0086 11.0561 10.1973 11.1023 10.2879 11.2448C10.3797 11.3873 10.3423 11.5754 10.2043 11.6742L6.36817 14.3944L12.0023 11.1416C12.1473 11.0561 12.3367 11.1023 12.4279 11.2455C12.5191 11.3886 12.4811 11.578 12.3418 11.6755L6.93753 15.4419L14.3862 11.1416C14.5337 11.0542 14.7231 11.1023 14.8137 11.2493C14.9042 11.3943 14.8618 11.5849 14.7193 11.6799L9.5494 15.0974L16.4021 11.1416C16.5509 11.0548 16.7409 11.1036 16.8302 11.2499C16.9208 11.3962 16.8771 11.5875 16.7333 11.6812L10.8059 15.5376L18.4199 11.1422C18.5693 11.0561 18.76 11.1042 18.8493 11.2524C18.9386 11.4006 18.893 11.5919 18.7479 11.6844L14.0701 14.6427L19.7366 11.3715C19.8867 11.2847 20.0767 11.3335 20.166 11.4817C20.2553 11.6286 20.2103 11.8205 20.0653 11.913L13.376 16.1646L20.4643 12.072C20.6131 11.9846 20.8031 12.034 20.893 12.1809C20.983 12.3278 20.9386 12.5191 20.7942 12.6128L11.9491 18.3002L20.722 13.2354C20.8721 13.1493 21.0621 13.1974 21.1514 13.3456C21.2407 13.4938 21.1951 13.6851 21.0501 13.7775L13.9726 18.2565L20.722 14.3602C20.8709 14.2728 21.0609 14.3222 21.1508 14.4691C21.2407 14.6161 21.1964 14.8067 21.0526 14.9004L11.5431 21.0387L20.722 15.7396C20.8715 15.6522 21.0634 15.7022 21.1521 15.8511C21.2414 15.9993 21.1939 16.1918 21.0469 16.283L18.6776 17.7479L20.7227 16.568C20.8721 16.48 21.0628 16.53 21.1527 16.6795C21.242 16.827 21.1951 17.0196 21.0482 17.1114L17.1868 19.513L20.7227 17.4718C20.8721 17.3837 21.0628 17.4344 21.1527 17.5826C21.242 17.7308 21.1951 17.9227 21.0488 18.0145L16.2868 20.9887L20.7227 18.4281C20.8715 18.3413 21.0602 18.3901 21.1514 18.537C21.2414 18.6833 21.197 18.8746 21.0533 18.9683L11.3132 25.27L20.7227 19.8379C20.8715 19.7505 21.0615 19.7999 21.1514 19.9475C21.2414 20.0938 21.197 20.285 21.0526 20.3788L12.0416 26.1681L20.7227 21.1565C20.8728 21.0704 21.0628 21.1191 21.1521 21.2667C21.2414 21.4143 21.1958 21.6062 21.0507 21.6986L14.053 26.125L20.7227 22.2743C20.8728 22.1876 21.064 22.2376 21.1527 22.3852C21.242 22.5327 21.1951 22.7253 21.0495 22.8171L15.6351 26.2099L20.7227 23.2725C20.8715 23.1857 21.0615 23.2338 21.1514 23.3814C21.2414 23.5277 21.197 23.7196 21.0526 23.8127L11.9573 29.6755L20.7233 24.6151C20.8721 24.5284 21.0609 24.5765 21.1521 24.7241C21.242 24.8704 21.1977 25.0616 21.0539 25.1554L12.5691 30.6407L20.7239 25.9325C20.8734 25.8444 21.0653 25.8945 21.154 26.0439C21.2433 26.1921 21.1958 26.3847 21.0488 26.4759L20.7708 26.6481C20.907 26.5962 21.0716 26.6469 21.1533 26.7792C21.2433 26.9255 21.1989 27.1168 21.0552 27.2105L15.3818 30.8851L20.7252 27.8008C20.8753 27.7147 21.0653 27.7634 21.1546 27.911C21.2439 28.0586 21.1983 28.2505 21.0526 28.3429L20.0342 28.9858L20.7258 28.5868C20.8734 28.5 21.0628 28.5475 21.1533 28.6938C21.2439 28.8401 21.2015 29.0301 21.0596 29.1251L16.7776 31.9637L20.7258 29.6843C20.8747 29.5982 21.0634 29.6457 21.1546 29.7933C21.2445 29.9389 21.2002 30.1308 21.0571 30.2246L19.9627 30.9333L20.7258 30.4931C20.8734 30.4057 21.0621 30.4545 21.1533 30.6001C21.2439 30.7452 21.2021 30.9352 21.0609 31.0308L19.2293 32.255L20.7258 31.3912C20.8709 31.3063 21.0571 31.3519 21.1489 31.4906C21.2414 31.6312 21.2078 31.8187 21.0735 31.9187L17.7764 34.3786L20.7258 32.6762C20.8677 32.592 21.0514 32.6344 21.1451 32.7706C21.2382 32.9074 21.2116 33.0923 21.083 33.1962L18.7897 35.0493L20.7258 33.9315C20.8607 33.8517 21.0349 33.8859 21.1331 34.0094C21.23 34.1322 21.223 34.3089 21.1147 34.4229L19.6327 35.9885L20.7151 35.3641C20.8512 35.2849 21.0254 35.3185 21.1236 35.4439C21.2205 35.5686 21.211 35.746 21.1008 35.8587L20.6644 36.3071C20.7151 36.3337 20.7588 36.3742 20.7898 36.4281C20.8778 36.5794 20.8259 36.7732 20.6739 36.8606L19.3768 37.6099C19.2413 37.689 19.0665 37.6555 18.9683 37.5301C18.8714 37.4053 18.8809 37.228 18.9911 37.1152L19.0469 37.0582L18.0658 37.6244C17.9303 37.7036 17.7568 37.67 17.6586 37.5465C17.5617 37.4237 17.5687 37.247 17.677 37.133L19.1583 35.568L15.5965 37.6244C15.4546 37.708 15.2709 37.6662 15.1772 37.5301C15.0841 37.3933 15.1107 37.2083 15.2393 37.1045L17.5332 35.2507L13.4216 37.6244C13.2772 37.7099 13.0916 37.6643 12.9985 37.525C12.9061 37.3844 12.9396 37.1969 13.0739 37.0969L16.3704 34.6376L11.1967 37.6244C11.0479 37.7106 10.8598 37.6631 10.7692 37.5174C10.6786 37.3724 10.7204 37.1824 10.8617 37.0867L12.6958 35.8606L9.64187 37.6238C9.49303 37.7099 9.3043 37.6624 9.2131 37.5149C9.12317 37.3692 9.1675 37.1773 9.31127 37.0836L10.4057 36.3742L8.24157 37.6238C8.09273 37.7099 7.904 37.6624 7.81407 37.5168C7.7235 37.3711 7.76593 37.1805 7.9078 37.0855L12.186 34.2488L6.34093 37.6232C6.19147 37.7106 6.00147 37.6612 5.91153 37.513C5.82223 37.3654 5.86783 37.1735 6.0135 37.081L7.03443 36.4369L4.9799 37.6225C4.83107 37.7087 4.6417 37.6612 4.55113 37.5136C4.4612 37.3673 4.50553 37.176 4.6493 37.0823L10.3278 33.4039L3.02163 37.6219C2.9716 37.651 2.91713 37.6643 2.8633 37.6643H2.86077Z" fill="var(--fill-0, #BC6756)"/>
<path id="Vector_8" d="M30.1201 13.9447C30.0295 13.9447 29.9408 13.9055 29.8788 13.8326C29.78 13.7161 29.7781 13.5457 29.875 13.4273L30.9409 12.1245L29.3924 13.0182C29.2537 13.0999 29.0725 13.0619 28.9775 12.9289C28.8825 12.7971 28.9028 12.6147 29.0244 12.5071L29.621 11.9782L28.8154 12.4431C28.6818 12.521 28.512 12.49 28.412 12.3703C28.3138 12.2506 28.317 12.077 28.4189 11.9611L28.9332 11.3728L28.678 11.5197C28.5652 11.5849 28.4259 11.5748 28.3239 11.495C28.222 11.4152 28.1789 11.2816 28.215 11.1574L28.3733 10.6153C28.3214 10.5887 28.2764 10.5475 28.2454 10.4931C28.1574 10.3417 28.2093 10.1479 28.3613 10.0605L28.6805 9.8762C28.7932 9.8116 28.9319 9.8211 29.0345 9.9009C29.1371 9.9807 29.1796 10.1143 29.1435 10.2385L29.0447 10.5773L30.2733 9.86797C30.407 9.78943 30.5767 9.8211 30.6768 9.9408C30.7749 10.0605 30.7718 10.234 30.6698 10.3499L30.1549 10.9389L32.0258 9.8591C32.1657 9.77803 32.3456 9.81603 32.4406 9.9484C32.5356 10.0801 32.5153 10.2625 32.3937 10.3702L31.7971 10.899L32.1265 10.709C32.2569 10.6311 32.4267 10.6615 32.5261 10.7774C32.6249 10.8946 32.6268 11.065 32.5299 11.1834L31.4247 12.5349C31.5457 12.5172 31.6787 12.5736 31.7458 12.6895C31.8339 12.8408 31.7819 13.0346 31.6299 13.122L30.2797 13.901C30.2303 13.9302 30.1758 13.9435 30.1213 13.9435L30.1201 13.9447Z" fill="var(--fill-0, #EF9F8F)"/>
<path id="Vector_9" d="M27.4727 5.187C27.3638 5.187 27.2568 5.13 27.1985 5.02867C27.1105 4.8773 27.1624 4.6835 27.3144 4.5961L28.2593 4.0508C28.4107 3.96213 28.6045 4.0147 28.6919 4.1667C28.7799 4.31807 28.728 4.51187 28.576 4.59927L27.6311 5.14457C27.581 5.1737 27.5266 5.187 27.4727 5.187Z" fill="var(--fill-0, #F9AC9A)"/>
<path id="Vector_10" d="M31.0409 10.9953C30.9485 10.9953 30.856 10.9548 30.7939 10.8769C30.6964 10.7553 30.7015 10.5805 30.8072 10.4652L31.9187 9.2454L29.3031 10.7559C29.1587 10.8414 28.9725 10.7964 28.8794 10.6552C28.7875 10.514 28.8217 10.3259 28.9573 10.2264L29.9681 9.48417L28.5564 10.2986C28.4088 10.3841 28.222 10.3379 28.1308 10.1948C28.0396 10.0516 28.0776 9.86227 28.2169 9.76473L28.4949 9.5703L28.0801 9.8097C27.9357 9.8952 27.7495 9.8496 27.6564 9.709C27.5646 9.56777 27.5988 9.37967 27.7343 9.28023L29.146 8.24283L27.664 9.09847C27.519 9.18333 27.3302 9.13837 27.2397 8.99587C27.1478 8.854 27.1839 8.66527 27.3214 8.5671L27.5126 8.42967L27.4702 8.45437C27.3264 8.53987 27.1402 8.49427 27.0471 8.3543C26.9547 8.2137 26.9882 8.02623 27.1231 7.92617L27.766 7.44927L27.1345 7.81343C26.9965 7.8945 26.8179 7.85713 26.7216 7.7273C26.626 7.5981 26.6431 7.4176 26.7609 7.3074L27.8496 6.29407L26.3707 7.1478C26.2517 7.21557 26.1041 7.201 26.0021 7.1098C25.9002 7.01923 25.8672 6.87357 25.9217 6.74817L26.3137 5.8406L26.2441 5.8805C26.0921 5.96853 25.8983 5.91597 25.8115 5.7646C25.7235 5.61323 25.7754 5.41943 25.9274 5.33203L26.8255 4.81397C26.9445 4.74557 27.0921 4.76077 27.1947 4.85197C27.296 4.94253 27.329 5.0882 27.2745 5.2136L26.8831 6.12053L29.9491 4.35037C30.0865 4.2693 30.2657 4.30603 30.362 4.4365C30.4576 4.5657 30.4405 4.7462 30.3227 4.8564L29.234 5.87037L32.2259 4.14263C32.3709 4.05777 32.5571 4.10337 32.649 4.2427C32.7414 4.3833 32.7079 4.57077 32.573 4.67083L31.9289 5.14837L32.8244 4.6322C32.9694 4.5467 33.1569 4.5923 33.2487 4.7348C33.3406 4.87667 33.3045 5.0654 33.167 5.16357L32.977 5.29973L33.8105 4.8184C33.9555 4.73353 34.1424 4.7785 34.2342 4.9191C34.326 5.0597 34.2918 5.24843 34.1563 5.34787L32.7446 6.38463L34.5597 5.3371C34.7054 5.25097 34.8941 5.29783 34.9853 5.44097C35.0765 5.58473 35.0385 5.77347 34.8992 5.871L34.6186 6.06733L34.6212 6.06607C34.7662 5.9812 34.953 6.0268 35.0449 6.16677C35.1367 6.308 35.1025 6.4961 34.967 6.59553L33.5527 7.63483C33.6376 7.6418 33.7187 7.6817 33.7757 7.75263C33.8732 7.87423 33.8681 8.04903 33.7624 8.1643L32.6382 9.3974C32.7794 9.34863 32.939 9.405 33.0157 9.53863C33.1037 9.69 33.0518 9.8838 32.8998 9.9712L31.1999 10.9529C31.1505 10.982 31.0954 10.9953 31.0409 10.9953Z" fill="var(--fill-0, #F9AC9A)"/>
<path id="Vector_11" d="M33.4843 35.7675C33.402 35.7675 33.3203 35.7352 33.2595 35.6738C33.1582 35.5712 33.1392 35.4135 33.2126 35.2893L33.8409 34.2323L32.0226 35.2817C31.8871 35.3615 31.7123 35.328 31.6147 35.2032C31.5178 35.0797 31.5261 34.9024 31.635 34.789L32.8991 33.4679L31.6983 34.1614C31.5596 34.2431 31.3791 34.2051 31.2841 34.0733C31.1891 33.9416 31.2081 33.7598 31.3285 33.6515L32.1334 32.9289L31.559 33.2601C31.4235 33.3399 31.248 33.3057 31.1505 33.181C31.053 33.0562 31.0631 32.8789 31.1727 32.7661L32.725 31.1657L31.3582 31.9542C31.2195 32.0365 31.039 31.9979 30.944 31.8662C30.849 31.7351 30.868 31.5533 30.9884 31.4444L32.0188 30.5178L31.2094 30.9846C31.0713 31.0656 30.8927 31.0289 30.7965 30.8984C30.7008 30.7692 30.7179 30.5881 30.8357 30.4785L32.1474 29.2594L31.0422 29.8971C30.8991 29.9807 30.7154 29.9383 30.6223 29.8015C30.5292 29.6647 30.5564 29.4791 30.6869 29.3759L30.8946 29.2093C30.7616 29.2657 30.6027 29.2214 30.5165 29.0985C30.4222 28.9649 30.4456 28.7812 30.5697 28.6748L31.4672 27.911L30.7958 28.298C30.6578 28.3784 30.4811 28.3429 30.3848 28.2144C30.2885 28.0864 30.3025 27.9072 30.4184 27.7957L32.1594 26.1193L30.5995 27.0193C30.4475 27.1067 30.2537 27.0554 30.1669 26.9034C30.0789 26.752 30.1308 26.5582 30.2828 26.4708L34.0873 24.2744C34.2241 24.1927 34.4014 24.2288 34.4983 24.358C34.5946 24.4859 34.5806 24.6652 34.4647 24.7766L32.7243 26.4531L34.1614 25.6234C34.3026 25.5404 34.4844 25.5816 34.5781 25.7152C34.6725 25.8489 34.6497 26.0325 34.5249 26.1389L33.6256 26.904L34.2139 26.5652C34.3564 26.4803 34.5401 26.5234 34.6338 26.6608C34.7269 26.7976 34.6997 26.9832 34.5692 27.0864L34.3267 27.2802C34.4502 27.2447 34.587 27.2891 34.6674 27.3974C34.763 27.5266 34.7459 27.7077 34.6281 27.8173L33.3165 29.0364L34.3178 28.4588C34.4578 28.3778 34.637 28.4151 34.732 28.5469C34.827 28.678 34.808 28.8597 34.6877 28.9687L33.6585 29.8946L34.3742 29.4817C34.5097 29.4025 34.6851 29.4367 34.7827 29.5608C34.8796 29.6856 34.8701 29.8629 34.7605 29.9757L33.2082 31.5761L34.4508 30.8592C34.5901 30.7775 34.7706 30.8161 34.865 30.9472C34.96 31.0789 34.941 31.2607 34.8207 31.369L34.0163 32.0904L34.5034 31.8098C34.6389 31.7306 34.8137 31.7642 34.9112 31.8883C35.0081 32.0118 34.9999 32.1892 34.891 32.3025L33.6262 33.6243L34.5743 33.0771C34.6984 33.0043 34.8555 33.0252 34.9575 33.1284C35.0588 33.231 35.0778 33.3887 35.0043 33.5128L34.3761 34.5699L34.6478 34.4134C34.7985 34.3248 34.9929 34.3767 35.0803 34.5293C35.1684 34.6807 35.1164 34.8745 34.9644 34.9619L33.6427 35.7251C33.5933 35.7542 33.5388 35.7675 33.4843 35.7675Z" fill="var(--fill-0, #BECED3)"/>
<path id="Vector_12" d="M28.075 35.7675C27.9908 35.7675 27.9078 35.7339 27.847 35.6706C27.7463 35.5655 27.7292 35.4052 27.8078 35.2824L28.3746 34.3849L26.1446 35.6725C26.0015 35.7561 25.8166 35.713 25.7247 35.5769C25.6316 35.4394 25.6595 35.2539 25.7893 35.1506L26.0395 34.953C25.9255 34.9676 25.8096 34.9207 25.7387 34.8219C25.6443 34.6883 25.6671 34.5053 25.7906 34.3989L26.8483 33.4894L26.2143 33.8555C26.0756 33.9378 25.8951 33.8992 25.7988 33.7662C25.7045 33.6338 25.7247 33.4514 25.8463 33.3437L27.2428 32.1113L26.2795 32.6667C26.1364 32.7503 25.9521 32.7079 25.859 32.5704C25.7665 32.433 25.7944 32.2468 25.9249 32.1442L26.3239 31.8294C26.1826 31.9086 26.0066 31.8706 25.9116 31.7401C25.8166 31.609 25.8349 31.4279 25.9553 31.319L27.7438 29.704L26.4005 30.4792C26.2555 30.5634 26.0705 30.5191 25.9781 30.3804C25.8856 30.2404 25.9179 30.0529 26.0515 29.9522L29.9136 27.0395L26.4809 29.0212C26.3384 29.1048 26.156 29.0624 26.0623 28.9281C25.9686 28.792 25.9945 28.6077 26.1218 28.5025L28.9117 26.2092L26.5614 27.5665C26.4252 27.6463 26.2498 27.6121 26.1522 27.4848C26.0553 27.3587 26.0667 27.1808 26.1795 27.068L27.6969 25.555L26.6386 26.1655C26.5037 26.2434 26.3327 26.2124 26.2333 26.0902C26.1358 25.9692 26.1408 25.7944 26.246 25.6791L26.6481 25.2364C26.5506 25.2744 26.4398 25.2618 26.3517 25.201C26.251 25.1307 26.2004 25.0078 26.2213 24.8875L26.3929 23.8963C26.3695 23.8754 26.3492 23.8507 26.3321 23.8216C26.2441 23.6708 26.2954 23.4764 26.4474 23.3884L26.6127 23.2927C26.7197 23.2319 26.8514 23.237 26.9528 23.3067C27.0535 23.3763 27.1041 23.4992 27.0832 23.6202L26.961 24.3289L28.0801 23.6829C28.2137 23.6043 28.386 23.636 28.4854 23.7582C28.583 23.8792 28.5779 24.054 28.4728 24.1693L28.0788 24.6037L29.4747 23.7981C29.6115 23.7183 29.7869 23.7532 29.8838 23.8798C29.9807 24.0059 29.9693 24.1838 29.8566 24.2966L28.3391 25.8096L31.9244 23.7392C32.0669 23.6556 32.2493 23.6981 32.3431 23.8323C32.4368 23.9685 32.4108 24.1528 32.2835 24.2579L29.4937 26.5506L34.0676 23.9102C34.2114 23.8247 34.3976 23.8697 34.4901 24.009C34.5825 24.149 34.5502 24.3365 34.4166 24.4372L30.1986 27.6178C30.2898 27.6241 30.3759 27.6691 30.4329 27.7476C30.5279 27.8787 30.5096 28.0598 30.3892 28.1688L28.6007 29.7838L29.7996 29.0922C29.9421 29.0073 30.1264 29.0504 30.2201 29.1884C30.3126 29.3259 30.2847 29.5121 30.1543 29.6147L29.7211 29.956C29.8509 29.9149 29.9966 29.9579 30.0783 30.0719C30.1726 30.2043 30.1524 30.3867 30.0308 30.4944L28.6355 31.7262L29.469 31.2449C29.609 31.1625 29.7901 31.2018 29.8857 31.3361C29.9801 31.4691 29.9573 31.6527 29.8338 31.7591L28.7749 32.6699L29.2961 32.3684C29.4392 32.2842 29.6229 32.3272 29.716 32.464C29.8091 32.6008 29.7812 32.787 29.6514 32.8903L29.3214 33.1518C29.412 33.1468 29.4931 33.1835 29.5551 33.2487C29.6558 33.3539 29.6729 33.5141 29.5944 33.637L29.0035 34.5724C29.1308 34.549 29.2619 34.6091 29.3297 34.7263C29.4177 34.8777 29.3658 35.0715 29.2138 35.1589L28.2327 35.7251C28.1833 35.7542 28.1295 35.7675 28.075 35.7675Z" fill="var(--fill-0, #BECED3)"/>
<path id="Vector_13" d="M25.6133 37.6643C25.5183 37.6643 25.4245 37.6219 25.3625 37.5415C25.2656 37.4167 25.2757 37.2381 25.3872 37.126L26.2181 36.283L24.3567 37.3572C24.2288 37.4319 24.0654 37.4066 23.9647 37.297C23.8646 37.1874 23.8539 37.0221 23.9394 36.9012L24.6715 35.8581L24.6139 35.891C24.4619 35.9784 24.2681 35.9271 24.1813 35.7751C24.0933 35.6237 24.1452 35.4299 24.2972 35.3425L25.5955 34.5927C25.7235 34.5179 25.8869 34.5426 25.9876 34.6528C26.0876 34.7624 26.0984 34.9277 26.0129 35.0487L25.2808 36.0924L27.9256 34.5654C28.0624 34.4863 28.2372 34.5198 28.3347 34.6459C28.4316 34.7706 28.4215 34.9492 28.31 35.0613L27.4791 35.9043L28.956 35.0518C29.0922 34.972 29.2682 35.0075 29.3651 35.1323C29.462 35.2577 29.4513 35.4356 29.3398 35.5484L28.9864 35.9056C29.1314 35.846 29.3005 35.9018 29.3803 36.0405C29.4684 36.1918 29.4164 36.3856 29.2644 36.473L27.2764 37.6206C27.1409 37.7011 26.9654 37.6656 26.8673 37.5402C26.7704 37.4148 26.7811 37.2368 26.8926 37.1241L27.2384 36.7739L25.7716 37.6206C25.7222 37.6498 25.6677 37.6631 25.6133 37.6631V37.6643Z" fill="var(--fill-0, #4D5C7A)"/>
<path id="Vector_14" d="M33.5667 37.6643C33.4748 37.6643 33.3843 37.6244 33.3222 37.5491C33.224 37.43 33.2259 37.2565 33.3279 37.1399L34.1139 36.2349L32.2633 37.3033C32.1334 37.3787 31.9675 37.3521 31.8674 37.2381C31.768 37.1247 31.7617 36.9575 31.8529 36.8372L32.5552 35.9132L31.844 36.3236C31.7325 36.3875 31.5938 36.3793 31.4931 36.3014C31.3918 36.2235 31.3468 36.0924 31.3791 35.9689L31.5508 35.3216C31.4938 35.295 31.445 35.252 31.4108 35.1937C31.3234 35.0423 31.3753 34.8485 31.5273 34.7605L31.844 34.5781C31.9555 34.5148 32.0935 34.5243 32.1949 34.6009C32.2962 34.6788 32.3412 34.8099 32.3089 34.9334L32.1873 35.3951L33.6021 34.5781C33.7313 34.5015 33.8985 34.5293 33.998 34.6433C34.0974 34.7567 34.1037 34.9239 34.0125 35.0442L33.3102 35.9676L35.4356 34.7402C35.5686 34.6623 35.739 34.6934 35.8384 34.8124C35.9366 34.9315 35.9347 35.105 35.8327 35.2216L35.0468 36.1266L36.2476 35.4331C36.373 35.359 36.5332 35.3831 36.6352 35.4888C36.7359 35.5946 36.7511 35.7555 36.6725 35.8783L36.3242 36.4192L36.5446 36.2925C36.696 36.2032 36.8904 36.2564 36.9772 36.4084C37.0652 36.5598 37.0133 36.7536 36.8613 36.841L35.5097 37.6206C35.3843 37.6947 35.2241 37.6713 35.1221 37.5649C35.0214 37.4591 35.0062 37.2983 35.0848 37.1754L35.4331 36.6345L33.725 37.6206C33.6756 37.6498 33.6211 37.6631 33.5667 37.6631V37.6643Z" fill="var(--fill-0, #4D5C7A)"/>
<path id="Vector_15" d="M7.92807 35.131C7.82293 35.131 7.72033 35.0784 7.66017 34.9834C7.56897 34.8397 7.60823 34.6503 7.74883 34.5534L11.5096 31.9694L6.10723 35.0886C5.95967 35.1753 5.7722 35.1278 5.681 34.9841C5.5898 34.8397 5.62907 34.6509 5.76903 34.554L11.7021 30.4576L3.7506 35.0487C3.60113 35.1342 3.4124 35.0873 3.3231 34.941C3.23253 34.796 3.27497 34.6053 3.41683 34.5103L9.56143 30.4412L3.344 34.0309C3.19517 34.117 3.00707 34.0689 2.9165 33.9245C2.82593 33.7795 2.86773 33.5888 3.00897 33.4938L10.2397 28.6526L3.34337 32.6338C3.19453 32.7212 3.00327 32.6724 2.91333 32.5229C2.82403 32.3754 2.87027 32.1835 3.01657 32.091L3.667 31.6825L3.34273 31.8693C3.1939 31.9561 3.00453 31.908 2.91397 31.7604C2.82403 31.6147 2.86773 31.4235 3.0115 31.3297L7.99963 28.0909L3.3421 30.78C3.19327 30.8661 3.00517 30.8186 2.9146 30.673C2.82403 30.5273 2.86583 30.3373 3.00833 30.2423L9.785 25.7393L3.34147 29.4589C3.19263 29.5456 3.00327 29.4975 2.9127 29.3499C2.82277 29.2043 2.86647 29.013 3.01023 28.9186L7.9173 25.7368L3.34083 28.3784C3.192 28.4645 3.00327 28.417 2.9127 28.2707C2.82277 28.1257 2.8652 27.9344 3.0077 27.8401L9.34167 23.6582L3.3402 27.1231C3.19137 27.2099 3.00073 27.1618 2.91143 27.0142C2.8215 26.8679 2.86583 26.676 3.01023 26.5829L7.29347 23.8222L3.3402 26.1047C3.19137 26.1921 3.002 26.1427 2.91207 25.9964C2.82213 25.8501 2.8652 25.6595 3.00833 25.5658L8.6963 21.8424L3.33957 24.935C3.19073 25.0224 3.0001 24.9736 2.91017 24.8248C2.82087 24.6778 2.86647 24.4859 3.0115 24.3935L5.27123 22.9596L3.33893 24.0755C3.1901 24.1617 3.00263 24.1142 2.91207 23.9691C2.8215 23.8241 2.86203 23.6341 3.0039 23.5385L10.0079 18.8233L3.33957 22.6733C3.19263 22.7595 3.0039 22.7126 2.9127 22.5676C2.82213 22.4225 2.86203 22.2332 3.00327 22.1369L8.2498 18.5763L3.33957 21.4111C3.19453 21.496 3.0077 21.4504 2.91523 21.3091C2.8234 21.1673 2.85887 20.9792 2.9963 20.8804L7.8736 17.366L3.33957 19.9836C3.19263 20.0703 3.0039 20.0228 2.9127 19.8778C2.82213 19.7334 2.86203 19.5434 3.00327 19.4471L4.3206 18.5529L3.33957 19.1191C3.19453 19.2039 3.00643 19.1583 2.9146 19.0165C2.8234 18.874 2.8595 18.6852 2.99757 18.5871L4.45423 17.5497L3.33957 18.1931C3.20087 18.2748 3.021 18.2375 2.92537 18.1051C2.83037 17.9746 2.84873 17.7929 2.96907 17.6839L5.14583 15.7168L3.33957 16.7593C3.20087 16.8416 3.01847 16.803 2.92347 16.6687C2.8291 16.5363 2.85063 16.3533 2.9735 16.2463L3.40543 15.8707L3.33957 15.9087C3.2205 15.9765 3.06913 15.9619 2.96843 15.8694C2.86647 15.777 2.83607 15.6288 2.89307 15.5034L3.26547 14.6876C3.14197 14.7092 3.00833 14.6503 2.94057 14.5337C2.85253 14.3824 2.90447 14.1886 3.05647 14.1012L3.79177 13.6768C3.91083 13.6078 4.06157 13.623 4.1629 13.7161C4.26487 13.8086 4.29527 13.9568 4.23827 14.0822L3.88107 14.865L5.94003 13.6762C6.08 13.5945 6.26177 13.6325 6.35613 13.7668C6.4505 13.8991 6.42897 14.0822 6.3061 14.1892L5.87353 14.5648L7.41317 13.6768C7.5525 13.5951 7.73173 13.6338 7.82737 13.7649C7.92237 13.8953 7.904 14.0771 7.78367 14.186L5.60753 16.1532L9.89647 13.6768C10.0409 13.5907 10.229 13.6369 10.3214 13.7794C10.4126 13.9219 10.3765 14.1107 10.2385 14.2088L8.77927 15.2481L11.5007 13.6775C11.6489 13.5926 11.837 13.6382 11.9276 13.7832C12.0181 13.9276 11.9782 14.1176 11.837 14.2139L10.5241 15.1056L12.9973 13.6775C13.1423 13.5913 13.3291 13.6382 13.4216 13.7794C13.5134 13.9213 13.478 14.1094 13.3405 14.2082L8.46133 17.7238L15.4704 13.6775C15.6186 13.5926 15.8067 13.6382 15.8973 13.7832C15.9879 13.9283 15.948 14.1176 15.8067 14.2139L10.5615 17.7739L17.6428 13.6857C17.791 13.5989 17.9791 13.6471 18.0696 13.7921C18.1602 13.9371 18.1197 14.1271 17.9778 14.2228L10.9763 18.936L18.1836 14.775C18.3337 14.6883 18.5237 14.737 18.613 14.8852C18.7023 15.0322 18.6567 15.2241 18.5117 15.3165L16.2418 16.7555L18.1836 15.6345C18.3325 15.5477 18.5218 15.5958 18.6118 15.7428C18.7017 15.8884 18.6586 16.0797 18.5155 16.1734L12.8275 19.8968L18.1843 16.8042C18.3331 16.7175 18.5231 16.7656 18.613 16.9132C18.703 17.0595 18.6586 17.2514 18.5142 17.3445L14.238 20.1014L18.1843 17.8226C18.3325 17.7359 18.5212 17.7834 18.6124 17.9303C18.7023 18.0753 18.6599 18.2666 18.5174 18.361L12.1834 22.5429L18.1849 19.0779C18.3337 18.9911 18.5231 19.0393 18.6137 19.1868C18.7036 19.3325 18.6599 19.5238 18.5161 19.6181L13.6034 22.8044L18.1849 20.159C18.3331 20.0716 18.5212 20.1197 18.6124 20.266C18.703 20.4111 18.6612 20.6017 18.5187 20.6967L11.7464 25.1972L18.1855 21.4795C18.3344 21.3927 18.5237 21.4409 18.6143 21.5884C18.7042 21.7341 18.6605 21.9254 18.5168 22.0191L13.5223 25.2618L18.1855 22.5695C18.3356 22.4827 18.5263 22.5315 18.6156 22.6803C18.7049 22.8279 18.6586 23.0198 18.5123 23.1122L17.8619 23.5207L18.1862 23.3339C18.3344 23.2471 18.5225 23.2953 18.6137 23.4403C18.7042 23.5853 18.6624 23.776 18.5212 23.871L11.2936 28.7096L18.1868 24.7304C18.335 24.6436 18.5244 24.6911 18.6143 24.8381C18.7049 24.9831 18.6624 25.1737 18.5206 25.2687L12.3772 29.3373L18.1874 25.9825C18.3337 25.8976 18.5231 25.9439 18.6137 26.087C18.7049 26.2314 18.6656 26.4201 18.5256 26.517L12.5888 30.616L18.1874 27.3834C18.3356 27.2979 18.5231 27.3442 18.6137 27.4886C18.7049 27.6323 18.6656 27.8217 18.525 27.9186L14.7655 30.5013L18.1868 28.526C18.3325 28.4405 18.5212 28.4867 18.6124 28.6298C18.7036 28.773 18.6656 28.9617 18.5269 29.0592L15.891 30.9041L18.1868 29.5786C18.3318 29.4924 18.5187 29.5393 18.6111 29.6805C18.703 29.8218 18.6675 30.0105 18.5307 30.1093L16.6503 31.4703L18.1868 30.5837C18.3293 30.5007 18.5123 30.5419 18.6061 30.6774C18.6992 30.8136 18.6726 30.9991 18.5446 31.103L16.7548 32.5597L18.1868 31.7332C18.3242 31.6521 18.5028 31.6888 18.5985 31.818C18.6947 31.9466 18.6795 32.1265 18.5624 32.2373L17.5459 33.2006L18.1868 32.8314C18.3217 32.7522 18.4946 32.7851 18.5928 32.908C18.6903 33.0296 18.6846 33.2057 18.5782 33.3203L18.3325 33.585C18.4458 33.5882 18.5586 33.6376 18.6194 33.7434C18.7074 33.8947 18.6555 34.0885 18.5035 34.1759L16.9201 35.0898C16.7859 35.1684 16.613 35.1361 16.5142 35.0132C16.4166 34.8916 16.4223 34.7155 16.5287 34.6009L16.6921 34.4255L15.5395 35.0905C15.402 35.1709 15.2228 35.1348 15.1278 35.0056C15.0315 34.877 15.0467 34.6972 15.1639 34.5863L16.1798 33.6237L13.6395 35.0898C13.497 35.1741 13.3139 35.131 13.2202 34.9961C13.1271 34.8599 13.1537 34.6744 13.2816 34.5705L15.0714 33.1138L11.6483 35.0898C11.5026 35.1747 11.3158 35.1291 11.2239 34.9879C11.1321 34.8466 11.1676 34.6579 11.3044 34.5591L13.1854 33.1974L9.90723 35.0898C9.75967 35.1753 9.57283 35.1291 9.48163 34.986C9.39043 34.8428 9.42843 34.6541 9.56713 34.5566L12.2012 32.7129L8.0845 35.0898C8.0351 35.119 7.98 35.1323 7.92617 35.1323L7.92807 35.131Z" fill="var(--fill-0, white)"/>
<path id="Vector_16" d="M9.1181 14.231C9.01677 14.231 8.91733 14.1822 8.85653 14.0923C8.76343 13.9555 8.79067 13.7693 8.92113 13.6661L9.5266 13.1841L7.78747 14.1879C7.64687 14.2715 7.46447 14.2304 7.3701 14.0955C7.27637 13.9618 7.2998 13.7775 7.42457 13.6718L9.72293 11.7293L6.56323 13.5533C6.41883 13.6395 6.23327 13.5932 6.14017 13.4533C6.0477 13.3127 6.08127 13.1252 6.21617 13.0251L7.57657 12.0137L6.51067 12.6287C6.38463 12.7028 6.2244 12.6793 6.1237 12.5736C6.023 12.4678 6.00653 12.3069 6.0857 12.1841L6.44353 11.6236C6.3365 11.621 6.23327 11.5647 6.17627 11.4652C6.08823 11.3139 6.14017 11.1201 6.29217 11.0327L7.1972 10.5102C7.3226 10.4361 7.48347 10.4595 7.58417 10.5653C7.68487 10.671 7.70133 10.8319 7.62217 10.9548L7.31817 11.431L12.0017 8.72733C12.1467 8.6431 12.3323 8.68743 12.4247 8.8274C12.5172 8.96737 12.4836 9.15547 12.3487 9.25553L10.9871 10.2682L12.4767 9.4088C12.6185 9.32583 12.8003 9.36763 12.894 9.50127C12.9878 9.6349 12.9643 9.8192 12.8396 9.92497L10.5399 11.8687L12.8909 10.5114C13.0334 10.4266 13.2183 10.4703 13.3108 10.6071C13.4039 10.7439 13.3766 10.9301 13.2462 11.0333L12.6413 11.5146L14.3235 10.5437C14.4615 10.4627 14.6401 10.5 14.7364 10.6299C14.832 10.7591 14.8149 10.9402 14.6971 11.0498L13.4153 12.2423L15.0106 11.3215C15.1379 11.2467 15.3007 11.2708 15.4008 11.3804C15.5015 11.4887 15.5141 11.6521 15.4305 11.7743L14.6306 12.946L15.0214 12.7211C15.1721 12.6318 15.3672 12.685 15.454 12.837C15.542 12.9884 15.4901 13.1822 15.3381 13.2696L13.7446 14.1892C13.6173 14.2639 13.4545 14.2392 13.3545 14.1303C13.2538 14.022 13.2411 13.8586 13.3247 13.7364L14.1246 12.5647L11.3113 14.1886C11.1733 14.269 10.9947 14.2323 10.8984 14.1024C10.8028 13.9732 10.8199 13.7927 10.9377 13.6825L12.2195 12.49L9.27707 14.1886C9.22767 14.2177 9.17193 14.231 9.1181 14.231Z" fill="var(--fill-0, #BECED3)"/>
<path id="Vector_17" d="M8.88567 10.6159C8.7989 10.6159 8.7134 10.5798 8.65133 10.5127C8.55127 10.4025 8.54113 10.2372 8.62727 10.1162L8.911 9.71597C8.82867 9.69633 8.75457 9.6444 8.70897 9.56587C8.62157 9.4145 8.6735 9.2207 8.8255 9.13267L9.7299 8.61143C9.85783 8.53733 10.0219 8.56267 10.1226 8.67287C10.2226 8.78307 10.2328 8.94837 10.1466 9.06933L9.98197 9.30113L11.1764 8.61207C11.3278 8.52277 11.5216 8.57533 11.609 8.72797C11.697 8.87933 11.6451 9.07313 11.4931 9.16053L9.04463 10.5735C8.99523 10.6026 8.94077 10.6159 8.8863 10.6159H8.88567Z" fill="var(--fill-0, #BECED3)"/>
<g id="Group">
<path id="Vector_18" d="M37.8252 17.6415C37.9975 15.6205 37.4306 13.4013 35.473 12.4292C34.7478 11.8965 33.6591 11.8718 32.7617 11.8433C32.7528 11.2569 32.7604 10.6767 32.7579 10.0909C33.4571 9.50633 33.9277 8.67603 34.0087 7.7045C34.8732 7.42647 35.6142 6.29407 35.1386 5.39537C35.8536 3.26547 34.2963 0.903133 31.9897 0.9937C28.9072 -1.12543 24.3992 1.8772 25.6652 5.57777C25.1744 6.46127 25.8628 7.60697 26.7792 7.7957C26.8204 8.8141 27.31 9.67797 28.0427 10.2524C28.0339 10.7787 28.0491 11.3082 28.037 11.8351C27.3315 11.8788 26.6513 12.0086 26.0154 12.2525C25.7279 12.1676 25.3061 12.3544 25.2934 12.5951C22.23 14.2532 23.0882 18.0779 22.9735 20.9659C23.1933 21.9665 22.3782 23.8355 23.605 24.2484C23.3637 25.8147 24.0667 27.6304 25.9097 27.5196C25.776 29.9294 25.6418 32.3393 25.5081 34.7491C24.32 34.8086 22.6208 37.012 24.2921 37.5427C25.4594 37.5605 26.6361 37.5636 27.804 37.5389C30.7572 37.2299 29.4608 31.8845 30.3905 29.647C31.255 31.9732 30.2974 36.0766 32.1974 37.563C33.6718 37.6523 35.5015 37.988 36.86 37.347C37.8385 36.2938 36.5003 34.6237 35.2849 34.5654C35.1519 32.1721 35.0189 29.7787 34.8859 27.3853C36.6599 27.3233 37.4547 25.6861 37.1919 24.0895C38.6409 22.591 37.468 19.6384 37.8252 17.6434V17.6415ZM34.4666 12.6641C33.756 13.4982 33.0758 14.3627 32.3551 15.1867C31.7984 14.8555 31.4013 14.2506 30.9048 13.8219C31.4349 13.2918 31.9656 12.761 32.4957 12.2309C33.1664 12.243 33.8618 12.3278 34.4666 12.6641ZM28.64 15.1493C28.6127 15.1582 28.6001 15.1601 28.6127 15.1633C27.7552 14.4134 27.1181 13.3722 26.334 12.5261C26.9072 12.2981 27.5025 12.2582 28.1276 12.2537C28.6989 12.8231 29.2682 13.3944 29.8382 13.9644C29.4361 14.3545 29.0529 14.7738 28.64 15.1493ZM26.9059 2.26227C27.7033 0.7315 29.9725 0.513 31.2734 1.47757C33.143 1.45857 34.6516 2.92917 34.345 4.87223C34.0841 4.83043 33.801 4.8545 33.5337 4.93113C32.8377 3.6138 31.3386 4.1002 30.2125 4.3681C29.1675 4.13757 27.7628 3.70817 27.0617 4.8374C26.8673 4.83867 26.6735 4.8773 26.4873 4.93937C26.3239 4.0489 26.4784 3.04 26.9059 2.26227ZM27.417 7.3606C26.6633 7.2276 26.3258 6.31053 26.4974 5.60057C26.555 5.5499 26.5835 5.491 26.588 5.42767C26.6671 5.33647 26.783 5.29783 26.9597 5.377C27.8014 5.7304 27.7381 4.46627 28.4272 4.55873C29.4836 4.87667 30.5032 4.91847 31.5299 4.49667C32.1277 4.48653 32.5483 4.94443 32.7718 5.44857C33.414 5.94573 34.0398 4.541 34.371 6.12117C34.3457 6.5474 34.1823 7.1839 33.7503 7.35997C33.5439 7.372 33.1126 7.44927 33.1075 7.72223C33.0955 11.5735 27.6083 11.1251 27.6919 7.47587C27.69 7.36883 27.4791 7.3644 27.417 7.3606ZM30.4627 10.9966C30.9485 10.9662 31.4146 10.849 31.8408 10.6615V12.0986L30.4988 13.4406C29.9839 12.927 29.4734 12.4121 28.956 11.901C28.9649 11.526 28.9547 11.1441 28.9579 10.7673C29.424 10.944 29.9351 11.0295 30.4627 10.9966ZM24.1002 15.041C24.3586 14.2335 24.871 13.5134 25.5455 12.9979C27.0104 14.7339 28.3632 17.3901 30.3563 14.5071C32.2753 17.3071 33.6889 14.7453 35.0993 13.0448C38.1609 15.504 36.5402 20.1394 36.9075 23.5568C36.9151 23.4973 36.853 23.788 36.9132 23.8754C36.1944 23.933 35.4242 23.8393 34.6908 23.8741C35.1171 15.7466 33.4159 13.2899 33.7345 23.313C31.6394 23.9216 29.1245 23.9622 27.0585 23.2408C27.3999 13.3735 25.7178 16.0892 26.1136 23.8469C25.5569 23.8165 25.0756 23.9153 24.4606 23.8678C24.3897 23.8 24.275 23.7785 24.1661 23.7829C23.5492 21.1603 23.8399 17.8195 24.0996 15.0404L24.1002 15.041ZM25.8976 26.9319C24.636 26.733 24.4169 25.3555 24.5271 24.2871C25.0477 24.2852 25.5683 24.2871 26.0895 24.2864C26.0408 25.1699 25.9914 26.0534 25.9426 26.9363C25.9274 26.935 25.9128 26.9338 25.8976 26.9319ZM28.6165 36.5832C28.5367 36.822 28.3752 37.0728 28.146 37.1843C27.0832 36.9189 24.1781 37.9937 24.5898 36.1355C24.7133 35.6978 25.0692 35.1291 25.5569 35.0354C26.4936 35.3736 27.6634 35.0721 28.6748 35.1696C28.652 35.6402 28.7324 36.1241 28.6172 36.5839L28.6165 36.5832ZM28.7255 34.4983H26.448C26.6412 31.0169 26.835 27.5348 27.0281 24.0534C29.2055 24.5524 31.5995 24.5816 33.7649 24.004C33.7814 24.0774 33.7522 24.1642 33.7769 24.2263C33.9669 27.6507 34.1576 31.0745 34.3476 34.4983H32.0923C30.6768 23.6639 30.1536 23.7228 28.7255 34.4983ZM36.2514 37.0677C36.2419 37.0658 36.2298 37.0677 36.2197 37.0658C36.2222 37.0532 36.2919 37.0772 36.2514 37.0677ZM35.9075 35.7561C36.1697 36.1076 36.3565 36.5877 36.2134 37.0209C36.2172 37.0076 36.1887 37.0557 36.1823 37.0639C34.5629 36.9613 31.6147 37.7942 32.1284 35.169C33.3659 35.3349 34.9834 34.6927 35.9075 35.7561ZM35.2868 27.037C35.2824 27.0383 35.2811 27.0389 35.2786 27.0395C35.276 27.0395 35.2792 27.0389 35.2868 27.037ZM35.2798 27.0395C35.2874 27.037 35.2944 27.0345 35.3033 27.0332C35.2969 27.0364 35.2868 27.0389 35.2798 27.0395ZM35.3039 27.0326C35.3039 27.0326 35.3007 27.0326 35.2988 27.0332C35.3045 27.0313 35.3096 27.0294 35.3096 27.0294C35.3096 27.0307 35.3058 27.0313 35.3039 27.0326ZM36.0044 26.4056C35.7637 26.809 35.3565 27.1295 34.8675 27.0516C34.8156 26.1212 34.7643 25.1902 34.7124 24.2598C35.2361 24.2554 35.7453 24.2655 36.2742 24.2693C36.2425 24.985 36.4078 25.7659 36.0044 26.4056Z" fill="var(--fill-0, #262626)"/>
<path id="Vector_19" d="M0.1748 35.0246C0.219133 39.361 6.27633 36.9816 9.0497 37.5516C12.3595 36.9069 19.7119 39.2293 21.3091 35.7935C21.4288 28.1783 21.3661 20.4909 21.3319 12.8687C20.7296 10.3024 17.4566 11.4614 15.573 11.2151C15.2355 10.3936 13.9815 10.5057 13.1277 10.5374C13.483 8.93317 12.148 8.3923 10.7838 8.64437C9.53863 8.47273 8.1225 9.04273 8.40053 10.5311C7.53477 10.5133 6.4752 10.5488 6.05783 11.2106C3.95073 11.2619 0.3002 10.5659 0.1748 13.5989C0.1501 20.7404 0.189367 27.8831 0.1748 35.0246ZM14.8713 14.1449C16.1196 14.2715 18.3622 13.4894 17.9075 15.5509C17.9347 21.7829 17.8043 28.0212 17.9075 34.2519C17.9132 34.5813 17.9734 34.5464 17.739 34.6212C13.3222 34.6433 8.8388 34.606 4.39913 34.6212C3.9843 34.6212 3.7183 34.6528 3.6252 34.0765C3.61697 27.4398 3.6423 20.7721 3.61443 14.1442C7.32767 14.1335 11.1283 14.1892 14.8713 14.1449ZM7.18897 10.989C9.39803 10.823 9.12317 11.5767 9.4582 9.2606C9.8705 8.90467 11.8984 8.9034 12.1207 9.5437C12.3012 9.92433 12.2081 10.4798 12.2081 10.8895C12.9555 11.2328 14.6528 10.4665 14.7415 11.8395C15.2538 14.5565 13.1841 13.5369 11.3968 13.7104C9.99147 13.3703 6.69877 14.7098 6.79187 12.4798C6.79187 12.0587 6.6424 11.1036 7.18897 10.989ZM1.0925 13.2493C1.1476 10.7021 4.256 11.7775 5.90583 11.5849C5.86593 12.2493 5.6696 13.1512 6.09837 13.7218C4.9894 13.8599 3.0172 13.2145 2.70813 14.7161C2.6885 21.097 2.72207 27.4981 2.70813 33.8865C2.4966 36.1247 7.73427 34.6446 9.23717 35.0455C11.9491 35.0455 14.6845 35.15 17.3951 35.0455C19.5187 35.0601 18.6789 32.5508 18.8258 31.186C18.8075 25.6424 18.8524 20.0874 18.8258 14.5502C18.4883 13.053 16.3647 13.9599 15.2545 13.7224C15.8637 13.236 15.6636 12.2613 15.6566 11.578C22.845 10.2568 19.8563 16.9201 20.4415 21.3788C19.9038 24.2275 21.743 36.6662 19.2812 37.183C-6.12687 37.0076 2.58653 41.2167 1.0925 13.2493Z" fill="var(--fill-0, #262626)"/>
<path id="Vector_20" d="M10.3075 19.8518C10.0966 20.5884 10.8895 20.7784 11.2265 20.2109C11.2265 19.6783 11.2265 19.1457 11.2265 18.613C13.6661 18.7669 13.718 17.8936 11.2265 18.1197C11.0707 17.575 11.6274 16.2013 10.8281 16.2057C9.91483 16.2881 10.4354 17.4958 10.3075 18.1197C7.8679 17.9658 7.81597 18.8391 10.3075 18.613V19.8518Z" fill="var(--fill-0, #262626)"/>
<path id="Vector_21" d="M5.91217 24.2655C6.7222 24.8647 7.8945 22.5543 8.02117 21.9678C7.15033 21.4244 6.77033 22.9216 6.3004 23.4137C6.08317 22.9406 5.07363 23.0654 5.27883 23.6322C5.49037 23.8431 5.70127 24.0546 5.91217 24.2655Z" fill="var(--fill-0, #262626)"/>
<path id="Vector_22" d="M10.3271 23.23C7.94643 23.9406 14.9707 23.5461 15.6395 23.6366C18.0202 22.926 10.9966 23.3206 10.3271 23.23Z" fill="var(--fill-0, #262626)"/>
<path id="Vector_23" d="M5.9033 28.0313C7.0414 28.2973 7.37263 26.6133 8.0199 25.9483C7.5563 25.1199 6.63733 26.8008 6.327 27.265C6.14777 26.8736 5.23703 26.9908 5.26997 27.398C5.4815 27.6089 5.6924 27.8204 5.9033 28.0313Z" fill="var(--fill-0, #262626)"/>
<path id="Vector_24" d="M16.0031 26.9401C13.9669 27.1459 11.564 26.517 9.70077 27.2042C9.17637 27.8122 17.9974 27.7622 16.0031 26.9401Z" fill="var(--fill-0, #262626)"/>
<path id="Vector_25" d="M7.68487 29.595C6.95273 29.6881 6.7621 30.5792 6.32953 31.0739C6.15093 30.697 5.2877 30.8313 5.26807 31.1904C5.54293 31.3893 5.73673 31.8389 6.0857 31.8548C6.58097 32.1613 8.70833 29.1865 7.68487 29.595Z" fill="var(--fill-0, #262626)"/>
<path id="Vector_26" d="M16.1323 30.8503C14.0397 30.982 11.811 30.5773 9.7831 31.0238C10.6989 31.5888 13.3494 31.02 14.8282 31.2164C15.1405 31.2461 16.58 31.2252 16.1323 30.8503Z" fill="var(--fill-0, #262626)"/>
</g>
</g>
<defs>
<clipPath id="clip0_0_4">
<rect width="38" height="38" fill="white"/>
</clipPath>
</defs>
</svg>
