<svg preserveAspectRatio="none" width="100%" height="100%" overflow="visible" style="display: block;" viewBox="0 0 35 35" fill="none" xmlns="http://www.w3.org/2000/svg">
<g id="clinic_1713575 1" clip-path="url(#clip0_0_4)">
<path id="Vector" d="M4.71585 34.7628C4.58505 34.7628 4.47007 34.6762 4.43416 34.5502C4.39824 34.4245 4.45024 34.29 4.56147 34.2211L6.22428 33.1871L3.56362 34.7212C3.42639 34.7965 3.25406 34.7507 3.17258 34.617C3.0911 34.4832 3.12916 34.309 3.25915 34.2216L8.71796 30.7398L1.81183 34.7212C1.67433 34.7981 1.50066 34.7523 1.41891 34.6178C1.33716 34.483 1.37629 34.3077 1.50789 34.2211L6.74129 30.8837L0.70865 34.3698C0.57169 34.4492 0.396404 34.4052 0.313049 34.2707C0.229694 34.1359 0.268557 33.9592 0.400692 33.8721L7.87583 28.9105L0.728751 33.0367C0.592328 33.1026 0.428299 33.0541 0.350036 32.9244C0.272042 32.7947 0.305544 32.6269 0.427763 32.5371L3.30659 30.6963L0.791201 32.145C0.655313 32.2206 0.484047 32.1766 0.401228 32.045C0.31841 31.9134 0.352984 31.74 0.479759 31.6502L5.79785 28.0054L0.983373 30.7867C0.847485 30.8673 0.671931 30.8255 0.586968 30.692C0.502005 30.5588 0.538456 30.3819 0.668983 30.293L4.54029 27.5843L1.22647 29.4977C1.09005 29.5771 0.915563 29.5339 0.831672 29.4005C0.747781 29.267 0.7845 29.0912 0.914759 29.0024L1.66442 28.4919L1.43017 28.6267C1.29481 28.7039 1.12301 28.6615 1.03885 28.5307C0.954694 28.3997 0.987661 28.2257 1.1139 28.1349L1.52371 27.8422C1.41248 27.839 1.31277 27.773 1.26614 27.672C1.2195 27.5709 1.23424 27.4519 1.3042 27.3654L2.06538 26.4211C1.93914 26.4083 1.83568 26.3155 1.80888 26.1914C1.78208 26.0673 1.83836 25.9403 1.94825 25.8765L3.03374 25.2501C3.15569 25.1794 3.31088 25.2056 3.40281 25.3126C3.49608 25.4184 3.50064 25.5758 3.4138 25.6867L2.75044 26.5066L6.19212 24.52C6.32693 24.4455 6.49632 24.4881 6.57968 24.6176C6.6633 24.7473 6.63194 24.9194 6.50811 25.0111L6.4655 25.0421L8.15109 24.0692C8.28724 23.9926 8.45958 24.0363 8.54267 24.1687C8.62549 24.3008 8.59011 24.475 8.46199 24.5645L7.71421 25.0743L10.0768 23.7136C10.2124 23.6369 10.3842 23.6795 10.4681 23.8108C10.5518 23.9422 10.518 24.1161 10.3912 24.2067L6.52178 26.914L12.0653 23.7136C12.2009 23.639 12.3714 23.6827 12.4539 23.8138C12.5367 23.9449 12.503 24.1175 12.3773 24.2078L7.06077 27.8521L14.2304 23.7136C14.3673 23.6404 14.5378 23.6868 14.6187 23.8197C14.6994 23.9524 14.6624 24.1252 14.5343 24.2132L11.6501 26.0558L15.7093 23.7136C15.846 23.6382 16.0175 23.6833 16.0998 23.8157C16.1818 23.9483 16.1457 24.122 16.0173 24.2107L8.5416 29.1718L17.9988 23.7136C18.1363 23.6369 18.3099 23.6825 18.3917 23.8173C18.4734 23.9518 18.434 24.1271 18.3027 24.2137L13.0677 27.5511L19.7141 23.7136C19.8513 23.6404 20.0218 23.6868 20.1025 23.8197C20.1831 23.9524 20.1462 24.1252 20.018 24.2132L14.56 27.6999L21.4688 23.7136C21.6069 23.6377 21.7803 23.6846 21.8612 23.8194C21.9422 23.9545 21.902 24.1295 21.7698 24.2156L20.1135 25.2453L22.7642 23.7136C22.9014 23.6412 23.0716 23.6886 23.1518 23.8218C23.2316 23.955 23.1936 24.1277 23.0652 24.2148L20.7229 25.6757L24.1236 23.7136C24.2606 23.6372 24.4332 23.6819 24.5157 23.8154C24.598 23.9486 24.5607 24.1234 24.431 24.2113L17.0561 29.0418L25.8971 23.9355C25.9869 23.8819 26.0984 23.88 26.1898 23.9309C26.2814 23.9816 26.3388 24.0775 26.3404 24.1821C26.342 24.2866 26.2879 24.3841 26.1981 24.438L25.3016 24.9942L26.7824 24.1394C26.9201 24.0606 27.0957 24.1059 27.178 24.2418C27.2603 24.3777 27.2193 24.5543 27.0858 24.6398L22.9872 27.2431L27.9124 24.3994C28.0493 24.3238 28.2211 24.3694 28.3031 24.5023C28.3849 24.6356 28.3476 24.8095 28.2187 24.8977L21.9818 28.9831L29.3482 24.7302C29.4857 24.6519 29.6604 24.6969 29.7427 24.832C29.8252 24.9668 29.7856 25.1429 29.6532 25.2295L24.6353 28.4779L30.6199 25.0234C30.7563 24.947 30.9287 24.9912 31.0115 25.1242C31.0941 25.2568 31.0579 25.4313 30.929 25.52L24.4884 29.8368L32.142 25.4182C32.2787 25.3426 32.4502 25.3876 32.5325 25.5203C32.6145 25.6527 32.5784 25.8264 32.45 25.9151L27.1852 29.3967L32.8365 26.1335C32.974 26.0512 33.1519 26.0947 33.2361 26.2311C33.3202 26.3672 33.279 26.546 33.1439 26.6318L29.1981 29.2297L33.1434 26.9521C33.2792 26.8714 33.4548 26.9132 33.5398 27.0464C33.6247 27.1799 33.5883 27.3565 33.4577 27.4458L28.6014 30.8416L33.473 28.0311C33.6076 27.9553 33.7778 27.9968 33.8622 28.1263C33.9463 28.2557 33.9158 28.4283 33.792 28.5208L29.7159 31.5009L33.7488 29.1724C33.8823 29.0979 34.0509 29.1386 34.1353 29.2662C34.22 29.3938 34.1921 29.5647 34.0712 29.6588L31.1439 31.8786L33.96 30.2533C34.0927 30.1774 34.2613 30.2166 34.347 30.3428C34.4331 30.4691 34.4076 30.6401 34.2886 30.7357L32.3846 32.2503L34.0943 31.2632C34.2219 31.1895 34.3843 31.2222 34.4735 31.3396C34.5628 31.457 34.5507 31.6224 34.4454 31.7258L33.0841 33.0584L34.2042 32.4144C34.3334 32.3382 34.4993 32.372 34.5883 32.4926C34.6775 32.6132 34.6609 32.7816 34.5502 32.8826L34.3856 33.0354C34.4926 33.0327 34.5923 33.0879 34.6464 33.1801C34.7003 33.2723 34.6998 33.3865 34.6451 33.4781L34.4508 33.8049C34.5671 33.8333 34.6542 33.9295 34.6711 34.048C34.688 34.1664 34.6311 34.2833 34.5274 34.343L33.8571 34.7293C33.7416 34.7963 33.5955 34.7767 33.502 34.6818C33.4082 34.5867 33.3905 34.4403 33.4588 34.3259L33.5671 34.1356L32.5508 34.7212C32.4216 34.7973 32.2557 34.7636 32.1667 34.643C32.0777 34.5224 32.094 34.3538 32.2047 34.2527L32.2527 34.2077L31.365 34.7199C31.2374 34.7936 31.075 34.7609 30.9858 34.6435C30.8965 34.5261 30.9086 34.3607 31.0139 34.2575L32.3757 32.9255L29.2661 34.7212C29.1335 34.7968 28.9652 34.7577 28.8791 34.6317C28.7931 34.5055 28.8185 34.3345 28.9375 34.2388L30.8424 32.7239L27.3819 34.7212C27.2482 34.7973 27.0785 34.7569 26.9933 34.6288C26.9081 34.5006 26.9368 34.3283 27.0587 34.2345L29.9863 32.0166L25.3024 34.7218C25.1678 34.7976 24.9974 34.7561 24.9132 34.6266C24.8288 34.4974 24.8593 34.3246 24.9831 34.2324L29.0576 31.2538L23.0486 34.7212C22.9143 34.789 22.7505 34.7443 22.6696 34.6172C22.5889 34.4905 22.6173 34.3229 22.7355 34.2299L27.595 30.8341L20.8529 34.7212C20.7162 34.7976 20.5434 34.7529 20.4611 34.6194C20.3788 34.4862 20.4161 34.3114 20.5455 34.2235L24.4919 31.6261L19.1287 34.7212C18.992 34.7965 18.8205 34.7515 18.7382 34.6191C18.6562 34.4864 18.6924 34.3128 18.8208 34.224L24.0904 30.7403L17.1917 34.7212C17.0564 34.7941 16.8875 34.7499 16.8053 34.6196C16.7232 34.4894 16.7559 34.3179 16.8803 34.227L23.3209 29.9118L14.9881 34.7212C14.8508 34.7979 14.6777 34.7526 14.5957 34.6186C14.5137 34.4846 14.5517 34.3098 14.6825 34.2222L19.7012 30.974L13.2081 34.7212C13.0714 34.7955 12.9007 34.7499 12.819 34.6175C12.7375 34.4854 12.7734 34.3122 12.9012 34.2235L19.1381 30.1413L11.2052 34.7212C11.0677 34.7955 10.8962 34.7491 10.8152 34.6156C10.7343 34.4822 10.7723 34.3085 10.9018 34.2211L15.0068 31.6181L9.62601 34.7212C9.48825 34.7947 9.31698 34.7472 9.23685 34.6132C9.15671 34.4792 9.19584 34.3061 9.32556 34.2195L10.2245 33.6615L8.3907 34.7212C8.25401 34.7955 8.08301 34.7499 8.00153 34.6175C7.91979 34.4854 7.95597 34.3122 8.08382 34.2235L15.4528 29.3929L6.22428 34.7212C6.08651 34.7957 5.91471 34.7488 5.83404 34.6146C5.75309 34.4805 5.79223 34.3066 5.92275 34.22L8.26473 32.759L4.86246 34.7212C4.81797 34.7478 4.76758 34.762 4.71585 34.7628Z" fill="var(--fill-0, #CAD0D7)"/>
<path id="Vector_2" d="M11.7825 10.2412C11.6525 10.2414 11.5381 10.1559 11.5014 10.0316C11.4644 9.90693 11.514 9.77319 11.623 9.7027L13.7771 8.30898L10.5885 10.1506C10.4521 10.2283 10.2786 10.1846 10.1956 10.0514C10.1122 9.91846 10.1487 9.74317 10.2781 9.65446L15.7018 5.98228L10.2309 9.14414C10.0926 9.22803 9.91253 9.18381 9.82864 9.04578C9.74475 8.90748 9.7887 8.72737 9.927 8.64348L10.581 8.22724L10.0634 8.52528C9.927 8.59872 9.75708 8.55315 9.6756 8.42129C9.59412 8.28969 9.62923 8.11735 9.75601 8.0281L12.7203 6.06885L9.90127 7.692C9.76458 7.76731 9.59305 7.72255 9.51076 7.58988C9.42875 7.45721 9.46493 7.28353 9.59332 7.19482L11.8597 5.69014L9.83159 6.86113C9.69677 6.93993 9.5239 6.89892 9.43867 6.76812C9.35344 6.63733 9.38587 6.46258 9.51237 6.37118L13.3534 3.5725L9.87715 5.57703C9.74207 5.65342 9.57107 5.61134 9.48718 5.48081C9.40302 5.35056 9.43518 5.17741 9.56035 5.08602L11.3229 3.82122L10.1095 4.52371C9.98061 4.59473 9.81926 4.55909 9.73242 4.44035C9.64531 4.32162 9.66005 4.15678 9.76646 4.05547L11.2304 2.72447C11.0991 2.76655 10.9567 2.71134 10.8879 2.59234C10.8069 2.45243 10.8546 2.27339 10.9943 2.19245L13.273 0.876194C13.4019 0.805168 13.5635 0.841083 13.6504 0.959549C13.7372 1.07828 13.7227 1.24312 13.6163 1.34443L12.1741 2.65613L16.1596 0.35221C16.2947 0.275824 16.4657 0.317904 16.5496 0.44843C16.6337 0.578689 16.6016 0.751831 16.4764 0.843227L14.7141 2.10856L17.8173 0.319244C17.9516 0.243393 18.122 0.284937 18.2062 0.414392C18.2906 0.543846 18.2601 0.716453 18.1363 0.80892L14.2936 3.60922L19.7007 0.48783C19.8374 0.410103 20.0113 0.454327 20.0942 0.58807C20.1772 0.721545 20.1397 0.8971 20.0092 0.985011L17.7439 2.48862L20.8221 0.711092C20.9591 0.63149 21.1344 0.675445 21.2177 0.81026C21.3011 0.944807 21.2622 1.12143 21.1301 1.20881L18.1633 3.16966L21.8401 1.04719C21.9775 0.972682 22.1491 1.01905 22.23 1.15279C22.311 1.28627 22.2729 1.45968 22.1435 1.54705L21.493 1.96168L22.4919 1.38544C22.6283 1.30771 22.8017 1.3514 22.8851 1.4846C22.9682 1.61754 22.9317 1.79283 22.8023 1.88154L17.3804 5.5513L23.4434 2.05013C23.5803 1.97562 23.7513 2.02172 23.8328 2.15466C23.914 2.2876 23.877 2.46101 23.7484 2.54892L21.5819 3.95014L23.9497 2.58349C24.085 2.50738 24.256 2.55026 24.3396 2.68105C24.4232 2.81158 24.3906 2.98499 24.2648 3.07585L19.497 6.43605L24.5506 3.52264C24.6856 3.44653 24.8569 3.48941 24.9405 3.6202C25.0242 3.75073 24.9912 3.92414 24.8655 4.015L21.4415 6.42908L24.8824 4.44303C25.0156 4.36745 25.1844 4.40712 25.2699 4.53416C25.3552 4.66093 25.3286 4.8322 25.2086 4.92735L21.8853 7.50921L25.0469 5.68558C25.1777 5.61 25.3444 5.64672 25.4318 5.76974C25.5192 5.89303 25.4986 6.06242 25.3841 6.16079L23.1745 8.05383L24.9896 7.0064C25.115 6.93349 25.2748 6.96378 25.3653 7.07689C25.4557 7.19026 25.4495 7.35268 25.3509 7.45882L24.2576 8.63919L24.7261 8.37117C24.84 8.30443 24.9848 8.32346 25.0775 8.41753C25.1705 8.51054 25.1903 8.6542 25.1255 8.76864L24.7494 9.42744C24.7687 9.44674 24.7856 9.46818 24.7993 9.49177C24.8802 9.63194 24.8323 9.81098 24.6921 9.89165L24.3179 10.1071C24.2037 10.1725 24.0598 10.1535 23.9665 10.0608C23.873 9.96804 23.8532 9.82438 23.9175 9.70967L24.0821 9.41699L22.8695 10.1195C22.7441 10.1921 22.5846 10.1624 22.494 10.0493C22.4034 9.93615 22.4093 9.77373 22.5077 9.66759L23.602 8.48641L20.7446 10.1299C20.6141 10.2039 20.4487 10.1672 20.3619 10.0447C20.2751 9.92248 20.2946 9.75416 20.4075 9.65526L22.6141 7.76061L18.4777 10.1482C18.3445 10.2243 18.1751 10.1846 18.0893 10.057C18.0039 9.92971 18.0312 9.75791 18.1521 9.6633L21.4742 7.08546L16.1328 10.1693C15.9974 10.2452 15.8264 10.2026 15.7428 10.0718C15.6592 9.94097 15.6919 9.76783 15.8176 9.6767L19.24 7.26102L14.1805 10.1822C14.0449 10.2613 13.8709 10.2194 13.7863 10.087C13.7016 9.95464 13.7367 9.77909 13.8656 9.68903L18.6369 6.32964L11.9289 10.2015C11.8844 10.2272 11.8337 10.2412 11.7825 10.2412Z" fill="var(--fill-0, #636C77)"/>
<path id="Vector_3" d="M14.9061 34.7668C14.7774 34.7671 14.6638 34.6834 14.6257 34.5607C14.5876 34.4379 14.6343 34.3047 14.7404 34.2324L18.2855 31.8011L13.4167 34.6116C13.2805 34.6893 13.1074 34.6462 13.0237 34.5138C12.9401 34.3811 12.9758 34.2061 13.1044 34.1168L18.6123 30.33L12.6308 33.7842C12.4944 33.8622 12.321 33.8183 12.2376 33.6853C12.1543 33.5521 12.191 33.3771 12.3204 33.2884L18.0982 29.375L12.0396 32.8697C11.9031 32.9432 11.7332 32.8979 11.6517 32.766C11.5702 32.6344 11.6054 32.4618 11.7321 32.3728L16.6461 29.1319L11.6067 32.0407C11.4705 32.1161 11.299 32.0718 11.2167 31.9397C11.1342 31.8076 11.1696 31.6341 11.2971 31.5449L15.939 28.4165L11.2138 31.1437C11.0771 31.2203 10.9042 31.1756 10.8219 31.0421C10.7396 30.9086 10.7769 30.7341 10.9064 30.646L13.2901 29.0716L10.9803 30.4047C10.8447 30.4795 10.6742 30.4356 10.5914 30.3048C10.5089 30.1737 10.5424 30.0011 10.6681 29.9108L13.6115 27.8824L10.7268 29.5476C10.593 29.6248 10.4226 29.5851 10.3368 29.4567C10.251 29.3284 10.2797 29.1555 10.4025 29.0617L13.7721 26.4913L10.4639 28.4007C10.332 28.4758 10.1647 28.4374 10.0784 28.3128C9.99213 28.1882 10.0152 28.018 10.1318 27.9212L12.4711 26.0035L10.2765 27.2707C10.1465 27.3458 9.98088 27.3104 9.89297 27.1887C9.80505 27.067 9.82328 26.8987 9.93504 26.7988L11.2325 25.6422L10.1519 26.2659C10.0246 26.3375 9.86375 26.3043 9.7753 26.1882C9.68686 26.0719 9.69758 25.9081 9.8005 25.8044L10.2623 25.3472L10.0798 25.4519C9.98088 25.509 9.85759 25.5031 9.76431 25.4372C9.67131 25.3713 9.62494 25.2568 9.64585 25.1445L9.78415 24.4109C9.7158 24.389 9.65845 24.3418 9.62307 24.2794C9.54239 24.1394 9.5901 23.9609 9.72974 23.88L10.0224 23.7119C10.1213 23.6549 10.2446 23.6608 10.3376 23.7267C10.4309 23.7929 10.4773 23.9071 10.4563 24.0194L10.3392 24.6264L11.9275 23.7095C12.0551 23.6358 12.2175 23.668 12.307 23.7851C12.3966 23.902 12.3853 24.0673 12.2808 24.1711L11.8187 24.6289L13.4137 23.7079C13.5437 23.6329 13.7093 23.6683 13.7972 23.7897C13.8852 23.9114 13.8669 24.0797 13.7549 24.1796L12.4569 25.3367L15.2826 23.7055C15.4145 23.6305 15.5817 23.6685 15.668 23.7932C15.7543 23.9181 15.731 24.088 15.6144 24.185L13.2725 26.1038L17.4295 23.7031C17.5632 23.6259 17.734 23.6658 17.8195 23.7942C17.9052 23.9226 17.8765 24.0952 17.7541 24.189L14.3861 26.7583L19.6849 23.6991C19.821 23.6214 19.9942 23.6645 20.0778 23.7969C20.1614 23.9296 20.1258 24.1046 19.9971 24.1939L17.0518 26.2225L21.4262 23.6972C21.5629 23.6208 21.7358 23.6656 21.8181 23.7991C21.9006 23.9323 21.8634 24.107 21.7336 24.1949L19.3442 25.7757L22.9432 23.698C23.0319 23.6425 23.1434 23.6385 23.2359 23.6876C23.3281 23.7366 23.3873 23.8315 23.3911 23.936C23.3946 24.0405 23.3423 24.1389 23.2536 24.1944L18.6107 27.3233L24.8942 23.6932C25.0311 23.6139 25.2067 23.6578 25.29 23.7924C25.3734 23.9272 25.3343 24.1038 25.2021 24.1909L20.2898 27.43L24.865 24.7886C25.0014 24.7109 25.1748 24.7546 25.2581 24.8878C25.3412 25.0207 25.3048 25.196 25.1753 25.2847L19.3981 29.1992L24.7395 26.1142C24.8757 26.0365 25.0488 26.0797 25.1324 26.2123C25.2161 26.3447 25.1804 26.5197 25.0518 26.609L19.545 30.3972L24.5313 27.5195C24.6669 27.4428 24.839 27.486 24.9226 27.6178C25.0059 27.7497 24.9714 27.9236 24.8438 28.0137L21.2973 30.4471L24.2769 28.7266C24.4139 28.6503 24.5867 28.695 24.669 28.8285C24.7513 28.9617 24.7141 29.1364 24.5843 29.2244L24.1804 29.4913C24.3123 29.4766 24.4377 29.5522 24.486 29.6757C24.5345 29.7993 24.4935 29.94 24.3865 30.0185L22.4935 31.3897L23.6934 30.6969C23.8242 30.6213 23.9915 30.658 24.0788 30.7816C24.1659 30.9049 24.145 31.0748 24.0301 31.1729L22.3254 32.6309L22.9502 32.2702C23.0802 32.1951 23.2458 32.2305 23.334 32.3522C23.4219 32.4739 23.4037 32.6422 23.2917 32.7422L22.5165 33.4331C22.542 33.4546 22.5634 33.4806 22.5798 33.5098C22.6605 33.6497 22.613 33.8287 22.4731 33.9097L21.0649 34.7212C20.9363 34.7893 20.7771 34.7526 20.6913 34.6349C20.6055 34.5173 20.6192 34.3543 20.7237 34.2527L20.7881 34.1943L19.8701 34.7212C19.7393 34.7952 19.5734 34.7585 19.4865 34.6357C19.3997 34.513 19.4198 34.3444 19.5332 34.2458L21.2359 32.7891L17.8867 34.7212C17.7519 34.7987 17.5801 34.7569 17.4954 34.6263C17.411 34.4958 17.4431 34.3219 17.5689 34.2305L19.4619 32.8593L16.2362 34.7263C16.0998 34.7998 15.9299 34.7545 15.8484 34.6226C15.7669 34.491 15.8023 34.3184 15.9288 34.2294L16.0063 34.1785L15.0548 34.7271C15.0098 34.7534 14.9583 34.7671 14.9061 34.7668Z" fill="var(--fill-0, #A9B0BB)"/>
<path id="Vector_4" d="M20.7905 28.1048C20.6691 28.1048 20.5605 28.0301 20.5171 27.9169C20.4737 27.8036 20.5045 27.6755 20.5948 27.5945L22.5675 25.8215L20.3595 27.0963C20.226 27.1702 20.058 27.1295 19.9735 27.0022C19.8891 26.8751 19.9165 26.7047 20.0363 26.6101L20.9205 25.9387L19.9098 26.524C19.7771 26.6028 19.6058 26.565 19.5187 26.4375C19.4316 26.3099 19.4584 26.1367 19.5801 26.0416L20.9888 24.9146L19.2435 25.9215C19.111 25.9955 18.9443 25.9561 18.8588 25.8309C18.7736 25.7058 18.798 25.5358 18.9151 25.4396L20.0749 24.5128L18.3769 25.4948C18.2437 25.572 18.0735 25.5326 17.9875 25.4053C17.9015 25.2777 17.9288 25.1051 18.0502 25.0105L18.597 24.5849L17.0928 25.4528C16.954 25.5254 16.7822 25.4755 16.7037 25.3396C16.6251 25.204 16.6678 25.0303 16.8002 24.9462L21.9738 21.9602C22.1067 21.883 22.2769 21.9221 22.363 22.0497C22.449 22.1773 22.4217 22.3496 22.3005 22.4442L21.754 22.8687L23.1542 22.0615C23.2866 21.9862 23.4543 22.025 23.5404 22.151C23.6262 22.2767 23.6012 22.4472 23.483 22.5434L22.3228 23.4702L24.0381 22.4793C24.1708 22.4024 24.3407 22.4407 24.427 22.5675C24.5136 22.6945 24.4876 22.8666 24.3672 22.962L22.9585 24.0891L24.6243 23.1282C24.7577 23.0526 24.9269 23.0931 25.0121 23.2207C25.0971 23.3482 25.0692 23.52 24.948 23.6141L24.0646 24.2863L24.7084 23.9156C24.8373 23.8465 24.9974 23.8829 25.0834 24.0011C25.1697 24.1191 25.1555 24.2826 25.0504 24.3841L22.3279 26.8298C22.3485 26.8494 22.3662 26.8719 22.3807 26.8966C22.4613 27.0365 22.4134 27.2155 22.2734 27.2965L20.9443 28.0633C20.898 28.0914 20.8446 28.1059 20.7905 28.1048Z" fill="var(--fill-0, #E4E8EB)"/>
<path id="Vector_5" d="M13.7281 28.2565C13.6134 28.2565 13.5094 28.1895 13.4619 28.0853C13.4142 27.9807 13.4322 27.8583 13.5072 27.7717L13.9798 27.2289L13.2773 27.6331C13.1406 27.7165 12.9624 27.6747 12.8769 27.5393C12.7916 27.4037 12.8308 27.2249 12.965 27.1378L14.2105 26.2858L12.782 27.1097C12.6472 27.1863 12.4762 27.1445 12.3917 27.0148C12.3073 26.8848 12.3387 26.7117 12.4633 26.6195L14.3464 25.2512L12.1963 26.4954C12.0629 26.575 11.8905 26.5364 11.8037 26.4077C11.7169 26.2788 11.7458 26.1046 11.8696 26.0105L13.7075 24.5803L11.5523 25.8216C11.4191 25.8961 11.251 25.8559 11.1661 25.7291C11.0811 25.6023 11.1079 25.4316 11.2274 25.3367L12.1449 24.6264L11.0283 25.2705C10.8967 25.3472 10.7284 25.3104 10.641 25.1858C10.5536 25.0609 10.5764 24.8902 10.6933 24.7929L11.4939 24.1236L10.4901 24.7026C10.3717 24.7712 10.221 24.7484 10.1283 24.6473C10.0356 24.5466 10.0251 24.3949 10.1031 24.2823L10.8806 23.1622L10.488 23.3887C10.3489 23.4613 10.1773 23.4118 10.0988 23.2759C10.0203 23.14 10.0626 22.9663 10.195 22.8822L11.7203 22.0041C11.8391 21.9355 11.9894 21.9583 12.0822 22.0591C12.1752 22.1601 12.1856 22.3118 12.1074 22.4244L11.3274 23.5439L14.0792 21.9561C14.2105 21.8811 14.3772 21.9183 14.4641 22.0419C14.5509 22.1657 14.5295 22.3354 14.4142 22.4332L13.6169 23.1041L15.6075 21.9561C15.7407 21.88 15.9101 21.9197 15.9956 22.047C16.0811 22.1746 16.054 22.3464 15.9331 22.4407L15.0173 23.1499L17.0819 21.9572C17.2148 21.8816 17.3836 21.9213 17.4691 22.0483C17.5546 22.1751 17.5278 22.3464 17.408 22.4415L15.5705 23.8717L18.8881 21.9572C19.0229 21.8806 19.1939 21.9221 19.2783 22.0521C19.3627 22.1821 19.3314 22.3552 19.2065 22.4472L17.3236 23.8149L20.5439 21.9572C20.6798 21.8816 20.8511 21.9256 20.9339 22.0572C21.0167 22.1888 20.9824 22.3619 20.8553 22.452L15.6345 26.0234C15.6597 26.1174 15.6367 26.218 15.5729 26.2917L14.4705 27.5586C14.5381 27.6972 14.4869 27.8641 14.3534 27.9411L13.8744 28.2174C13.8299 28.2434 13.7796 28.2568 13.7281 28.2565Z" fill="var(--fill-0, #E4E8EB)"/>
<path id="Vector_6" d="M17.5155 25.3906C17.3887 25.3903 17.2762 25.3083 17.2373 25.1874C17.1984 25.0665 17.2421 24.9341 17.3453 24.8602L17.5796 24.6916L16.5589 25.2769C16.4252 25.3531 16.2553 25.3126 16.1703 25.1845C16.0851 25.0564 16.1138 24.8843 16.2357 24.7905L18.5707 23.0234L15.1419 25.0025C15.0063 25.0791 14.834 25.0357 14.7506 24.9041C14.6672 24.7722 14.7018 24.598 14.8294 24.5082L16.2931 23.4954L14.2966 24.6506C14.1607 24.7261 13.9894 24.6822 13.9066 24.5506C13.8238 24.419 13.8581 24.2456 13.9851 24.1558L15.1156 23.3812L13.6402 24.233C13.507 24.3091 13.3376 24.2694 13.2521 24.1419C13.1666 24.0145 13.1939 23.8427 13.3145 23.7481L15.9055 21.7463L12.8919 23.486C12.7565 23.5619 12.5855 23.5192 12.5019 23.3884C12.4183 23.2577 12.4512 23.0845 12.5769 22.9937L12.8597 22.794L12.567 22.9636C12.433 23.0403 12.2625 23.0001 12.1773 22.8712C12.0921 22.7425 12.1216 22.5699 12.2443 22.4766L12.8838 21.9963L12.3821 22.2855C12.2529 22.3576 12.0907 22.3223 12.0034 22.2033C11.916 22.084 11.931 21.9186 12.0382 21.8173L13.0336 20.9055L12.522 21.1984C12.4177 21.2585 12.2872 21.2488 12.1931 21.1738C12.0988 21.0987 12.0602 20.9738 12.0956 20.8589L12.4301 19.7704C12.332 19.7235 12.2682 19.6262 12.2639 19.5177C12.2596 19.4089 12.3159 19.307 12.41 19.2529L12.7262 19.0711C12.8305 19.0108 12.961 19.0208 13.0554 19.0958C13.1492 19.1709 13.1878 19.2955 13.1524 19.4102L12.8739 20.3191L15.0401 19.0671C15.169 18.9953 15.3314 19.0307 15.4188 19.1497C15.5062 19.2687 15.4911 19.4341 15.3839 19.5356L14.3885 20.4477L16.7862 19.0642C16.92 18.9875 17.0904 19.028 17.1757 19.1566C17.2609 19.2853 17.2317 19.4579 17.1087 19.5514L16.4694 20.0315L18.1491 19.0618C18.2845 18.9859 18.4555 19.0285 18.5391 19.1593C18.6227 19.2901 18.5897 19.4633 18.464 19.5544L18.1791 19.7562L19.3839 19.0602C19.5174 18.984 19.6865 19.0237 19.7723 19.1513C19.8578 19.2786 19.8304 19.4504 19.7095 19.545L17.1205 21.5474L21.4308 19.0588C21.5669 18.9811 21.7401 19.0242 21.8237 19.1569C21.9073 19.2896 21.8717 19.4643 21.743 19.5536L20.6072 20.3311L22.2501 19.3834C22.3857 19.3067 22.5581 19.3499 22.6414 19.4818C22.7248 19.6136 22.6902 19.7876 22.5626 19.8774L21.096 20.8916L22.3472 20.1698C22.4809 20.0937 22.6508 20.1339 22.7358 20.262C22.821 20.3904 22.7923 20.5624 22.6704 20.6562L20.3389 22.4257L22.4777 21.1907C22.6128 21.1145 22.7838 21.1566 22.8679 21.2869C22.9518 21.4174 22.9196 21.5906 22.7945 21.682L22.5557 21.853L22.561 21.85C22.6902 21.7701 22.8593 21.8023 22.9499 21.9245C23.0405 22.0465 23.0228 22.2177 22.9087 22.3185L21.8028 23.3625C21.9105 23.3635 22.0105 23.4185 22.0692 23.5088C22.1502 23.6487 22.1024 23.8277 21.9625 23.9087L20.0357 25.0212C19.9063 25.1011 19.7372 25.0687 19.6466 24.9467C19.556 24.8245 19.5739 24.6535 19.6878 24.5527L20.6897 23.6066L17.6621 25.3531C17.6174 25.3782 17.567 25.3914 17.5155 25.3906Z" fill="var(--fill-0, #E3B692)"/>
<path id="Vector_7" d="M17.9197 28.2841C17.8055 28.2839 17.7021 28.2177 17.6544 28.1139C17.6066 28.0105 17.6233 27.8885 17.6972 27.8017L18.2059 27.2051L16.5841 28.1418C16.4598 28.2137 16.3016 28.1847 16.2108 28.0735C16.1199 27.9622 16.1234 27.8014 16.2188 27.694L17.1901 26.6026L15.4102 27.6302C15.2888 27.6996 15.1352 27.6733 15.0435 27.5674C14.9522 27.4616 14.9481 27.3059 15.0342 27.1957L15.7844 26.2423L15.4745 26.4217C15.3839 26.4747 15.2719 26.4753 15.1808 26.423C15.0896 26.3707 15.0336 26.2734 15.0339 26.1684C15.0339 26.0633 15.0905 25.9666 15.1818 25.9146L16.809 24.9778C16.9304 24.9076 17.0845 24.9336 17.1765 25.0397C17.2684 25.1456 17.2722 25.3019 17.1853 25.4123L16.4354 26.3619L18.4683 25.1909C18.5927 25.1191 18.7508 25.148 18.8417 25.2592C18.9325 25.3707 18.9291 25.5316 18.8336 25.6388L17.8623 26.7307L19.3847 25.8526C19.508 25.7811 19.6648 25.809 19.7559 25.9186C19.8473 26.0279 19.8465 26.1871 19.754 26.2957L19.2459 26.8918L19.9518 26.482C20.0427 26.4243 20.1577 26.4209 20.2518 26.4734C20.3456 26.5256 20.4032 26.6254 20.4016 26.7331C20.4002 26.8406 20.3399 26.9387 20.2448 26.9885L18.0655 28.2472C18.021 28.2723 17.9706 28.2849 17.9197 28.2841Z" fill="var(--fill-0, #EB5463)"/>
<path id="Vector_8" d="M5.93428 34.7341C5.81528 34.7341 5.7078 34.6617 5.66304 34.5513C5.61828 34.4406 5.64508 34.3141 5.73058 34.231L6.13744 33.836L4.97717 34.5057C4.84772 34.5856 4.67859 34.5534 4.588 34.4312C4.49741 34.309 4.51537 34.138 4.62928 34.0372L5.91739 32.8193L4.11628 33.8617C3.98576 33.9378 3.81878 33.9019 3.73087 33.7789C3.64296 33.6558 3.66306 33.4865 3.7775 33.3873L4.98762 32.3334L3.68772 33.0817C3.5596 33.1589 3.3937 33.127 3.30337 33.0075C3.21305 32.8882 3.22725 32.7199 3.33661 32.6175L4.56602 31.4364L3.64805 31.9635C3.52101 32.0332 3.36234 31.9997 3.27443 31.8845C3.18651 31.7695 3.1959 31.6073 3.29667 31.5034L3.87238 30.9276C3.76759 30.8858 3.69629 30.7877 3.68879 30.6752C3.68128 30.5629 3.73891 30.4559 3.837 30.4007L5.19373 29.6173C5.32078 29.5468 5.48052 29.58 5.5687 29.6958C5.65688 29.8113 5.64696 29.9743 5.54511 30.078L5.2787 30.3439L6.36419 29.7175C6.4923 29.6403 6.65821 29.6722 6.74853 29.7915C6.83885 29.911 6.82465 30.0794 6.71556 30.1817L5.48641 31.3661L7.29342 30.3235C7.42368 30.2487 7.58932 30.2849 7.67669 30.4071C7.76407 30.5294 7.74504 30.6977 7.63247 30.7971L6.42342 31.8523L7.77693 31.0705C7.90639 30.9906 8.07524 31.0228 8.1661 31.145C8.25669 31.267 8.23873 31.4382 8.12482 31.539L6.83671 32.7574L7.89057 32.1485C8.01869 32.0726 8.18325 32.1048 8.27331 32.2235C8.3631 32.3423 8.34969 32.5095 8.24195 32.6122L7.69277 33.145C7.82142 33.1533 7.9297 33.2447 7.95892 33.3704C7.9884 33.4961 7.93212 33.6261 7.82035 33.6907L6.08008 34.6955C6.03586 34.721 5.98547 34.7344 5.93428 34.7341Z" fill="var(--fill-0, #636C77)"/>
<path id="Vector_9" d="M17.34 22.4442C17.2127 22.4445 17.0998 22.3622 17.0609 22.241C17.0221 22.1196 17.066 21.9872 17.1695 21.9133L18.5351 20.9344L16.4319 22.148C16.2976 22.2234 16.128 22.1818 16.0438 22.0529C15.9594 21.924 15.9894 21.7519 16.1122 21.6592L19.3753 19.2585L15.4448 21.5273C15.3092 21.6042 15.1371 21.5616 15.0535 21.4303C14.9696 21.2989 15.0033 21.125 15.1304 21.0344L19.7559 17.7889L14.612 20.7586C14.4743 20.8436 14.2934 20.801 14.2084 20.6629C14.1234 20.5249 14.1663 20.3442 14.3041 20.2593L16.8377 18.5946L13.8651 20.3113C13.7281 20.3909 13.5525 20.3469 13.4692 20.2121C13.3858 20.0773 13.4247 19.9009 13.5571 19.8136L17.7299 17.0583L13.0307 19.7715C12.8932 19.8567 12.7128 19.8144 12.6276 19.6769C12.5424 19.5394 12.5847 19.359 12.7222 19.2738L18.0339 15.7579L12.225 19.1111C12.0886 19.1888 11.9152 19.1451 11.8318 19.0119C11.7488 18.879 11.7852 18.7037 11.9147 18.6152L18.3681 14.2473L11.6239 18.1419C11.4872 18.2212 11.3121 18.1778 11.2285 18.0438C11.1449 17.9095 11.1827 17.7334 11.314 17.6455L17.076 13.7713L11.3304 17.088C11.1942 17.1636 11.0227 17.1191 10.9401 16.987C10.8578 16.8551 10.8932 16.6815 11.0205 16.5922L16.8658 12.6582L11.2081 15.9264C11.0701 16.0074 10.893 15.9626 10.8099 15.8262C10.7268 15.6898 10.7686 15.5118 10.9037 15.4266L12.7549 14.2438L10.4041 15.5986C10.2677 15.674 10.0959 15.6292 10.0138 15.4965C9.93156 15.3639 9.96774 15.1902 10.0961 15.1015L15.4488 11.5539L9.7812 14.8262C9.64451 14.9042 9.47056 14.86 9.38774 14.7262C9.30466 14.5925 9.34218 14.4172 9.47271 14.3293L15.3228 10.4264L9.63995 13.7051C9.50246 13.79 9.32208 13.7474 9.23685 13.6099C9.15188 13.4724 9.1945 13.2918 9.33199 13.2068L13.8943 10.206L9.31457 12.8504C9.17761 12.9267 9.00501 12.882 8.92246 12.7485C8.84017 12.6153 8.87743 12.4405 9.00715 12.3526L10.4984 11.3671L9.04682 12.205C8.91281 12.2658 8.75441 12.2176 8.67695 12.0921C8.59976 11.967 8.62736 11.8035 8.74181 11.711L9.16984 11.4274L8.88252 11.5939C8.76218 11.663 8.60994 11.6386 8.51774 11.5352C8.42528 11.432 8.41777 11.2779 8.50005 11.1664L8.86483 10.6716C8.74422 10.6496 8.65015 10.555 8.62897 10.4341C8.6078 10.3135 8.66408 10.1924 8.76995 10.1307L9.6815 9.60353C9.80157 9.53438 9.95381 9.55904 10.046 9.66223C10.1385 9.76568 10.1457 9.91953 10.0634 10.031L9.80157 10.3864L17.3142 6.04956C17.4507 5.97424 17.6225 6.01927 17.7045 6.15167C17.7868 6.28434 17.7506 6.45802 17.6222 6.54674L17.2041 6.82307L18.7704 5.91447C18.9071 5.83782 19.08 5.88258 19.1622 6.01605C19.2448 6.14953 19.2075 6.32401 19.0778 6.41219L17.5831 7.40092L22.2429 4.71105C22.3801 4.63172 22.5554 4.67568 22.6388 4.81049C22.7221 4.94504 22.6833 5.12166 22.5508 5.20877L17.984 8.21544L22.8647 5.39746C23.0017 5.31973 23.1753 5.36369 23.2582 5.49743C23.3412 5.63117 23.3037 5.80646 23.1735 5.89437L17.3266 9.79463L23.3796 6.30016C23.5165 6.22082 23.6918 6.26478 23.7752 6.39933C23.8585 6.53414 23.8197 6.71077 23.6875 6.79787L18.3266 10.3489L23.743 7.22296C23.88 7.14952 24.0504 7.19616 24.1314 7.32883C24.212 7.46177 24.1751 7.63437 24.0469 7.72255L22.2032 8.90051L23.9403 7.89757C24.077 7.81824 24.252 7.86165 24.3356 7.99593C24.4192 8.12995 24.3814 8.30604 24.2501 8.39395L18.4067 12.3256L24.1952 8.98413C24.3319 8.90507 24.5066 8.94848 24.5902 9.0825C24.6739 9.21651 24.6361 9.39287 24.5047 9.48078L18.7406 13.3566L25.1665 9.64695C25.3032 9.56601 25.4793 9.60889 25.5637 9.74344C25.6481 9.87799 25.6098 10.0551 25.4774 10.1428L19.0245 14.5107L26.0183 10.4709C26.1557 10.3856 26.3361 10.428 26.4214 10.5655C26.5066 10.7027 26.4642 10.8833 26.327 10.9686L21.014 14.4885L25.8917 11.6721C26.0287 11.5957 26.2016 11.6405 26.2839 11.774C26.3661 11.9072 26.3289 12.0819 26.1992 12.1698L22.0287 14.9219L25.3549 13.0018C25.4916 12.9275 25.6626 12.9731 25.7441 13.1055C25.8258 13.2379 25.7896 13.4111 25.6618 13.4995L23.1241 15.1666L25.1893 13.9744C25.3249 13.8951 25.4991 13.9372 25.5835 14.0696C25.6682 14.202 25.6331 14.3775 25.5042 14.4673L20.8816 17.7123L23.6723 16.1023C23.8063 16.0288 23.9738 16.0709 24.0574 16.1988C24.141 16.3263 24.1126 16.4971 23.992 16.5903L20.7302 18.991L23.3796 17.4611C23.5144 17.3847 23.6854 17.4271 23.7695 17.5574C23.8534 17.6876 23.8215 17.8608 23.6961 17.9524L22.3254 18.9347L22.3506 18.9208C22.4897 18.8482 22.6613 18.8977 22.7398 19.0336C22.8183 19.1695 22.776 19.3432 22.6436 19.4273L17.4858 22.4045C17.4415 22.4303 17.3912 22.4439 17.34 22.4442Z" fill="var(--fill-0, #EFC7A4)"/>
<path id="Vector_10" d="M10.5231 9.90586C10.4287 9.90586 10.3403 9.86083 10.2853 9.78445C10.1977 9.66276 10.2162 9.49418 10.3285 9.39474L12.4751 7.48348L11.0114 8.32909C10.8852 8.40199 10.7244 8.3709 10.6346 8.25618C10.5445 8.14147 10.5526 7.97798 10.6536 7.87291L12.1119 6.35457L11.6512 6.61991C11.5239 6.69147 11.3633 6.65824 11.2749 6.54218C11.1864 6.42586 11.1972 6.2621 11.2998 6.15864L12.0302 5.43605C12.0138 5.41836 11.9999 5.3988 11.9886 5.37736C11.9077 5.23772 11.9551 5.05868 12.095 4.97747L13.0747 4.41543C13.202 4.34386 13.3625 4.3771 13.451 4.49342C13.5394 4.60947 13.5287 4.77324 13.426 4.87696L13.321 4.97988L13.604 4.81719C13.7302 4.74429 13.8908 4.77538 13.9806 4.89009C14.0706 5.00454 14.0626 5.16803 13.9615 5.27336L12.5027 6.79251L14.6638 5.54541C14.7935 5.4717 14.9583 5.50735 15.0457 5.62849C15.1333 5.74964 15.1154 5.91742 15.0044 6.01739L12.8573 7.92839L16.2504 5.96995C16.3893 5.89732 16.5611 5.94717 16.6396 6.08279C16.7181 6.21868 16.6755 6.39236 16.5431 6.47652L10.6694 9.86592C10.6249 9.89192 10.5745 9.90586 10.5231 9.90586Z" fill="var(--fill-0, #EFC7A4)"/>
<path id="Vector_11" d="M15.8814 34.7797C15.7586 34.7797 15.649 34.7033 15.6067 34.588C15.5643 34.4728 15.5984 34.3433 15.6919 34.264L16.5051 33.5711L15.4166 34.1989C15.2874 34.2774 15.1194 34.2447 15.0293 34.123C14.9393 34.0016 14.9567 33.8314 15.0695 33.7304L16.8165 32.0911L15.7795 32.6902C15.6495 32.7652 15.4836 32.7298 15.3955 32.6079C15.3075 32.4859 15.3263 32.3173 15.4389 32.2176L16.3172 31.4372L16.043 31.595C15.9168 31.6682 15.7557 31.6368 15.6659 31.5216C15.5761 31.4063 15.585 31.2428 15.6865 31.1378L16.7404 30.0501L16.3611 30.2683C16.2344 30.3407 16.0738 30.3085 15.9846 30.1933C15.8953 30.078 15.9044 29.9145 16.0063 29.81L16.5228 29.2831C16.4276 29.3042 16.3282 29.2769 16.2574 29.2099C16.1636 29.1204 16.1398 28.9797 16.1987 28.8644L16.4365 28.3959C16.422 28.3798 16.4089 28.3621 16.3979 28.3434C16.359 28.2761 16.3483 28.196 16.3684 28.1209C16.3885 28.0456 16.4378 27.9815 16.5051 27.9427L16.809 27.7671C16.9216 27.6996 17.0652 27.7151 17.1607 27.8055C17.2558 27.8955 17.2797 28.0378 17.2188 28.1542L17.1695 28.2506L18.065 27.7344C18.1915 27.6613 18.3528 27.6929 18.4426 27.8087C18.5321 27.9242 18.5227 28.0882 18.4204 28.1927L17.9406 28.6805L18.2673 28.4919C18.3938 28.419 18.5546 28.4503 18.6444 28.5653C18.7342 28.68 18.7259 28.8438 18.6246 28.9486L17.5707 30.0378L18.5134 29.4937C18.6434 29.4198 18.8079 29.4557 18.8956 29.5768C18.9829 29.698 18.9652 29.8657 18.854 29.9657L17.976 30.7467L18.7155 30.3206C18.8446 30.2418 19.0124 30.2747 19.1027 30.3964C19.1928 30.5178 19.1754 30.688 19.0625 30.7888L17.3153 32.4283L18.9883 31.461C19.1194 31.3852 19.2869 31.4219 19.3742 31.5457C19.4616 31.6695 19.4399 31.8397 19.3244 31.9376L18.5085 32.6315L19.1797 32.245C19.3038 32.1731 19.4616 32.2016 19.5528 32.3122C19.6439 32.4229 19.6412 32.5835 19.5469 32.6912L18.9765 33.3452L19.3911 33.1064C19.4973 33.0453 19.6302 33.0565 19.7246 33.1351C19.8186 33.2133 19.854 33.342 19.8133 33.4575L19.675 33.8469C19.8146 33.8226 19.9518 33.9019 20.0003 34.0351C20.0489 34.1686 19.995 34.3173 19.8722 34.3886L19.2869 34.7263C19.1807 34.7872 19.0478 34.7756 18.954 34.6974C18.8599 34.6188 18.8245 34.4905 18.8653 34.3752L18.9939 34.0104L17.7428 34.7328C17.6187 34.8049 17.4608 34.7764 17.3697 34.6658C17.2786 34.5551 17.2813 34.3945 17.3756 34.2868L17.9465 33.6333L16.028 34.7411C15.9832 34.7665 15.9328 34.7799 15.8814 34.7797Z" fill="var(--fill-0, #D94452)"/>
<path id="Vector_12" d="M32.4859 25.4174C30.5079 24.4402 27.6567 24.2928 25.4849 23.8004C25.0949 22.791 24.1949 22.0671 23.1255 21.9023C23.1086 20.9915 22.9984 20.0851 22.7964 19.1971C22.7964 19.1877 22.7856 19.1832 22.783 19.1754C23.8625 18.039 23.8513 16.5086 24.6395 15.5453C24.8285 15.3111 25.2836 15.2245 25.5178 14.9645C26.1032 14.3065 26.3112 12.6437 26.4798 11.841C26.8041 10.2934 26.1783 9.61586 24.906 9.76997C25.7368 8.01389 25.8958 6.01445 25.3533 4.14901C24.0603 0.452183 19.2657 0.0640865 15.9647 0.385981C13.1414 0.661776 10.1009 1.80462 9.37649 4.84989C9.10954 5.97478 9.03878 8.41619 9.74073 9.68903C9.46788 9.73754 9.20629 9.8351 8.96856 9.97716C8.01708 10.637 8.30091 11.4719 8.59895 12.4451C8.81846 13.1629 9.0042 14.7445 9.53569 15.314C9.66649 15.4534 9.93933 15.4711 10.0377 15.5987C10.5641 15.5987 10.7713 15.8329 10.6587 16.3011L10.7466 16.9629C11.1915 18.1181 11.4105 18.7444 12.1366 19.3957C11.9583 20.2244 11.8471 21.0666 11.804 21.9133C10.753 22.1242 9.87769 22.8481 9.47324 23.8409C9.46681 23.8508 9.46332 23.8607 9.45796 23.8706C9.45528 23.8773 9.45207 23.8838 9.44858 23.8899C9.44858 23.8958 9.44858 23.9052 9.4451 23.9122C8.30976 24.1617 7.14118 24.3742 5.98359 24.6195C5.79303 24.5742 5.59201 24.6171 5.43683 24.7366C4.6081 24.9167 3.78983 25.14 2.98469 25.4059C1.01312 26.0732 0.786108 28.3544 0.450008 30.2233C0.0921988 32.2112 -0.755019 34.4736 1.55774 34.6526C2.92573 34.7309 4.29693 34.7395 5.66572 34.6783H5.70324C6.24116 34.6649 6.77801 34.6532 7.30923 34.6532H12.9605C12.9878 34.6789 13.0125 34.7076 13.0406 34.7328C13.2438 34.8536 13.503 34.8209 13.6694 34.6532H14.7533C14.9063 34.7108 15.0752 34.7108 15.2282 34.6532H19.4648C19.5383 34.6666 19.6136 34.6666 19.6873 34.6532H21.2785C21.3592 34.6644 21.441 34.6644 21.5216 34.6532H32.2792C32.9161 34.6532 34.0672 34.8166 34.5966 34.3171C35.5649 33.4044 34.5204 30.0349 34.2516 28.8976C33.9541 27.6441 33.7212 26.0282 32.4859 25.4174ZM21.3565 34.3213H20.2177L18.7248 28.1078C19.1931 27.9679 19.6342 27.7502 20.0304 27.4637C20.1381 27.7138 20.2909 27.9419 20.4812 28.1365C20.9794 28.5465 21.3812 28.2782 21.795 27.9175C22.799 26.9904 23.7454 26.0033 24.6296 24.9615C24.5037 28.2292 23.7307 32.0606 21.3565 34.3213ZM13.6941 34.2417C11.2934 32.0635 10.4773 28.3217 10.317 25.0657C11.1763 26.0716 12.0926 27.0279 13.0613 27.9293C13.4124 28.2402 13.7053 28.5095 14.1963 28.2579C14.4646 28.0713 14.6691 27.8068 14.782 27.5002C15.2156 27.8207 15.709 28.051 16.2333 28.1769C15.7415 30.226 15.2494 32.275 14.7568 34.3248H13.7498C13.7361 34.294 13.7174 34.2659 13.6941 34.2417ZM16.166 24.7776C14.8779 24.5434 12.9615 23.7149 12.6565 22.2078C12.5887 21.4488 12.6581 20.6838 12.8616 19.9495C14.4073 20.9789 15.7774 22.5592 17.7798 22.2845C19.3466 22.0695 20.7658 20.7862 22.01 19.8254C22.2346 20.6423 22.3292 21.4895 22.2903 22.3359C21.9824 24.1188 19.925 24.7677 18.11 24.8725C17.9746 24.8449 17.8377 24.8253 17.7002 24.8138C17.6359 24.791 17.5672 24.7827 17.4992 24.7891C17.3148 24.8044 17.1317 24.8326 16.9513 24.8736C16.6879 24.8561 16.4257 24.8242 16.166 24.7776ZM17.4214 25.4528C18.3635 25.5752 19.2035 26.1078 19.7165 26.9076C19.7294 26.9245 19.7417 26.9456 19.7546 26.9663C18.434 28.1075 16.4619 28.0569 15.2017 26.8492C15.693 26.0724 16.5086 25.5594 17.4214 25.4528ZM17.0186 28.2994C17.3008 28.3184 17.5841 28.3126 17.8653 28.2817C18.3488 30.2948 18.8326 32.308 19.3166 34.3213H15.5694L17.0186 28.2994ZM23.9649 23.0422C24.2453 23.2759 24.483 23.5568 24.6677 23.8717C24.6612 23.9304 24.4281 24.1059 24.4023 24.151C23.8467 25.0639 22.7628 25.877 22.0277 26.653C21.7578 26.9955 21.457 27.3123 21.1293 27.5996C21.0861 27.6302 21.0539 27.6554 21.0298 27.6757C21.0277 27.6677 21.0231 27.6605 21.017 27.6548C20.9344 27.3554 20.8208 27.0654 20.6784 26.7894C20.2563 26.1228 19.6739 25.5726 18.984 25.1893C20.5305 24.9221 22.1416 24.24 22.8765 22.8197C22.9156 22.7372 22.9491 22.6519 22.9767 22.5648C23.3364 22.6517 23.6733 22.8143 23.9649 23.0422ZM19.1175 0.84966C23.301 1.4042 25.5213 4.61457 24.6331 8.29505C24.3356 6.95413 23.8132 5.52504 22.8532 4.7786C22.5109 4.41462 22.0006 4.26051 21.5141 4.37442C21.0807 4.49851 20.9872 4.88045 20.6417 5.10183C19.292 5.93592 17.6627 6.18947 16.1234 5.80432C14.4716 5.42962 13.6643 3.56231 12.0832 4.86329C11.109 5.66548 10.5855 7.10235 10.2864 8.46417C10.1492 7.74319 10.0766 7.01122 10.0693 6.27738C10.0066 1.43824 15.0588 0.312275 19.1175 0.84966ZM11.4668 15.4148C11.4523 15.3866 11.4239 15.3684 11.3925 15.3673C9.64638 15.1213 10.2285 14.54 9.9404 13.4692C9.83212 13.0321 9.66622 12.6113 9.44671 12.2178C8.90048 11.4186 9.09747 10.7217 10.0382 10.1278C10.1554 10.4087 10.8369 10.2875 10.882 9.93668C11.0506 8.62874 11.6555 4.9764 13.4346 5.32295C13.861 5.4063 14.5126 6.08762 15.0108 6.26639C15.9312 6.55692 16.8993 6.66494 17.861 6.58426C18.6358 6.56577 19.4016 6.41273 20.1242 6.13211C20.3906 6.01981 21.319 5.21654 21.5291 5.20582C23.2517 5.1163 23.8467 8.52287 24.0381 9.94044C24.0242 9.96965 24.0148 9.99887 24 10.027C23.9738 10.0795 24.01 10.113 24.0786 10.1299C24.1759 10.3883 24.6639 10.3116 24.8398 10.068C26.4452 10.2173 25.1113 15.2175 23.9762 15.3783C23.8695 15.3936 23.4755 15.4791 23.4715 15.6421C23.4128 17.9189 22.4761 18.8141 20.7516 20.1574C19.4161 21.1966 17.3477 22.0631 15.8146 21.2697C14.8206 20.6637 13.8803 19.9736 13.0044 19.2065C11.8187 18.21 11.5048 16.9066 11.4668 15.4148ZM10.4175 23.6399C10.5118 23.0789 11.2958 22.6785 11.8929 22.5597C11.9372 22.7243 12.0004 22.8832 12.0816 23.0333C12.8463 24.4233 14.3826 25.0462 15.9417 25.2536C15.0891 25.7795 14.3944 26.5262 13.9318 27.4147C13.8734 27.5406 13.8621 27.6085 13.876 27.6489C13.6313 27.4115 13.4067 27.1542 13.2046 26.8794L10.763 24.3032C10.3947 23.917 10.3636 23.9596 10.4175 23.6399ZM5.51 34.19C4.53011 33.9533 3.8429 33.0721 3.85228 32.0641C3.81663 31.0622 4.55477 30.2002 5.5502 30.0815C5.62873 30.0984 5.70967 30.0995 5.78847 30.0853C5.92597 30.0957 6.06159 30.1214 6.19319 30.1624C7.06747 30.4701 7.65659 31.2914 7.66758 32.2182C7.59735 33.3482 6.77158 34.4449 5.51 34.19ZM1.46045 34.3213C-0.178771 33.4272 1.47519 26.431 3.30069 25.5884C3.95306 25.3024 4.63196 25.0818 5.32774 24.9304V29.6548C4.00237 29.7816 2.99032 30.8944 2.98925 32.2257C2.94315 33.0962 3.39932 33.9166 4.16319 34.3364C3.36046 34.398 1.99971 34.6146 1.46045 34.3213ZM10.9176 34.3213H7.04389C7.90987 33.9097 8.47808 33.0541 8.52176 32.0962C8.52176 32.0828 8.51399 32.0748 8.51238 32.0625C8.51051 32.0501 8.52069 32.0423 8.51989 32.0314C8.48612 30.7438 7.46978 29.698 6.18381 29.6272V24.8524C6.18247 24.8173 6.17282 24.7827 6.15566 24.7519C7.26179 24.5359 8.39418 24.3753 9.42821 24.1662C9.46842 27.6347 10.1594 31.7373 12.6254 34.3229L10.9176 34.3213ZM32.1519 34.3213H22.1065C24.6629 31.8258 25.4195 27.7765 25.4937 24.2839L28.7521 25.0357V27.8462C27.6856 28.0175 26.81 28.7811 26.4948 29.814C26.2796 30.6232 26.1273 32.1801 27.1635 32.3902C27.4565 32.4489 28.1648 31.9992 27.6754 31.9008C27.0834 31.7837 27.2396 30.7521 27.2595 30.3409C27.3147 29.2056 28.1689 28.0826 29.4224 28.3463C30.3594 28.5776 31.0351 29.3948 31.0865 30.3586C31.1088 30.6114 31.2522 31.8357 30.8697 31.9132C30.3463 32.0185 30.4787 32.4827 30.9951 32.3779C32.0889 32.1573 31.9868 31.1831 31.9418 30.2755C31.8869 28.985 30.8861 27.9341 29.5998 27.8164V25.2314L30.5765 25.4568C33.3036 26.0861 33.5186 29.0507 33.8289 31.5331C34.1902 34.4208 34.5221 34.3213 32.1519 34.3213Z" fill="var(--fill-0, #262626)"/>
</g>
<defs>
<clipPath id="clip0_0_4">
<rect width="35" height="35" fill="white"/>
</clipPath>
</defs>
</svg>
