<svg preserveAspectRatio="none" width="100%" height="100%" overflow="visible" style="display: block;" viewBox="0 0 47 47" fill="none" xmlns="http://www.w3.org/2000/svg">
<g id="hospital_16767405 1">
<path id="Vector" d="M39.457 41.8314C38.9215 41.4995 38.2589 41.4957 37.6446 41.3921C38.8832 34.3844 37.8672 27.1261 38.0432 20.0416C37.792 16.6254 32.745 18.3019 30.5196 18.3753C30.5324 16.8582 30.5686 15.2279 30.57 13.7076C30.62 12.1012 30.6852 10.1527 28.556 10.1022C15.8337 10.8623 16.3701 7.33388 16.6709 18.2904C15.2059 17.9048 13.6759 17.8138 12.1645 17.7803C9.38505 17.5026 8.52401 18.8995 8.79032 21.5112C9.07655 28.1875 8.55889 34.9495 9.49597 41.5784C8.85724 41.6887 8.13532 41.6817 7.53654 41.859C7.57706 41.8819 7.64333 41.8665 7.67519 41.8986C7.64276 41.9503 7.55055 41.9634 7.66241 41.9882C7.55628 42.0092 7.44264 42 7.34507 42.0465C13.2607 42.5818 19.3228 42.4028 25.2871 42.4718C30.0656 42.3502 34.9456 42.7354 39.6547 41.927C39.5493 41.8964 39.5494 41.8964 39.457 41.8314ZM17.493 24.3233C17.7812 20.1696 17.5278 15.8723 17.8319 11.7347C17.982 11.4695 18.2885 11.385 18.5744 11.4173C19.2217 11.4337 20.5165 11.4515 21.1625 11.4612C23.5333 11.4383 26.0042 11.4348 28.3783 11.4357C28.788 11.3643 29.2505 11.6034 29.2256 12.067C29.2138 16.3169 29.2426 20.6643 29.5953 24.8905C22.636 20.6839 24.5114 20.7245 17.5008 24.6498C17.5046 24.5409 17.4885 24.4326 17.493 24.3233ZM9.54138 41.5732C9.54532 41.5429 9.54673 41.5113 9.56704 41.4924C9.61761 41.5216 9.63218 41.61 9.65662 41.5045C9.65925 41.5229 9.66179 41.5408 9.66433 41.559C9.62344 41.5638 9.58236 41.5685 9.54138 41.5732ZM15.155 41.3148C13.3713 41.3612 11.577 41.307 9.80147 41.5426C10.205 34.4315 10.1472 27.2101 10.1188 20.0691C10.1183 18.8881 11.3785 19.0784 12.2045 19.0173C13.6891 18.8881 15.2069 18.9245 16.6767 18.6767C16.6607 20.7408 16.8976 22.8291 17.0895 24.8786C15.9508 25.5092 14.5069 26.3282 13.3911 26.9967C11.2228 28.3556 13.3019 31.5246 15.4194 30.0823C15.036 32.0894 15.298 34.1846 15.3532 36.2152C15.4676 37.911 15.228 39.6781 15.8002 41.3062C15.5852 41.3106 15.37 41.3118 15.155 41.3148ZM22.6672 41.2147C21.6362 41.2322 20.6056 41.271 19.5736 41.2659C19.7055 38.568 19.7987 35.8185 19.8057 33.0907C20.8407 33.1111 22.0408 33.1616 23.0761 33.1344C22.7924 35.7825 22.6184 38.5855 23.0881 41.2079C22.9476 41.2081 22.807 41.2086 22.6672 41.2147ZM26.638 41.1494C25.731 41.1864 24.823 41.1828 23.916 41.204C24.437 39.7819 24.0825 38.1784 24.0807 36.6946C23.9282 35.5123 24.1606 34.2527 23.7429 33.1199C24.8378 33.1063 26.0503 33.1375 27.151 33.1069C27.1434 35.7758 27.1669 38.5056 27.5035 41.1363C27.215 41.1407 26.9265 41.1449 26.638 41.1494ZM28.9542 41.1219C28.6417 41.1243 28.3293 41.1224 28.0169 41.1283C28.6198 38.3943 28.453 35.5434 28.4821 32.7581C28.5423 32.2986 28.3413 31.759 27.8013 31.7707C24.954 31.8102 22.0464 31.9103 19.1986 31.9174C18.5392 31.9049 18.6714 32.7551 18.6687 33.1828C18.7349 35.8786 18.6667 38.6015 19.1592 41.2675C18.2043 41.2685 17.2494 41.2732 16.2948 41.2928C16.648 37.4598 16.7736 33.4295 16.3098 29.5686C18.5311 28.2716 21.2585 26.6795 23.4952 25.3892C25.8561 26.7749 28.2995 27.9976 30.7124 29.2865C30.4067 33.1542 30.1759 37.2246 30.6865 41.1108C30.109 41.1054 29.5317 41.1184 28.9542 41.1219ZM23.5473 25.3604L23.5582 25.3544C23.5558 25.3563 23.552 25.3584 23.5473 25.3604ZM36.7556 41.2746C34.9975 41.1263 33.2268 41.1633 31.4641 41.1192C32.05 39.1122 31.6666 36.9506 31.672 34.8872C31.4994 33.1173 31.8021 31.267 31.2127 29.5604C32.0109 30.1831 33.4248 30.3712 33.8243 29.2186C32.7172 30.3692 31.1275 28.3892 30.1111 27.8507C28.2358 26.6186 26.2668 25.503 24.3362 24.3568C23.3986 23.6412 22.7249 24.3388 21.8813 24.7839C19.5431 26.1221 16.8896 27.6835 14.5856 29.0719C13.8417 29.4472 13.3028 28.3511 14.2509 27.973C16.9709 26.3285 19.9617 24.6158 22.7047 22.9995C23.9125 22.1136 25.8983 24.0683 27.1043 24.5492C28.553 25.3816 30.1417 26.2323 31.6496 26.9347C32.5239 27.4291 33.9936 27.651 33.8704 28.9311C33.9109 28.878 33.9143 28.769 33.9496 28.7157C34.0066 28.7848 33.9762 28.9461 34.0371 28.7461C34.0336 28.9 33.9989 29.0491 33.9478 29.1942V29.194C33.934 29.2309 33.9223 29.2688 33.9154 29.3077C33.9158 29.3066 33.9161 29.3053 33.9165 29.3042L33.9153 29.3084C35.4141 27.4624 31.0966 26.0545 29.9633 25.1147C30.4369 23.0644 30.464 20.9028 30.5172 18.797C31.8513 18.8258 33.2003 18.9084 34.5417 18.9708C35.3516 19.0239 36.6527 18.7128 36.9046 19.7779C36.9624 26.9381 36.536 34.2295 37.2723 41.355C37.0963 41.3404 36.9306 41.2932 36.7556 41.2746ZM33.9399 29.2495L33.9429 29.2291C33.9439 29.2288 33.9433 29.2342 33.9399 29.2495ZM33.9156 29.3076C33.9156 29.3078 33.9155 29.3082 33.9154 29.3083C33.9035 29.3473 33.9075 29.3337 33.9156 29.3076ZM19.4373 17.9935C19.8755 18.7174 20.9224 18.4436 21.623 18.4827C21.639 20.2791 21.5343 20.8913 23.6031 20.7593C25.6355 20.8534 25.2805 19.8972 25.2621 18.3363C26.796 18.3408 27.796 18.5691 27.5694 16.6046C27.7361 14.5807 26.6763 14.8999 25.1356 14.935C25.0122 12.7769 25.0502 12.5584 22.8552 13.0908C22.8891 13.1138 22.9446 13.0983 22.9713 13.1305C22.9473 13.1791 22.8655 13.1961 22.9606 13.2201C22.871 13.2412 22.7756 13.232 22.6948 13.2783C23.0244 13.4652 23.4194 13.3867 23.781 13.4177C23.9291 13.4799 24.1014 13.4678 24.263 13.4505C24.1765 16.1754 23.605 15.9281 26.4729 15.9543C26.4621 16.3552 26.4682 16.7717 26.4589 17.1721C23.8444 17.1232 24.0121 16.7762 24.0177 19.4773C23.6655 19.484 23.3162 19.4864 22.9623 19.476C22.9542 16.8578 23.1724 17.1397 20.5884 17.1509C20.5954 16.7603 20.5835 16.3693 20.5864 15.9785C21.1667 15.9671 21.7421 15.8512 22.3265 15.8458C22.9337 15.7943 22.7373 15.0426 22.7152 14.6275C22.6912 14.2131 22.6957 13.811 22.5824 13.4099C22.5904 13.3786 22.5347 13.3017 22.5846 13.2766C22.625 13.2361 22.6199 13.1751 22.6947 13.1587C21.8609 12.7846 21.9821 14.3135 21.8448 14.8001C20.4394 14.7432 19.1723 14.3989 19.2809 16.3295C19.3168 16.8724 19.124 17.5085 19.4373 17.9935ZM24.2784 13.4497L24.2888 13.4491C24.2851 13.4505 24.282 13.4508 24.2784 13.4497ZM26.6435 15.957L26.6541 15.9573C26.644 15.9588 26.6338 15.9581 26.6236 15.9566L26.6435 15.957ZM26.474 15.788V15.7943C26.4734 15.7936 26.4738 15.7838 26.474 15.788ZM24.2862 19.4767L24.2762 19.4769C24.2904 19.4752 24.3196 19.476 24.2862 19.4767ZM22.963 19.7433V19.7299C22.9634 19.7357 22.9635 19.7408 22.963 19.7433ZM22.702 19.4778C22.7039 19.4778 22.7058 19.4781 22.7077 19.4782C22.7041 19.4781 22.6862 19.4783 22.702 19.4778ZM20.5823 17.3956C20.5823 17.3938 20.5823 17.3866 20.5823 17.3849C20.5827 17.3879 20.5824 17.3926 20.5823 17.3956ZM20.3569 15.99C20.3785 15.9882 20.4002 15.9865 20.4218 15.9847C20.4102 15.9924 20.3341 15.9949 20.3569 15.99ZM20.3547 17.1516C20.3554 17.1516 20.3561 17.1518 20.3568 17.1518H20.3466L20.3547 17.1516ZM14.898 7.25793C14.8991 7.20444 14.9453 7.10114 15.0134 7.11298C15.029 7.07688 15.0912 7.05517 15.0957 7.01249C15.7355 6.72814 16.1704 7.33689 16.6427 7.64831C17.2336 8.02393 18.0018 8.67695 17.3643 9.37744C17.3516 9.37735 17.3101 9.41053 17.2847 9.41523C17.2216 9.44352 17.1665 9.44239 17.0794 9.47717C17.0367 9.42265 16.9751 9.44268 16.9268 9.41297C16.9013 9.39718 16.8742 9.36672 16.8417 9.37396C16.7973 9.39549 16.8143 9.35366 16.7729 9.36804C16.7593 9.35037 16.7289 9.35685 16.6926 9.36287C16.0293 8.94401 15.5429 8.28798 15.0667 7.67397C15.0399 7.6782 15.065 7.63393 15.0699 7.61174C15.0633 7.59924 15.0533 7.59031 15.053 7.5717C14.9846 7.51859 15.0297 7.38473 14.9255 7.37703C14.9078 7.38013 14.9542 7.3258 14.9442 7.32345C14.9428 7.28707 14.9042 7.28979 14.898 7.25793ZM22.7596 5.86682C22.8198 5.5663 22.9096 5.27246 22.9329 4.96339C22.9614 4.93011 22.9039 4.91056 22.9728 4.89674C23 4.8912 22.9838 4.86845 23.005 4.85266C22.9979 4.78582 23.085 4.73845 23.0799 4.68111C23.0775 4.65798 23.0314 4.63373 23.0867 4.63119C23.1467 4.62508 23.1077 4.57893 23.1285 4.54922C23.1689 4.51642 23.2749 4.48239 23.3131 4.53653C24.0426 4.55815 23.9569 5.46469 24.0345 5.98517C24.1678 6.67447 24.1954 7.55854 23.2641 7.56747C23.2555 7.55685 23.2035 7.5529 23.1821 7.53692C23.1185 7.5122 23.079 7.47159 22.9967 7.43596C23.0066 7.36894 22.9506 7.34441 22.9394 7.29139C22.9426 7.23847 22.9112 7.21412 22.8846 7.1848C22.8879 7.17408 22.8815 7.16487 22.8642 7.15537C22.8772 7.13742 22.838 7.11871 22.8161 7.1002C22.7092 6.70981 22.8067 6.2682 22.7596 5.86682ZM32.0258 14.6827C32.0132 14.6183 32.0132 14.6183 32.0012 14.5881C32.0091 14.5787 32.0126 14.5261 32.0255 14.5037C32.0458 14.4384 32.083 14.3967 32.1139 14.3098C32.2021 14.3019 32.242 14.2272 32.3292 14.2192C32.3429 14.2143 32.3509 14.1702 32.3652 14.1752C32.3777 14.1775 32.3849 14.1704 32.394 14.1521C32.4138 14.1634 32.4298 14.1226 32.4471 14.0992C33.1808 13.8874 33.9669 13.9645 34.722 14.0231C34.7366 14.0004 34.7519 14.0488 34.7649 14.0671C34.7781 14.0706 34.7911 14.0692 34.8048 14.0814C34.8894 14.0666 34.9546 14.1896 35.0282 14.1172C35.0473 14.1225 35.0449 14.1873 35.0901 14.179C35.1627 14.1373 35.2179 14.3213 35.162 14.3593C35.1779 14.3951 35.1534 14.4558 35.1813 14.4878C34.9794 15.1456 34.2546 15.0706 33.7188 15.2106C33.103 15.372 32.1487 15.551 32.0258 14.6827ZM11.9146 14.8158C11.904 14.7799 11.9294 14.7567 11.9459 14.7372C11.9336 14.7001 11.9642 14.6422 11.9396 14.6075C12.2071 13.9734 12.921 14.1211 13.4683 14.0358C14.1508 13.9085 15.125 13.8976 15.1159 14.828C15.1069 14.8365 15.0983 14.8887 15.0831 14.9096C15.0564 14.9726 15.0152 15.0104 14.9757 15.0937C14.8871 15.0926 14.8398 15.163 14.7522 15.1622C14.7382 15.1658 14.7258 15.2087 14.7118 15.2023C14.6997 15.1989 14.6917 15.2052 14.6808 15.2224C14.6622 15.2091 14.6422 15.2481 14.6226 15.2697C13.8708 15.4065 13.096 15.2507 12.3501 15.1162C12.3334 15.1374 12.3228 15.0877 12.3117 15.0681C12.299 15.0633 12.2858 15.0633 12.2735 15.0499C12.1879 15.0561 12.1353 14.9271 12.0547 14.9918C12.0438 15.0061 12.0419 14.9344 12.0332 14.9395C12.0215 14.9356 12.0109 14.9217 11.9992 14.9241C11.9407 14.9576 11.9298 14.857 11.9146 14.8158ZM29.6601 8.92051C29.6397 8.89748 29.6594 8.87783 29.6739 8.86204C29.6949 8.81231 29.6741 8.75666 29.7156 8.70431C29.738 8.68767 29.7011 8.64809 29.7141 8.63484C29.724 8.6276 29.723 8.6183 29.7158 8.5995C29.7368 8.59376 29.7172 8.55503 29.7112 8.5273C30.0254 7.89092 30.5711 7.42215 31.0916 6.95478C31.1338 6.94698 31.101 6.89593 31.1633 6.92818C31.1882 6.9404 31.1887 6.91351 31.2151 6.91408C31.2501 6.85824 31.347 6.87554 31.3775 6.82825C31.3892 6.80889 31.3683 6.7617 31.4129 6.79394C31.4635 6.82628 31.461 6.76697 31.4952 6.75663C31.5465 6.75691 31.6506 6.79517 31.648 6.86097C32.2052 7.31922 31.6003 7.97045 31.3416 8.42184C31.01 9.05558 30.5333 9.72646 29.7816 9.16368C29.7243 9.08313 29.7103 9.02372 29.6601 8.92051Z" fill="var(--fill-0, #5B6A5A)"/>
</g>
</svg>
