<svg preserveAspectRatio="xMidYMid meet" width="100%" height="100%" overflow="visible" style="display: block;" viewBox="-5.02 -7.59 33.44 50.64" fill="none" xmlns="http://www.w3.org/2000/svg">
<g id="Group">
<path id="Vector" d="M10.0593 21.1138C8.43106 21.1138 6.80323 20.4938 5.56375 19.2544C3.08517 16.7758 3.08517 12.7422 5.56375 10.2637C8.04272 7.78508 12.0763 7.78468 14.5548 10.2637C17.0338 12.7422 17.0338 16.7758 14.5548 19.2544C13.3154 20.4938 11.6871 21.1138 10.0593 21.1138ZM10.0589 9.19196C8.63272 9.19196 7.20615 9.7347 6.12027 10.8206C3.94852 12.9923 3.94852 16.5257 6.12027 18.6974C8.29203 20.8692 11.8258 20.8692 13.9975 18.6974C16.1693 16.5257 16.1693 12.9923 13.9975 10.8206C12.9116 9.73509 11.4855 9.19196 10.0589 9.19196Z" fill="var(--fill-0, #331B3B)"/>
<path id="Vector_2" d="M22.9752 25.5884L17.7403 20.3532C17.2622 19.8751 16.5367 19.8002 15.9739 20.1173L14.8187 18.9621C17.0227 16.4682 16.9392 12.6485 14.5544 10.264C12.0762 7.78507 8.04225 7.78547 5.56328 10.264C3.08471 12.7426 3.08471 16.7762 5.56328 19.2547C6.80277 20.4938 8.4306 21.1142 10.0588 21.1142C11.5634 21.1142 13.064 20.5777 14.2617 19.5194L15.4169 20.6746C15.0999 21.2374 15.1743 21.9625 15.6529 22.4411L20.8881 27.6759C21.1658 27.954 21.5364 28.1072 21.9314 28.1072C22.3265 28.1072 22.6971 27.954 22.9748 27.6759C23.2528 27.3978 23.406 27.0272 23.406 26.6322C23.406 26.2371 23.2532 25.8661 22.9752 25.5884ZM6.1206 18.6978C3.94884 16.5261 3.94884 12.9927 6.1206 10.821C7.20648 9.73509 8.63265 9.19235 10.0592 9.19235C11.4858 9.19235 12.912 9.73509 13.9978 10.821C16.1696 12.9927 16.1696 16.5261 13.9978 18.6978C11.8261 20.8696 8.29196 20.8692 6.1206 18.6978ZM22.4182 27.119C22.1599 27.3774 21.7038 27.3774 21.445 27.119L16.2098 21.8838C15.9416 21.6152 15.9416 21.1788 16.2098 20.9101C16.3441 20.7762 16.5201 20.7089 16.6966 20.7089C16.8727 20.7089 17.0491 20.7758 17.183 20.9101L22.4178 26.1454C22.547 26.2746 22.6183 26.4475 22.6183 26.6318C22.6183 26.8161 22.5474 26.9894 22.4182 27.119Z" fill="var(--fill-0, #331B3B)"/>
<path id="Vector_3" d="M5.93747 17.0223C5.81813 17.0223 5.70036 16.9684 5.62317 16.8664C5.49201 16.6931 5.52588 16.4457 5.69958 16.3146L11.3834 12.0128C11.4724 11.9458 11.5851 11.9191 11.6946 11.9399C11.8037 11.9608 11.8994 12.0266 11.9573 12.1215L13.7174 15.0065L14.3098 14.5812C14.4855 14.4536 14.732 14.4945 14.8596 14.6714C14.9865 14.8482 14.9463 15.094 14.7694 15.2212L13.8324 15.8943C13.7434 15.9581 13.6312 15.9829 13.5248 15.9605C13.4173 15.9388 13.3236 15.873 13.2669 15.7797L11.5122 12.9037L6.17536 16.9424C6.10368 16.9963 6.02018 17.0223 5.93747 17.0223Z" fill="var(--fill-0, #331B3B)"/>
<path id="Vector_4" d="M20.2827 21.5868C20.5005 21.5868 20.6766 21.4108 20.6766 21.193V1.96419C20.6766 0.88107 19.7955 0 18.7124 0H1.9638C0.880676 0 0 0.88107 0 1.96419V33.4838C0 34.5666 0.88107 35.4476 1.9638 35.4476H18.712C19.7951 35.4476 20.6762 34.5666 20.6762 33.4838V28.6988C20.6762 28.481 20.5001 28.3049 20.2823 28.3049C20.0645 28.3049 19.8885 28.481 19.8885 28.6988V29.7169H0.787725V18.0346L1.80783 19.7042C1.86573 19.7991 1.96143 19.8648 2.07053 19.8857C2.09495 19.8904 2.11937 19.8928 2.14379 19.8928C2.22887 19.8928 2.31237 19.8652 2.38169 19.8133L3.63023 18.8688C3.80353 18.7372 3.8378 18.4903 3.70664 18.317C3.57509 18.1437 3.32814 18.1094 3.15484 18.2406L2.25329 18.9227L0.787725 16.5241V4.51839H19.8889V10.5736L17.0511 12.6127C16.8743 12.7395 16.8337 12.9856 16.9609 13.1625C17.0377 13.2696 17.1586 13.3267 17.2811 13.3267C17.3607 13.3267 17.441 13.3027 17.5103 13.2527L19.8889 11.5437V21.1933C19.8889 21.4104 20.0649 21.5868 20.2827 21.5868ZM19.8889 30.5046V33.4834C19.8889 34.1317 19.3611 34.6595 18.7124 34.6595H1.9638C1.3155 34.6595 0.787725 34.1317 0.787725 33.4834V30.5046H19.8889ZM0.787725 3.73067V1.96419C0.787725 1.3155 1.3155 0.787725 1.9638 0.787725H18.712C19.3607 0.787725 19.8885 1.3155 19.8885 1.96419V3.73067H0.787725V3.73067Z" fill="var(--fill-0, #331B3B)"/>
<path id="Vector_5" d="M10.3381 34.0018C9.56694 34.0018 8.93952 33.3743 8.93952 32.6032C8.93952 31.832 9.56694 31.2042 10.3381 31.2042C11.1093 31.2042 11.7367 31.832 11.7367 32.6032C11.7367 33.3743 11.1093 34.0018 10.3381 34.0018ZM10.3381 31.9923C10.0014 31.9923 9.72724 32.2664 9.72724 32.6036C9.72724 32.9407 10.0014 33.2144 10.3381 33.2144C10.6749 33.2144 10.949 32.9407 10.949 32.6036C10.949 32.2664 10.6753 31.9923 10.3381 31.9923Z" fill="var(--fill-0, #331B3B)"/>
<path id="Vector_6" d="M12.7352 2.62626H7.94106C7.72365 2.62626 7.5472 2.44981 7.5472 2.2324C7.5472 2.01499 7.72365 1.83854 7.94106 1.83854H12.7352C12.953 1.83854 13.129 2.01499 13.129 2.2324C13.129 2.44981 12.953 2.62626 12.7352 2.62626Z" fill="var(--fill-0, #331B3B)"/>
</g>
</svg>
