<svg preserveAspectRatio="xMidYMid meet" width="100%" height="100%" overflow="visible" style="display: block;" viewBox="-7.18 -6.56 47.83 43.76" fill="none" xmlns="http://www.w3.org/2000/svg">
<g id="Group">
<path id="Vector" d="M33.4783 19.4728H0V2.01614C0 0.904286 0.904286 0 2.01614 0H31.4622C32.5737 0 33.4783 0.904286 33.4783 2.01614V19.4728ZM0.743963 18.7289H32.7344V2.01614C32.7344 1.31458 32.1637 0.743963 31.4622 0.743963H2.01614C1.31458 0.743963 0.743963 1.31458 0.743963 2.01614V18.7289Z" fill="var(--fill-0, #331B3B)"/>
<path id="Vector_2" d="M31.4622 24.0943H2.01614C0.904286 24.0943 0 23.1897 0 22.0782V18.7289H33.4783V22.0782C33.4783 23.1897 32.5737 24.0943 31.4622 24.0943ZM0.743963 19.4729V22.0782C0.743963 22.7798 1.31458 23.3504 2.01614 23.3504H31.4622C32.1637 23.3504 32.7344 22.7798 32.7344 22.0782V19.4729H0.743963V19.4729Z" fill="var(--fill-0, #331B3B)"/>
<path id="Vector_3" d="M21.8818 28.6931H11.5965C11.4358 28.6931 11.2933 28.5901 11.2431 28.4372C11.1929 28.2843 11.2468 28.1169 11.3763 28.0217C12.7891 26.9843 13.7321 25.3993 13.9634 23.6733C13.988 23.4888 14.1457 23.3508 14.3321 23.3508H19.1455C19.3319 23.3508 19.4896 23.4884 19.5141 23.6733C19.7455 25.3996 20.6888 26.9843 22.1016 28.0217C22.2315 28.1169 22.285 28.2843 22.2348 28.4372C22.1846 28.5901 22.0429 28.6931 21.8818 28.6931ZM12.6053 27.9492H20.8733C19.8158 26.9076 19.0938 25.5547 18.8282 24.0944H14.6501C14.3849 25.5547 13.6629 26.9076 12.6053 27.9492Z" fill="var(--fill-0, #331B3B)"/>
<path id="Vector_4" d="M22.7109 30.6316H10.7674C10.0279 30.6316 9.42636 30.0301 9.42636 29.2906C9.42636 28.5511 10.0279 27.9496 10.7674 27.9496H22.7109C23.4504 27.9496 24.0519 28.5511 24.0519 29.2906C24.0519 30.0301 23.4504 30.6316 22.7109 30.6316ZM10.7674 28.6932C10.4382 28.6932 10.1703 28.961 10.1703 29.2902C10.1703 29.6194 10.4382 29.8872 10.7674 29.8872H22.7109C23.0405 29.8872 23.308 29.6194 23.308 29.2902C23.308 28.961 23.0401 28.6932 22.7109 28.6932H10.7674Z" fill="var(--fill-0, #331B3B)"/>
<path id="Vector_5" d="M17.3719 21.7836H16.1064C15.9011 21.7836 15.7344 21.6173 15.7344 21.4116C15.7344 21.2059 15.9011 21.0396 16.1064 21.0396H17.3719C17.5776 21.0396 17.7439 21.2059 17.7439 21.4116C17.7439 21.6173 17.5776 21.7836 17.3719 21.7836Z" fill="var(--fill-0, #331B3B)"/>
</g>
</svg>
