<svg preserveAspectRatio="xMidYMid meet" width="100%" height="100%" overflow="visible" style="display: block;" viewBox="0 0 29.5397 29.5397" fill="none" xmlns="http://www.w3.org/2000/svg">
<g id="Group">
<path id="Vector" d="M14.7698 0C6.62575 0 0 6.62575 0 14.7698C0 22.9139 6.62575 29.5397 14.7698 29.5397C22.9139 29.5397 29.5397 22.9139 29.5397 14.7698C29.5397 6.62575 22.9139 0 14.7698 0ZM15.0981 9.46648C17.2243 9.43235 19.2855 9.06934 21.1593 8.41684C21.6263 10.2358 21.8991 12.279 21.9244 14.4416H15.0981V9.46648ZM15.0981 8.81005V0.672848C17.6185 0.898335 19.8021 3.70625 20.9856 7.78272C19.1706 8.42012 17.1675 8.77591 15.0981 8.81005ZM14.4416 8.81005C12.3719 8.77591 10.3691 8.42012 8.55371 7.78239C9.73727 3.70625 11.9209 0.898335 14.4416 0.672848V8.81005ZM14.4416 9.46648V14.4416H7.61533C7.6406 12.279 7.91335 10.2358 8.38041 8.41684C10.2542 9.06934 12.3154 9.43235 14.4416 9.46648ZM6.95889 14.4416H0.664643C0.73882 11.2192 1.89612 8.26094 3.78863 5.91778C4.94068 6.84796 6.28966 7.61533 7.77452 8.19497C7.2753 10.0839 6.98515 12.2019 6.95889 14.4416ZM6.95889 15.0981C6.98482 17.3378 7.2753 19.4558 7.77452 21.345C6.28998 21.9247 4.94068 22.6921 3.78896 23.6222C1.89612 21.2787 0.73882 18.3205 0.664643 15.0981H6.95889ZM7.61533 15.0981H14.4416V20.0729C12.3154 20.107 10.2542 20.4703 8.38041 21.1228C7.91335 19.3039 7.6406 17.2607 7.61533 15.0981ZM14.4416 20.7293V28.8668C11.9209 28.6413 9.73727 25.8334 8.55371 21.757C10.3691 21.1196 12.3722 20.7638 14.4416 20.7293ZM15.0981 20.7293C17.1675 20.7634 19.1706 21.1192 20.9856 21.7566C19.8021 25.8334 17.6188 28.6413 15.0981 28.8668V20.7293ZM15.0981 20.0729V15.0981H21.9244C21.8991 17.2607 21.6263 19.3039 21.1593 21.1228C19.2855 20.4703 17.2243 20.107 15.0981 20.0729ZM22.5805 15.0981H28.875C28.8009 18.3205 27.6436 21.2787 25.7507 23.6222C24.5987 22.6921 23.2497 21.9244 21.7648 21.345C22.2641 19.4555 22.5545 17.3378 22.5805 15.0981ZM22.5805 14.4416C22.5545 12.2019 22.2641 10.0842 21.7648 8.19497C23.2497 7.61533 24.5987 6.84796 25.7507 5.91778C27.6436 8.26127 28.8005 11.2195 28.8747 14.4416H22.5805ZM25.3263 5.41692C24.2445 6.28834 22.9789 7.00944 21.5866 7.55953C20.6843 4.52417 19.232 2.14852 17.4859 0.92131C20.5787 1.52687 23.3117 3.14565 25.3263 5.41692ZM12.0538 0.92131C10.3077 2.14852 8.85534 4.52417 7.95307 7.55921C6.56076 7.00911 5.29515 6.28801 4.21334 5.41659C6.22762 3.14565 8.9607 1.52687 12.0538 0.92131ZM4.21302 24.1228C5.29482 23.2513 6.56011 22.5302 7.95274 21.9802C8.85501 25.0152 10.3074 27.3908 12.0535 28.618C8.9607 28.0128 6.22762 26.394 4.21302 24.1228ZM17.4859 28.6184C19.232 27.3912 20.6843 25.0155 21.5866 21.9802C22.9792 22.5302 24.2445 23.2513 25.3263 24.1228C23.3117 26.394 20.579 28.0128 17.4859 28.6184Z" fill="var(--fill-0, black)"/>
</g>
</svg>
