<svg preserveAspectRatio="xMidYMid meet" width="100%" height="100%" overflow="visible" style="display: block;" viewBox="0 0 35 35" fill="none" xmlns="http://www.w3.org/2000/svg">
<g id="consulting_17817332 1">
<path id="Vector" d="M30.7555 17.5027C30.6136 17.4771 22.3593 17.5155 22.2143 17.4999C21.8148 16.6791 21.1924 15.9873 20.4181 15.5038C19.6438 15.0202 18.749 14.7645 17.8362 14.7658H15.8595V13.3867C16.395 13.0274 16.8552 12.5671 17.2146 12.0316H28.4368C28.8717 12.0321 29.2887 12.2051 29.5963 12.5126C29.9039 12.8202 30.0768 13.2372 30.0773 13.6721V15.3126C30.079 15.4566 30.1374 15.594 30.2398 15.6951C30.3421 15.7963 30.4803 15.853 30.6242 15.853C30.7681 15.853 30.9062 15.7963 31.0086 15.6951C31.1109 15.594 31.1693 15.4565 31.171 15.3126V13.6721C31.1701 12.9472 30.8818 12.2523 30.3692 11.7397C29.8566 11.2271 29.1617 10.9388 28.4368 10.9379H17.7597C18.1933 9.92689 18.0125 7.92433 18.0468 6.83653L18.7032 6.34452C19.8657 5.61084 21.2837 2.44263 19.1406 2.18842L10.9379 2.18848C10.213 2.18933 9.51807 2.47767 9.00549 2.99025C8.49291 3.50283 8.20457 4.19778 8.20372 4.92268C8.27298 6.20779 7.98864 9.81257 8.49083 10.9379H6.56319C5.8383 10.9388 5.14334 11.2271 4.63076 11.7397C4.11819 12.2523 3.82985 12.9472 3.829 13.6721C3.8282 16.4814 3.82955 24.4248 3.829 27.3431C3.39405 27.3436 2.97706 27.5166 2.6695 27.8241C2.36195 28.1317 2.18895 28.5487 2.18848 28.9836V30.0773C2.18933 30.8022 2.47767 31.4972 2.99025 32.0098C3.50283 32.5223 4.19779 32.8107 4.92268 32.8115H26.9111C27.0551 32.8099 27.1926 32.7516 27.2939 32.6492C27.3952 32.5469 27.452 32.4087 27.452 32.2647C27.452 32.1207 27.3952 31.9825 27.2939 31.8801C27.1926 31.7777 27.0551 31.7194 26.9111 31.7178H4.92268C4.48773 31.7174 4.07073 31.5444 3.76318 31.2368C3.45563 30.9293 3.28263 30.5123 3.28216 30.0773V28.9836C3.2823 28.8387 3.33996 28.6996 3.44248 28.5971C3.545 28.4946 3.68401 28.4369 3.829 28.4368H11.0308C11.1033 28.4368 11.1751 28.4511 11.242 28.4789C11.3089 28.5068 11.3696 28.5477 11.4207 28.5991C11.9816 29.1112 12.7078 30.1536 13.5792 30.0773L14.9626 30.0773C15.1066 30.0757 15.2441 30.0174 15.3454 29.9151C15.4467 29.8127 15.5035 29.6745 15.5035 29.5305C15.5035 29.3865 15.4467 29.2483 15.3454 29.1459C15.2441 29.0435 15.1066 28.9852 14.9626 28.9836H13.5792C13.5067 28.9837 13.435 28.9694 13.368 28.9415C13.3011 28.9136 13.2404 28.8728 13.1894 28.8213C12.6266 28.3017 11.8999 27.2702 11.0309 27.3431L4.9227 27.3431V18.1701C5.21227 17.4838 5.69818 16.8983 6.31941 16.4872C6.94064 16.0761 7.66949 15.8577 8.41442 15.8595H10.3911C10.3964 16.5812 10.6868 17.2715 11.199 17.7799C11.7112 18.2883 12.4036 18.5736 13.1253 18.5736C13.847 18.5736 14.5394 18.2883 15.0516 17.7799C15.5638 17.2714 15.8542 16.5811 15.8595 15.8594L17.8362 15.8595C18.45 15.8588 19.0548 16.0078 19.598 16.2937C20.1412 16.5796 20.6065 16.9936 20.9535 17.5H19.0092C18.4706 17.4942 17.9517 17.7022 17.5663 18.0784C17.1809 18.4546 16.9604 18.9683 16.9532 19.5069V28.2782C16.9632 28.8165 17.1844 29.3294 17.5689 29.7063C17.9535 30.0831 18.4707 30.2939 19.0092 30.293H28.0189L30.1758 32.3784C30.2789 32.4805 30.3981 32.5649 30.5286 32.6283C30.7631 32.7517 31.0252 32.8133 31.2902 32.8072C31.5551 32.801 31.8141 32.7274 32.0427 32.5932C32.2712 32.4591 32.4618 32.2689 32.5963 32.0406C32.7308 31.8122 32.8049 31.5534 32.8115 31.2884L32.8115 19.5095C32.8043 18.971 32.5838 18.4573 32.1984 18.0811C31.813 17.7048 31.2941 17.4968 30.7555 17.5027ZM9.29742 9.29742V7.11004H16.9532V9.29742C16.7608 14.3687 9.48899 14.3672 9.29742 9.29742ZM10.9379 3.28218H19.1405C19.1395 3.70647 19.0402 4.12477 18.8505 4.50427C18.6607 4.88377 18.3857 5.21416 18.0468 5.46954L17.3178 6.01638H9.29742V4.92268C9.2979 4.48773 9.47089 4.07074 9.77844 3.76319C10.086 3.45563 10.503 3.28266 10.9379 3.28218ZM8.41439 14.7658C7.76322 14.7655 7.11862 14.896 6.51882 15.1495C5.91903 15.4031 5.37625 15.7744 4.92268 16.2417V13.6721C4.92315 13.2372 5.09615 12.8202 5.4037 12.5126C5.71126 12.2051 6.12825 12.0321 6.5632 12.0316H9.03596C9.39531 12.5671 9.8556 13.0274 10.3911 13.3867V14.7658H8.41439ZM14.7658 15.8595C14.7609 16.2914 14.5859 16.7039 14.2788 17.0076C13.9717 17.3113 13.5572 17.4816 13.1253 17.4816C12.6933 17.4816 12.2788 17.3113 11.9717 17.0076C11.6646 16.7039 11.4896 16.2913 11.4848 15.8594V13.9318C12.5456 14.3107 13.7049 14.3107 14.7658 13.9318V15.8595ZM31.7178 31.2885C31.7128 31.3778 31.682 31.4637 31.629 31.5358C31.576 31.6078 31.5031 31.6629 31.4194 31.6943C31.3356 31.7256 31.2445 31.7319 31.1572 31.7124C31.0699 31.6929 30.9902 31.6484 30.9278 31.5843L28.6202 29.3532C28.5183 29.2545 28.3819 29.1993 28.24 29.1994H19.0092C18.7603 29.2015 18.5205 29.1064 18.3408 28.9343C18.161 28.7623 18.0556 28.5268 18.0468 28.2782V19.5068C18.0538 19.2583 18.159 19.0226 18.3394 18.8515C18.5197 18.6803 18.7606 18.5876 19.0092 18.5936H30.5697C30.5876 18.5952 30.6057 18.5963 30.6242 18.5963H30.7555C31.0041 18.5903 31.245 18.683 31.4253 18.8541C31.6057 19.0253 31.7109 19.2609 31.7178 19.5095L31.7178 31.2885Z" fill="var(--fill-0, black)"/>
<path id="Vector_2" d="M27.0697 23.5152H25.4292V21.8747C25.4294 21.8028 25.4154 21.7315 25.388 21.6649C25.3607 21.5984 25.3204 21.5379 25.2696 21.4869C25.2188 21.436 25.1585 21.3955 25.092 21.3679C25.0255 21.3404 24.9543 21.3261 24.8823 21.3261C24.8104 21.3261 24.7391 21.3404 24.6727 21.3679C24.6062 21.3955 24.5459 21.436 24.4951 21.4869C24.4443 21.5379 24.404 21.5984 24.3766 21.6649C24.3492 21.7315 24.3353 21.8028 24.3355 21.8747V23.5152H22.695C22.5502 23.5157 22.4116 23.5735 22.3094 23.676C22.2072 23.7785 22.1499 23.9173 22.1499 24.0621C22.1499 24.2068 22.2072 24.3456 22.3094 24.4481C22.4116 24.5506 22.5502 24.6085 22.695 24.6089H24.3355V26.2495C24.336 26.3942 24.3938 26.5328 24.4963 26.635C24.5988 26.7372 24.7376 26.7946 24.8823 26.7946C25.0271 26.7946 25.1659 26.7372 25.2684 26.635C25.3709 26.5328 25.4287 26.3942 25.4292 26.2495V24.6089H27.0697C27.2136 24.6073 27.3511 24.5489 27.4524 24.4466C27.5536 24.3442 27.6103 24.206 27.6103 24.0621C27.6103 23.9181 27.5536 23.78 27.4524 23.6776C27.3511 23.5752 27.2136 23.5169 27.0697 23.5152Z" fill="var(--fill-0, black)"/>
</g>
</svg>
