<svg preserveAspectRatio="xMidYMid meet" width="100%" height="100%" overflow="visible" style="display: block;" viewBox="-7.60 -7.58 50.64 50.53" fill="none" xmlns="http://www.w3.org/2000/svg">
<g id="Group">
<path id="Vector" d="M23.1694 15.233C22.3801 15.233 21.638 14.9258 21.0803 14.3677C20.5222 13.8096 20.2146 13.068 20.2146 12.2787C20.2146 11.4898 20.5218 10.7477 21.0803 10.1896C21.638 9.63151 22.3801 9.3243 23.1694 9.3243C23.9583 9.3243 24.7003 9.63151 25.2584 10.1896C26.4101 11.3417 26.4101 13.216 25.2584 14.3677C24.7007 14.9258 23.9583 15.233 23.1694 15.233ZM23.1694 10.112C22.5904 10.112 22.0465 10.3373 21.6373 10.7465C21.228 11.1558 21.0023 11.7001 21.0023 12.2787C21.0023 12.8572 21.2276 13.4016 21.6373 13.8108C22.0465 14.22 22.5904 14.4453 23.1694 14.4453C23.748 14.4453 24.2923 14.22 24.7015 13.8108C25.5463 12.9659 25.5463 11.5914 24.7015 10.7465C24.2923 10.3373 23.748 10.112 23.1694 10.112ZM21.3588 10.4681H21.3627H21.3588Z" fill="var(--fill-0, #331B3B)"/>
<path id="Vector_2" d="M35.448 2.35372C35.4484 2.17648 35.4472 1.99846 35.4429 1.81925C35.4409 1.72039 35.437 1.62114 35.4334 1.52228C35.4291 1.39861 35.4252 1.27572 35.4189 1.15126C35.4067 0.913761 35.3913 0.675868 35.3712 0.4364C35.3555 0.244589 35.2034 0.0925577 35.0116 0.0764093C34.771 0.0563223 34.5319 0.0409617 34.2932 0.028752C34.1754 0.0224502 34.0585 0.0192993 33.9411 0.0149668C33.8352 0.0110281 33.7288 0.00708953 33.6233 0.00472635C33.4511 0.00118159 33.2802 0 33.1097 0C33.0797 0 33.0502 7.79478e-10 33.0203 0.000393863C29.5334 0.0185115 26.3348 0.892099 23.0981 2.7019C23.0941 2.70426 23.0922 2.70859 23.0882 2.71096C20.4773 4.1647 17.8688 6.22066 15.1657 8.92414C14.8171 9.2727 14.4744 9.6256 14.1385 9.98126C14.1255 9.98087 14.1137 9.97535 14.1003 9.97654L8.68585 10.3881C8.61023 10.394 8.53737 10.4212 8.47711 10.4673L0.155578 16.7986C0.0259976 16.8971 -0.029537 17.0649 0.0153633 17.2208C0.0602637 17.3772 0.19654 17.4899 0.358418 17.5044L8.31444 18.2224L11.5122 21.4198C10.4697 21.4135 9.29713 21.9015 8.35973 22.8385C7.93515 23.2631 7.59446 23.7389 7.34633 24.2556C6.99894 24.9918 6.22618 26.9107 5.40773 28.9426L5.01387 29.9206C4.95479 30.0671 4.98906 30.2349 5.10052 30.3463C5.17575 30.4215 5.27658 30.4617 5.37898 30.4617C5.42861 30.4617 5.47863 30.4527 5.52629 30.4334L6.53812 30.0257C8.5547 29.2136 10.459 28.4467 11.194 28.1001C11.7076 27.8528 12.1837 27.5125 12.6083 27.0875C13.3512 26.3447 13.8423 25.4325 13.9912 24.5187C14.0235 24.321 14.0349 24.1292 14.0341 23.9421L17.1515 27.0584L17.8699 35.0152C17.8845 35.177 17.9972 35.3133 18.1535 35.3582C18.1894 35.3685 18.2264 35.3736 18.2622 35.3736C18.3831 35.3736 18.5001 35.3176 18.5757 35.218L24.9075 26.8969C24.9532 26.8366 24.9811 26.7641 24.9866 26.6885L25.3903 21.38C25.772 21.0212 26.1505 20.6557 26.5243 20.2819C29.2281 17.5781 31.2841 14.9695 32.7382 12.3582C32.7402 12.3547 32.7442 12.3531 32.7461 12.3496C34.5579 9.10964 35.4315 5.90872 35.4476 2.41595C35.4476 2.39547 35.4476 2.3746 35.448 2.35372ZM34.0443 7.13639C34.0321 7.18248 34.0191 7.22816 34.0065 7.27425C33.6406 8.5925 33.0927 9.99859 32.2975 11.4957L23.9524 3.15051C25.4471 2.35648 26.8516 1.8094 28.1679 1.44351C28.2175 1.43011 28.2671 1.41594 28.3167 1.40254C28.414 1.37616 28.5105 1.35213 28.607 1.3281C30.5346 0.852318 32.5114 0.69241 34.6118 0.836564C34.756 2.93467 34.5965 4.91028 34.1215 6.83588C34.0963 6.93552 34.0715 7.03556 34.0443 7.13639ZM8.86152 11.164L13.3673 10.8218C12.5552 11.7217 11.7887 12.6371 11.0723 13.5607C11.0711 13.5619 11.0695 13.5627 11.0683 13.5638C11.0376 13.6032 11.0096 13.6426 10.9793 13.682C10.7485 13.9813 10.5216 14.2811 10.3023 14.5816C10.2582 14.6422 10.2164 14.7025 10.1727 14.7628C9.96551 15.0495 9.7607 15.3362 9.56456 15.6229C9.48264 15.7427 9.40662 15.8612 9.32667 15.9806C9.17424 16.2082 9.02024 16.4363 8.8753 16.6639C8.70909 16.9239 8.55351 17.1819 8.39794 17.4394L1.44036 16.8108L8.86152 11.164ZM9.65239 16.9128C9.75007 16.762 9.85208 16.61 9.9537 16.4583C10.0573 16.3028 10.162 16.1468 10.2692 15.9912C10.4019 15.7986 10.5374 15.6052 10.6756 15.4118C10.7497 15.3079 10.8253 15.2043 10.9005 15.1007C11.0636 14.8766 11.2282 14.6525 11.3988 14.428C11.4055 14.4193 11.4126 14.4102 11.4193 14.4016L21.0464 24.0288C21.0354 24.037 21.0244 24.0457 21.0134 24.0544C20.7932 24.2214 20.5734 24.3824 20.3536 24.5428C20.2461 24.6211 20.1386 24.6991 20.0311 24.7759C19.8404 24.9122 19.6502 25.0453 19.4607 25.1761C19.3001 25.2868 19.1394 25.3947 18.9787 25.5014C18.8321 25.5995 18.6852 25.6983 18.5391 25.7929C18.2232 25.9969 17.9074 26.1962 17.5931 26.3856L9.06199 17.8554C9.25065 17.5418 9.44916 17.2275 9.65239 16.9128ZM13.2141 24.3923C13.0916 25.1442 12.6788 25.9035 12.0518 26.5306C11.6898 26.8921 11.2865 27.1816 10.8552 27.3888C10.1439 27.7248 8.16123 28.5227 6.2439 29.2951L6.0903 29.3569L6.13953 29.2344C6.91702 27.3037 7.72089 25.3072 8.05725 24.5947C8.2656 24.1603 8.55509 23.7574 8.91666 23.3958C9.69887 22.6136 10.6615 22.193 11.4858 22.193C11.9896 22.193 12.4417 22.3497 12.7694 22.6778C13.1712 23.0788 13.3291 23.6873 13.2141 24.3923ZM24.2099 26.5129L18.5631 33.9332L17.9452 27.0887C18.2236 26.9217 18.5029 26.7523 18.7841 26.5723C19.0058 26.4309 19.2276 26.2809 19.4493 26.1328C19.575 26.0489 19.6998 25.9689 19.8259 25.8823C20.1051 25.6913 20.384 25.492 20.6628 25.2907C20.7321 25.2407 20.8011 25.193 20.8704 25.1426C21.1603 24.9311 21.449 24.7121 21.7377 24.49C21.7865 24.4526 21.8353 24.4175 21.8842 24.3797C21.8858 24.3785 21.8865 24.3761 21.8881 24.375C22.7818 23.6818 23.6688 22.9425 24.5408 22.1591L24.2099 26.5129ZM25.9674 19.725C24.5833 21.1091 23.1386 22.3907 21.6754 23.5435L11.9041 13.7726C13.0569 12.3094 14.3386 10.8647 15.723 9.48066C18.4414 6.76222 20.9413 4.86341 23.2351 3.54752L31.9005 12.2129C30.5846 14.5067 28.6858 17.0066 25.9674 19.725Z" fill="var(--fill-0, #331B3B)"/>
</g>
</svg>
