<svg preserveAspectRatio="none" width="100%" height="100%" overflow="visible" style="display: block;" viewBox="0 0 71.8346 73.5653" fill="none" xmlns="http://www.w3.org/2000/svg">
<g id="Group">
<path id="Vector" d="M66.8717 5.07577C66.82 5.06723 66.7733 5.04509 66.7193 5.04509C66.717 5.04509 66.7147 5.04509 66.7122 5.04509L66.5785 5.04591C66.463 5.03869 66.3536 5.01129 66.2365 5.01129C66.1028 5.01129 65.9776 5.04164 65.8462 5.05099L52.4465 5.14024V0.955172C52.4465 0.428039 52.0173 0 51.4902 0H0.955172C0.428039 0 0 0.428039 0 0.955172V64.093C0 69.2245 4.15423 73.3998 9.26248 73.3998H55.1408C55.5909 73.5071 56.0598 73.5653 56.5427 73.5653C59.631 73.5653 62.1826 71.2118 62.5162 68.2005H70.8783C71.4054 68.2005 71.8346 67.7713 71.8346 67.2441V10.6304C71.8344 7.75015 69.656 5.39716 66.8717 5.07577ZM9.26231 71.487C5.20833 71.487 1.91018 68.1701 1.91018 64.0928V1.91034H50.5339V67.5311C50.5339 69.0426 51.0914 70.4281 52.0104 71.487H9.26231ZM60.6408 10.6304V67.5311C60.6408 69.8053 58.8028 71.6527 56.5425 71.6527C54.2847 71.6527 52.4467 69.8053 52.4467 67.5311V7.05075L62.0117 6.98693C61.1691 7.97081 60.6408 9.23393 60.6408 10.6304ZM69.9218 66.2878H62.5534V10.6304C62.5534 8.72025 64.0003 7.16051 65.8468 6.96134L66.5784 6.95658C68.448 7.13327 69.922 8.70384 69.922 10.6304V66.2878H69.9218Z" fill="var(--fill-0, #888181)"/>
<path id="Vector_2" d="M35.6921 21.2737H27.0314V18.3906H31.9134C33.6722 18.3906 35.1043 16.9596 35.1043 15.2009V9.16092C35.1043 7.40217 33.6722 5.97122 31.9134 5.97122H20.2368C18.478 5.97122 17.0459 7.40217 17.0459 9.16092V15.201C17.0459 16.9598 18.478 18.3908 20.2368 18.3908H25.1188V21.2738H16.4606C15.9334 21.2738 15.5042 21.7019 15.5042 22.229V32.7382C15.5042 33.2653 15.9334 33.6933 16.4606 33.6933H35.6921C36.2193 33.6933 36.6484 33.2653 36.6484 32.7382V22.229C36.6484 21.7017 36.2193 21.2737 35.6921 21.2737ZM20.2368 16.4804C19.5323 16.4804 18.9586 15.9067 18.9586 15.201V9.16092C18.9586 8.45529 19.5323 7.88156 20.2368 7.88156H31.9134C32.6179 7.88156 33.1916 8.45529 33.1916 9.16092V15.201C33.1916 15.9067 32.6179 16.4804 31.9134 16.4804H20.2368ZM34.7358 31.7828H17.4169V23.184H34.7358V31.7828Z" fill="var(--fill-0, #888181)"/>
<path id="Vector_3" d="M35.6921 36.5763H16.4606C15.9334 36.5763 15.5042 37.0043 15.5042 37.5314V48.0406C15.5042 48.5678 15.9334 48.9969 16.4606 48.9969H35.6921C36.2193 48.9969 36.6484 48.5678 36.6484 48.0406V37.5314C36.6484 37.0043 36.2193 36.5763 35.6921 36.5763ZM34.7358 47.0843H17.4169V38.4866H34.7358V47.0843Z" fill="var(--fill-0, #888181)"/>
<path id="Vector_4" d="M35.6921 51.8775H16.4606C15.9334 51.8775 15.5042 52.3067 15.5042 52.8339V63.3419C15.5042 63.869 15.9334 64.2982 16.4606 64.2982H35.6921C36.2193 64.2982 36.6484 63.869 36.6484 63.3419V52.8339C36.6484 52.3067 36.2193 51.8775 35.6921 51.8775ZM34.7358 62.3856H17.4169V53.7902H34.7358V62.3856Z" fill="var(--fill-0, #888181)"/>
<path id="Vector_5" d="M40.6931 30.1024C40.9636 30.1024 41.2342 29.9869 41.4232 29.7629C41.7637 29.3593 41.7124 28.7564 41.3088 28.4171L41.0227 28.1758H44.1149C46.0743 28.1758 47.6697 26.5816 47.6697 24.6222V13.8144C47.6697 11.8552 46.0742 10.2619 44.1149 10.2619H39.5479C39.0208 10.2619 38.5916 10.69 38.5916 11.2171C38.5916 11.7442 39.0208 12.1723 39.5479 12.1723H44.1149C45.0199 12.1723 45.757 12.9094 45.757 13.8144V24.6222C45.757 25.5283 45.0199 26.2654 44.1149 26.2654H41.0133L41.309 26.017C41.7126 25.6776 41.7638 25.0747 41.4256 24.6712C41.0827 24.2665 40.4832 24.2164 40.0774 24.5546L37.7844 26.4825C37.7693 26.4953 37.7631 26.5153 37.7488 26.5289C37.7025 26.5724 37.6712 26.6267 37.6343 26.6787C37.5974 26.7315 37.5533 26.7775 37.5277 26.8364C37.4873 26.9272 37.4719 27.0285 37.4617 27.1315C37.4592 27.1596 37.4437 27.1843 37.4437 27.2126C37.4437 27.2139 37.4445 27.2152 37.4445 27.2165C37.4445 27.218 37.4437 27.2193 37.4437 27.2208C37.4437 27.3614 37.4779 27.4923 37.5327 27.6125C37.536 27.6196 37.5423 27.6248 37.5457 27.6317C37.6013 27.7463 37.6783 27.845 37.7726 27.9285C37.7774 27.9328 37.7793 27.9395 37.7843 27.9436L40.0772 29.8773C40.2568 30.0289 40.4762 30.1024 40.6931 30.1024Z" fill="var(--fill-0, #888181)"/>
<path id="Vector_6" d="M14.8334 43.1317C14.8235 43.0279 14.8076 42.9258 14.7669 42.8344C14.7413 42.776 14.6977 42.7304 14.6611 42.6779C14.624 42.6257 14.5927 42.5711 14.5461 42.5275C14.5318 42.5137 14.5258 42.4938 14.5105 42.481L12.2176 40.5531C11.8117 40.2148 11.2076 40.265 10.8693 40.6698C10.531 41.0734 10.5824 41.6763 10.986 42.0156L11.2816 42.264H8.17999C7.27502 42.264 6.53789 41.5268 6.53789 40.6219V29.8141C6.53789 28.9091 7.27502 28.172 8.17999 28.172H12.747C13.2741 28.172 13.7033 27.744 13.7033 27.2168C13.7033 26.6897 13.2741 26.2616 12.747 26.2616H8.17999C6.22076 26.2616 4.62525 27.8547 4.62525 29.8141V40.6219C4.62525 42.5813 6.22076 44.1755 8.17999 44.1755H11.2708L10.9861 44.4157C10.5825 44.7562 10.5313 45.358 10.8718 45.7615C11.0608 45.9854 11.3313 46.1021 11.6018 46.1021C11.8187 46.1021 12.0381 46.0274 12.2176 45.8758L14.5105 43.9422C14.5151 43.9384 14.5166 43.9323 14.5212 43.9284C14.617 43.8439 14.6954 43.7437 14.7514 43.6272C14.7541 43.6214 14.7592 43.6173 14.7619 43.6116C14.8168 43.4912 14.8511 43.3599 14.8511 43.2191C14.8511 43.2177 14.8503 43.2164 14.8503 43.2149C14.8503 43.2136 14.8511 43.2123 14.8511 43.2109C14.8511 43.1834 14.8358 43.1591 14.8334 43.1317Z" fill="var(--fill-0, #888181)"/>
<path id="Vector_7" d="M44.7377 41.8302H40.1682C39.6411 41.8302 39.2119 42.2582 39.2119 42.7854C39.2119 43.3125 39.6411 43.7417 40.1682 43.7417H44.7377C45.6427 43.7417 46.3775 44.4788 46.3775 45.3838V56.1904C46.3775 57.0954 45.6428 57.8325 44.7377 57.8325H41.635L41.9316 57.583C42.3352 57.2447 42.3864 56.6406 42.0459 56.2372C41.7078 55.836 41.1059 55.7799 40.7001 56.1228L38.4072 58.0519C38.3931 58.0637 38.3875 58.0824 38.3742 58.0949C38.325 58.141 38.291 58.1979 38.2525 58.2533C38.2175 58.304 38.1754 58.3478 38.1508 58.4043C38.1089 58.4986 38.0917 58.6035 38.0825 58.7108C38.0805 58.7354 38.0666 58.7572 38.0666 58.7821C38.0666 58.7833 38.0673 58.7843 38.0673 58.7854C38.0673 58.7867 38.0666 58.7877 38.0666 58.789C38.0666 58.9296 38.1007 59.0605 38.1555 59.181C38.1593 59.1892 38.1665 59.1951 38.1706 59.2033C38.2262 59.3168 38.3027 59.4154 38.3965 59.4983C38.4011 59.5022 38.4026 59.5083 38.4072 59.512L40.7001 61.4457C40.8798 61.5973 41.099 61.6719 41.3159 61.6719C41.5864 61.6719 41.8569 61.5553 42.0459 61.3313C42.3865 60.9277 42.3352 60.3259 41.9316 59.9855L41.6471 59.7453H44.7375C46.6968 59.7453 48.29 58.1498 48.29 56.1906V45.384C48.29 43.4246 46.6969 41.8302 44.7377 41.8302Z" fill="var(--fill-0, #888181)"/>
</g>
</svg>
