<svg preserveAspectRatio="none" width="100%" height="100%" overflow="visible" style="display: block;" viewBox="0 0 59.5099 62.9982" fill="none" xmlns="http://www.w3.org/2000/svg">
<g id="_366840792">
<path id="_366810264" fill-rule="evenodd" clip-rule="evenodd" d="M29.7549 30.7718C29.6417 30.7718 29.5283 30.7426 29.4267 30.684L16.6706 23.3192C16.4674 23.2019 16.3424 22.9854 16.3424 22.7509V8.02139C16.3424 7.78694 16.4676 7.57021 16.6706 7.45307L29.4267 0.0879785C29.6299 -0.0293262 29.88 -0.0293262 30.083 0.0879785L42.8393 7.45274C43.0423 7.57005 43.1675 7.78661 43.1675 8.02106V22.7506C43.1675 22.985 43.0425 23.2018 42.8393 23.3189L30.083 30.684C29.9814 30.7426 29.8682 30.7718 29.7549 30.7718ZM17.6549 22.3719L29.7549 29.3579L41.855 22.3719V8.40004L29.7549 1.41426L17.6549 8.40021V22.3719Z" fill="var(--fill-0, #888181)"/>
<path id="_366810360" fill-rule="evenodd" clip-rule="evenodd" d="M32.3912 25.7889C32.1645 25.7889 31.9438 25.6711 31.8222 25.4606C31.6409 25.1467 31.7484 24.7454 32.0622 24.5641L38.8572 20.6411V12.3996C38.8572 12.037 39.1511 11.7433 39.5135 11.7433C39.8759 11.7433 40.1697 12.0371 40.1697 12.3996V21.0199C40.1697 21.2543 40.0447 21.4711 39.8416 21.5882L32.7183 25.7008C32.6151 25.7606 32.5024 25.7889 32.3912 25.7889Z" fill="var(--fill-0, #888181)"/>
<path id="_366810192" fill-rule="evenodd" clip-rule="evenodd" d="M29.7549 30.7718C29.3925 30.7718 29.0986 30.4779 29.0986 30.1155V15.386C29.0986 15.1515 29.2238 14.9348 29.4267 14.8177L42.1829 7.45291C42.4966 7.27145 42.8981 7.37908 43.0792 7.69326C43.2605 8.00711 43.153 8.40841 42.8392 8.5897L30.4111 15.765V30.1157C30.4113 30.4781 30.1174 30.7719 29.7549 30.7718Z" fill="var(--fill-0, #888181)"/>
<path id="_366810288" fill-rule="evenodd" clip-rule="evenodd" d="M29.7544 16.0424C29.643 16.0424 29.5301 16.014 29.4267 15.9543L16.6704 8.58953C16.3565 8.40824 16.2489 8.00695 16.43 7.69309C16.6113 7.37924 17.013 7.27178 17.3265 7.45274L30.083 14.8175C30.3968 14.9988 30.5045 15.4001 30.323 15.7139C30.2018 15.9246 29.9811 16.0424 29.7544 16.0424Z" fill="var(--fill-0, #888181)"/>
<path id="_366810744" fill-rule="evenodd" clip-rule="evenodd" d="M29.7549 36.8856C29.3925 36.8856 29.0986 36.5919 29.0986 36.2293V30.1157C29.0986 29.7531 29.3925 29.4594 29.7549 29.4594C30.1174 29.4594 30.4111 29.7533 30.4111 30.1157V36.2293C30.4113 36.5919 30.1174 36.8856 29.7549 36.8856Z" fill="var(--fill-0, #888181)"/>
<path id="_366810336" fill-rule="evenodd" clip-rule="evenodd" d="M52.2377 49.7661C51.8752 49.7661 51.5814 49.4723 51.5814 49.1099L51.5812 40.9131C51.5812 40.5505 51.8751 40.2569 52.2375 40.2569C52.6001 40.2569 52.8937 40.5507 52.8937 40.9131L52.8939 49.1099C52.8939 49.4724 52.6001 49.7661 52.2377 49.7661ZM29.7549 49.7661C29.3925 49.7661 29.0986 49.4723 29.0986 49.1099V40.9131C29.0986 40.5505 29.3925 40.2569 29.7549 40.2569C30.1174 40.2569 30.4111 40.5507 30.4111 40.9131V49.1099C30.4113 49.4724 30.1174 49.7661 29.7549 49.7661ZM7.27207 49.7661C6.90966 49.7661 6.61582 49.4723 6.61582 49.1099V40.9131C6.61582 40.5505 6.90966 40.2569 7.27207 40.2569C7.63465 40.2569 7.92832 40.5507 7.92832 40.9131V49.1099C7.92832 49.4724 7.63465 49.7661 7.27207 49.7661ZM49.8955 39.2275H32.0969C31.7344 39.2275 31.4406 38.9337 31.4406 38.5713C31.4406 38.2089 31.7344 37.915 32.0969 37.915H49.8957C50.2582 37.915 50.5519 38.2089 50.5519 38.5713C50.5519 38.9337 50.2581 39.2275 49.8955 39.2275ZM27.4129 39.2275H9.61406C9.25165 39.2275 8.95781 38.9337 8.95781 38.5713C8.95781 38.2089 9.25165 37.915 9.61406 37.915H27.4129C27.7753 37.915 28.0691 38.2089 28.0691 38.5713C28.0691 38.9337 27.7753 39.2275 27.4129 39.2275Z" fill="var(--fill-0, #888181)"/>
<path id="_366810216" fill-rule="evenodd" clip-rule="evenodd" d="M7.27223 41.5694C5.61914 41.5694 4.27432 40.2244 4.27432 38.5711C4.27432 36.9179 5.6193 35.5729 7.27223 35.5729C8.92549 35.5729 10.2705 36.9179 10.2705 38.5711C10.2703 40.2244 8.92549 41.5694 7.27223 41.5694ZM7.27223 36.8856C6.34282 36.8856 5.58649 37.6419 5.58649 38.5713C5.58649 39.5007 6.34266 40.257 7.27223 40.257C8.20181 40.257 8.95798 39.5007 8.95798 38.5713C8.95798 37.6419 8.20181 36.8854 7.27223 36.8856Z" fill="var(--fill-0, #888181)"/>
<path id="_366809952" fill-rule="evenodd" clip-rule="evenodd" d="M29.7549 41.5694C28.1016 41.5694 26.7566 40.2244 26.7566 38.5711C26.7566 36.9179 28.1016 35.5729 29.7549 35.5729C31.408 35.5729 32.7528 36.9179 32.7528 38.5711C32.7528 40.2244 31.4081 41.5694 29.7549 41.5694ZM29.7549 36.8856C28.8255 36.8856 28.0691 37.6419 28.0691 38.5713C28.0691 39.5007 28.8253 40.257 29.7549 40.257C30.6844 40.257 31.4406 39.5007 31.4406 38.5713C31.4406 37.6419 30.6844 36.8854 29.7549 36.8856Z" fill="var(--fill-0, #888181)"/>
<path id="_366809928" fill-rule="evenodd" clip-rule="evenodd" d="M52.2377 41.5694C50.5844 41.5694 49.2394 40.2244 49.2394 38.5711C49.2394 36.9179 50.5844 35.5729 52.2377 35.5729C53.8909 35.5729 55.2359 36.9179 55.2359 38.5711C55.2357 40.2244 53.8909 41.5694 52.2377 41.5694ZM52.2377 36.8856C51.3083 36.8856 50.5519 37.6419 50.5519 38.5713C50.5519 39.5007 51.3081 40.257 52.2377 40.257C53.1672 40.257 53.9234 39.5007 53.9234 38.5713C53.9234 37.6419 53.1672 36.8854 52.2377 36.8856Z" fill="var(--fill-0, #888181)"/>
<path id="_366809520" fill-rule="evenodd" clip-rule="evenodd" d="M12.6002 62.9982H1.94431C0.872321 62.9982 5.36442e-07 62.1261 5.36442e-07 61.0539V50.3981C5.36442e-07 49.3261 0.872157 48.4538 1.94431 48.4538H12.6002C13.6722 48.4538 14.5445 49.3259 14.5445 50.3981V61.0539C14.5445 62.1261 13.6722 62.9982 12.6002 62.9982ZM1.94431 49.7661C1.59584 49.7661 1.31234 50.0494 1.31234 50.3979V61.0538C1.31234 61.4022 1.59584 61.6856 1.94431 61.6856H12.6002C12.9486 61.6856 13.2321 61.4022 13.2321 61.0538V50.3979C13.2321 50.0494 12.9486 49.7661 12.6002 49.7661H1.94431Z" fill="var(--fill-0, #888181)"/>
<path id="_366809736" fill-rule="evenodd" clip-rule="evenodd" d="M35.0828 62.9982H24.4269C23.355 62.9982 22.4826 62.1261 22.4826 61.0539V50.3981C22.4826 49.3261 23.3548 48.4538 24.4269 48.4538H35.0828C36.1548 48.4538 37.0271 49.3259 37.0271 50.3981V61.0539C37.0269 62.1261 36.1548 62.9982 35.0828 62.9982ZM24.4269 49.7661C24.0785 49.7661 23.7951 50.0494 23.7951 50.3979V61.0538C23.7951 61.4022 24.0786 61.6856 24.4269 61.6856H35.0828C35.4313 61.6856 35.7146 61.4022 35.7146 61.0538V50.3979C35.7146 50.0494 35.4313 49.7661 35.0828 49.7661H24.4269Z" fill="var(--fill-0, #888181)"/>
<path id="_366809712" fill-rule="evenodd" clip-rule="evenodd" d="M57.5656 62.9982H46.9097C45.8377 62.9982 44.9653 62.1261 44.9653 61.0539V50.3981C44.9653 49.3261 45.8374 48.4538 46.9097 48.4538H57.5656C58.6376 48.4538 59.5099 49.3259 59.5099 50.3981V61.0539C59.5099 62.1261 58.6377 62.9982 57.5656 62.9982ZM46.9099 49.7661C46.5614 49.7661 46.2779 50.0494 46.2779 50.3979V61.0538C46.2779 61.4022 46.5614 61.6856 46.9099 61.6856H57.5658C57.9142 61.6856 58.1976 61.4022 58.1976 61.0538V50.3979C58.1976 50.0494 57.9142 49.7661 57.5658 49.7661H46.9099Z" fill="var(--fill-0, #888181)"/>
<path id="_366809688" fill-rule="evenodd" clip-rule="evenodd" d="M10.5509 52.8985H3.99361C3.63103 52.8985 3.33736 52.6047 3.33736 52.2423C3.33736 51.8797 3.63119 51.586 3.99361 51.586H10.551C10.9136 51.586 11.2073 51.8797 11.2073 52.2423C11.2073 52.6047 10.9134 52.8985 10.5509 52.8985Z" fill="var(--fill-0, #888181)"/>
<path id="_366809976" fill-rule="evenodd" clip-rule="evenodd" d="M10.5509 56.3823H3.99361C3.63103 56.3823 3.33736 56.0884 3.33736 55.726C3.33736 55.3634 3.63119 55.0698 3.99361 55.0698H10.551C10.9136 55.0698 11.2073 55.3634 11.2073 55.726C11.2073 56.0884 10.9134 56.3823 10.5509 56.3823Z" fill="var(--fill-0, #888181)"/>
<path id="_366809760" fill-rule="evenodd" clip-rule="evenodd" d="M10.5509 59.8656H3.99361C3.63103 59.8656 3.33736 59.572 3.33736 59.2094C3.33736 58.847 3.63119 58.5531 3.99361 58.5531H10.551C10.9136 58.5531 11.2073 58.847 11.2073 59.2094C11.2073 59.5718 10.9134 59.8656 10.5509 59.8656Z" fill="var(--fill-0, #888181)"/>
<path id="_366809664" fill-rule="evenodd" clip-rule="evenodd" d="M33.0335 52.8985H26.4761C26.1137 52.8985 25.8198 52.6047 25.8198 52.2423C25.8198 51.8797 26.1137 51.586 26.4761 51.586H33.0335C33.3961 51.586 33.6897 51.8797 33.6897 52.2423C33.6897 52.6047 33.3959 52.8985 33.0335 52.8985Z" fill="var(--fill-0, #888181)"/>
<path id="_366809400" fill-rule="evenodd" clip-rule="evenodd" d="M33.0335 56.3823H26.4761C26.1137 56.3823 25.8198 56.0884 25.8198 55.726C25.8198 55.3634 26.1137 55.0698 26.4761 55.0698H33.0335C33.3961 55.0698 33.6897 55.3634 33.6897 55.726C33.6897 56.0884 33.3959 56.3823 33.0335 56.3823Z" fill="var(--fill-0, #888181)"/>
<path id="_366841848" fill-rule="evenodd" clip-rule="evenodd" d="M33.0335 59.8656H26.4761C26.1137 59.8656 25.8198 59.572 25.8198 59.2094C25.8198 58.847 26.1137 58.5531 26.4761 58.5531H33.0335C33.3961 58.5531 33.6897 58.847 33.6897 59.2094C33.6897 59.5718 33.3959 59.8656 33.0335 59.8656Z" fill="var(--fill-0, #888181)"/>
<path id="_366841704" fill-rule="evenodd" clip-rule="evenodd" d="M55.5163 52.8985H48.9587C48.5963 52.8985 48.3025 52.6047 48.3025 52.2423C48.3025 51.8797 48.5963 51.586 48.9587 51.586H55.5163C55.8789 51.586 56.1725 51.8797 56.1725 52.2423C56.1725 52.6047 55.8789 52.8985 55.5163 52.8985Z" fill="var(--fill-0, #888181)"/>
<path id="_366841824" fill-rule="evenodd" clip-rule="evenodd" d="M55.5163 56.3821H48.9587C48.5963 56.3821 48.3025 56.0884 48.3025 55.7258C48.3025 55.3634 48.5963 55.0696 48.9587 55.0696H55.5163C55.8789 55.0696 56.1725 55.3634 56.1725 55.7258C56.1725 56.0884 55.8789 56.3821 55.5163 56.3821Z" fill="var(--fill-0, #888181)"/>
<path id="_366841632" fill-rule="evenodd" clip-rule="evenodd" d="M55.5163 59.8656H48.9587C48.5963 59.8656 48.3025 59.572 48.3025 59.2094C48.3025 58.847 48.5963 58.5531 48.9587 58.5531H55.5163C55.8789 58.5531 56.1725 58.847 56.1725 59.2094C56.1725 59.5718 55.8789 59.8656 55.5163 59.8656Z" fill="var(--fill-0, #888181)"/>
<path id="_366840840" fill-rule="evenodd" clip-rule="evenodd" d="M27.1189 25.7889C27.0075 25.7889 26.8946 25.7605 26.7912 25.7008L19.668 21.5882C19.4649 21.4709 19.3399 21.2543 19.3399 21.0199V12.2824C19.3399 11.9198 19.6337 11.6262 19.9961 11.6262C20.3585 11.6262 20.6524 11.92 20.6524 12.2824V20.6409L27.4475 24.564C27.7613 24.7453 27.869 25.1466 27.6878 25.4604C27.5663 25.6712 27.3456 25.7889 27.1189 25.7889Z" fill="var(--fill-0, #888181)"/>
</g>
</svg>
