<svg preserveAspectRatio="none" width="100%" height="100%" overflow="visible" style="display: block;" viewBox="0 0 64.6766 80.6517" fill="none" xmlns="http://www.w3.org/2000/svg">
<g id="Group">
<path id="Vector" d="M41.9651 19.5613C45.9572 19.5613 49.205 16.3039 49.205 12.2999C49.205 8.30813 45.9572 5.06051 41.9651 5.06051C37.9733 5.06051 34.7256 8.30829 34.7256 12.2999C34.7255 16.3039 37.9733 19.5613 41.9651 19.5613ZM41.9651 6.64174C45.085 6.64174 47.6236 9.17979 47.6236 12.2998C47.6236 15.4317 45.085 17.9798 41.9651 17.9798C38.8451 17.9798 36.307 15.4316 36.307 12.2998C36.307 9.17995 38.8451 6.64174 41.9651 6.64174Z" fill="var(--fill-0, #888181)"/>
<path id="Vector_2" d="M30.6867 17.578C31.1235 17.578 31.4775 17.2239 31.4775 16.7872V8.78916C31.4775 3.94259 27.5348 4.47035e-08 22.6887 4.47035e-08H18.8227C13.9762 4.47035e-08 10.0336 3.94275 10.0336 8.78916C10.0336 13.6352 13.9763 17.578 18.8227 17.578H30.6867ZM11.615 8.78916C11.615 4.81474 14.8485 1.5814 18.8227 1.5814H22.6885C26.6629 1.5814 29.896 4.81491 29.896 8.78916V15.9966H18.8227C14.8483 15.9966 11.615 12.7636 11.615 8.78916Z" fill="var(--fill-0, #888181)"/>
<path id="Vector_3" d="M0 38.1107C0 40.7141 2.11772 42.8318 4.72106 42.8318H4.83837V56.7112C4.83837 58.6917 6.44995 60.3033 8.43052 60.3033H12.7101C13.072 63.4425 15.7346 65.8888 18.9597 65.8888C22.1849 65.8888 24.8478 63.4425 25.2098 60.3033H28.6289V62.0681C28.6289 62.5049 28.983 62.8589 29.4197 62.8589H38.5703C40.738 62.8589 42.6766 61.8621 43.954 60.3035H56.246C58.2266 60.3035 59.8379 58.6919 59.8379 56.7113V42.832H59.9552C62.5585 42.832 64.6766 40.7142 64.6766 38.1109C64.6766 35.5076 62.5585 33.3895 59.9552 33.3895H53.5789C53.8632 32.7175 54.0345 31.9864 54.0345 31.2121C54.0345 27.318 52.0577 23.7664 48.7471 21.712C47.5402 20.9619 46.0017 21.1183 45.0051 22.0884C43.3155 23.7341 40.616 23.7362 38.9255 22.0881C37.9286 21.1186 36.39 20.9634 35.1832 21.712C31.8726 23.7668 29.8961 27.318 29.8961 31.2121C29.8961 31.9861 30.0661 32.7175 30.3496 33.3895H4.72106C2.11755 33.3893 0 35.5074 0 38.1107ZM18.9597 64.3074C16.3606 64.3074 14.246 62.1843 14.246 59.5744C14.246 56.9753 16.3606 54.8607 18.9597 54.8607C21.5593 54.8607 23.6739 56.9753 23.6739 59.5744C23.6739 62.1843 21.5593 64.3074 18.9597 64.3074ZM38.5701 61.2773H30.2103V55.8992C30.2103 52.9336 32.623 50.5211 35.5884 50.5211H38.5701C41.5357 50.5211 43.9482 52.9338 43.9482 55.8992C43.9482 58.8646 41.5357 61.2773 38.5701 61.2773ZM58.2563 56.7112C58.2563 57.8201 57.3544 58.7219 56.2459 58.7219H44.9259C45.3111 57.8581 45.5298 56.9046 45.5298 55.8992C45.5298 52.0615 42.4079 48.9397 38.5703 48.9397H35.5886C31.7509 48.9397 28.6291 52.0616 28.6291 55.8992V58.7219H25.1908C24.7725 55.6534 22.1414 53.2793 18.96 53.2793C15.7787 53.2793 13.1478 55.6534 12.7296 58.7219H8.43068C7.32178 58.7219 6.41993 57.8201 6.41993 56.7112V42.8318H58.2565V56.7112H58.2563ZM63.095 38.1107C63.095 39.8419 61.6865 41.2504 59.955 41.2504C41.9713 41.2504 22.6569 41.2504 4.7209 41.2504C2.98971 41.2504 1.58123 39.8419 1.58123 38.1107C1.58123 36.3792 2.98971 34.9707 4.7209 34.9707H59.955C61.6867 34.9707 63.095 36.3792 63.095 38.1107ZM31.4774 31.2119C31.4774 27.8688 33.1743 24.8195 36.017 23.0555C36.5938 22.6974 37.3544 22.7658 37.822 23.2212C40.1261 25.4661 43.8024 25.4666 46.1081 23.2216C46.5757 22.7668 47.3347 22.6966 47.9131 23.0555C50.7559 24.8195 52.4531 27.8688 52.4531 31.2119C52.4531 32.0153 52.2121 32.7598 51.8068 33.3893H32.1305C31.721 32.7611 31.4774 32.0175 31.4774 31.2119Z" fill="var(--fill-0, #888181)"/>
<path id="Vector_4" d="M24.8102 67.5104C23.7357 66.8437 22.364 66.9815 21.474 67.8471C20.0762 69.2081 17.8446 69.209 16.4456 67.8467C15.5564 66.982 14.1844 66.8428 13.1099 67.5104C10.2498 69.2849 8.54208 72.353 8.54208 75.7178C8.54208 78.4381 10.7554 80.6517 13.4763 80.6517H24.4438C27.1642 80.6517 29.3777 78.4383 29.3777 75.7178C29.3775 72.353 27.6698 69.2847 24.8102 67.5104ZM24.4437 79.0701H13.4761C11.6276 79.0701 10.1233 77.5663 10.1233 75.7176C10.1233 72.9038 11.5515 70.3379 13.9437 68.8538C14.3924 68.575 14.9814 68.6287 15.3425 68.9796C17.3535 70.938 20.5636 70.9406 22.577 68.9799C22.9391 68.6287 23.5267 68.5749 23.9761 68.8536C26.368 70.3377 27.796 72.9036 27.796 75.7175C27.7961 77.5663 26.2923 79.0701 24.4437 79.0701Z" fill="var(--fill-0, #888181)"/>
<path id="Vector_5" d="M19.9648 11.8515C19.9648 12.2883 20.3188 12.6423 20.7555 12.6423C21.1923 12.6423 21.5463 12.2883 21.5463 11.8515V9.57994H23.8181C24.2548 9.57994 24.6089 9.22589 24.6089 8.78916C24.6089 8.35242 24.2548 7.99838 23.8181 7.99838H21.5462V5.72677C21.5462 5.29003 21.1921 4.93598 20.7554 4.93598C20.3186 4.93598 19.9646 5.29003 19.9646 5.72677V7.99854H17.6928C17.2561 7.99854 16.902 8.35259 16.902 8.78932C16.902 9.22606 17.2561 9.5801 17.6928 9.5801H19.9646L19.9648 11.8515Z" fill="var(--fill-0, #888181)"/>
<path id="Vector_6" d="M40.7018 56.7896H33.4564C33.0197 56.7896 32.6658 57.1436 32.6658 57.5804C32.6658 58.0171 33.0199 58.3711 33.4564 58.3711H40.7018C41.1385 58.3711 41.4926 58.0171 41.4926 57.5804C41.4926 57.1436 41.1383 56.7896 40.7018 56.7896Z" fill="var(--fill-0, #888181)"/>
<path id="Vector_7" d="M40.7018 53.4274H33.4564C33.0197 53.4274 32.6658 53.7815 32.6658 54.2182C32.6658 54.655 33.0199 55.009 33.4564 55.009H40.7018C41.1385 55.009 41.4926 54.655 41.4926 54.2182C41.4926 53.7815 41.1383 53.4274 40.7018 53.4274Z" fill="var(--fill-0, #888181)"/>
</g>
</svg>
