<svg preserveAspectRatio="none" width="100%" height="100%" overflow="visible" style="display: block;" viewBox="0 0 68.0203 69.4031" fill="none" xmlns="http://www.w3.org/2000/svg">
<g id="45">
<path id="Vector" d="M57.864 10.8733C62.4309 15.4242 65.5859 21.1976 66.9495 27.4991C67.0479 27.9531 67.0436 28.4233 66.9369 28.8753C66.8301 29.3273 66.6236 29.7498 66.3325 30.1117C66.0413 30.4736 65.673 30.7658 65.2543 30.967C64.8356 31.1681 64.3773 31.2731 63.9128 31.2742C63.2041 31.2746 62.5167 31.0321 61.9651 30.5872C61.4134 30.1423 61.0308 29.5219 60.8811 28.8292C59.9451 24.5424 57.9965 20.542 55.1981 17.1624C52.3998 13.7828 48.833 11.1222 44.796 9.40312C40.7589 7.68405 36.369 6.95644 31.9933 7.28111C27.6175 7.60579 23.3831 8.97332 19.644 11.2694C19.5204 11.3469 19.4157 11.4511 19.3376 11.5743C19.2594 11.6976 19.2099 11.8368 19.1925 11.9816C19.1752 12.1265 19.1905 12.2735 19.2373 12.4117C19.2841 12.5499 19.3613 12.6758 19.4631 12.7804L21.155 14.4918C21.3454 14.682 21.4823 14.919 21.5519 15.179C21.6214 15.4389 21.6213 15.7126 21.5513 15.9724C21.4814 16.2323 21.3442 16.4691 21.1536 16.659C20.963 16.8489 20.7256 16.9852 20.4655 17.0542L11.0817 19.5481L8.14771 20.3305C7.88833 20.399 7.61552 20.3984 7.35646 20.3286C7.0974 20.2589 6.86113 20.1226 6.67118 19.9331C6.48123 19.7436 6.34424 19.5077 6.27384 19.2488C6.20345 18.99 6.20211 18.7172 6.26996 18.4576L7.49245 13.8953L9.5658 6.13979C9.63664 5.88101 9.77406 5.64532 9.96437 5.45618C10.1547 5.26705 10.3912 5.13108 10.6504 5.06183C10.9096 4.99257 11.1825 4.99245 11.4417 5.06147C11.701 5.13049 11.9377 5.26624 12.1281 5.4552L13.5707 6.89774C13.7331 7.0554 13.9453 7.15182 14.1709 7.17054C14.3965 7.18927 14.6216 7.12915 14.8078 7.00043C21.3027 2.50347 29.1696 0.428008 37.0376 1.13573C44.9056 1.84344 52.2758 5.28946 57.864 10.8733Z" stroke="var(--stroke-0, #5B6A5A)" stroke-width="2" stroke-linecap="round" stroke-linejoin="round"/>
<path id="Vector_2" d="M59.8933 49.0885C60.1528 49.0184 60.4263 49.0179 60.6861 49.0871C60.9459 49.1562 61.1829 49.2926 61.3732 49.4825C61.5636 49.6723 61.7006 49.909 61.7704 50.1686C61.8402 50.4282 61.8405 50.7016 61.771 50.9614L60.5534 55.5139L58.4654 63.2841C58.3958 63.5438 58.2591 63.7806 58.0689 63.9707C57.8787 64.1607 57.6418 64.2973 57.3821 64.3667C57.1223 64.4361 56.8488 64.4359 56.5892 64.366C56.3296 64.2961 56.0929 64.1591 55.9031 63.9687L54.4361 62.5017C54.2736 62.344 54.0615 62.2476 53.8359 62.2289C53.6103 62.2102 53.3852 62.2703 53.1989 62.399C48.6459 65.5555 43.3849 67.5407 37.8816 68.1788C32.3783 68.8169 26.8026 68.0883 21.6481 66.0575C16.4936 64.0266 11.9193 60.7562 8.33032 56.5357C4.74131 52.3153 2.24827 47.275 1.07194 41.8612C0.972553 41.4071 0.97619 40.9366 1.08258 40.4842C1.18897 40.0318 1.39541 39.609 1.68672 39.2468C1.97802 38.8847 2.34679 38.5924 2.76591 38.3916C3.18503 38.1907 3.64384 38.0863 4.1086 38.0861C4.81729 38.0858 5.50471 38.3282 6.05636 38.7731C6.60801 39.218 6.99059 39.8384 7.14038 40.5311C8.07633 44.8174 10.0246 48.8174 12.8223 52.197C15.62 55.5765 19.1859 58.2374 23.222 59.9573C27.2582 61.6771 31.6473 62.406 36.0227 62.0831C40.3981 61.7601 44.6327 60.3946 48.3725 58.1007C48.4962 58.0232 48.6009 57.919 48.679 57.7957C48.7571 57.6725 48.8067 57.5333 48.824 57.3885C48.8414 57.2436 48.8261 57.0966 48.7792 56.9584C48.7324 56.8202 48.6553 56.6942 48.5535 56.5897L46.8664 54.8978C46.676 54.708 46.539 54.4713 46.4691 54.2117C46.3992 53.952 46.399 53.6786 46.4684 53.4188C46.5378 53.1591 46.6744 52.9222 46.8644 52.732C47.0545 52.5418 47.2913 52.405 47.551 52.3355L56.9446 49.8171L59.8933 49.0885Z" stroke="var(--stroke-0, #5B6A5A)" stroke-width="2" stroke-linecap="round" stroke-linejoin="round"/>
<path id="Vector_3" d="M53.9862 31.5233C54.0392 33.2885 53.588 35.0322 52.6855 36.5502C52.2318 37.2737 51.7286 37.9648 51.1794 38.6186C47.3456 42.7604 34.0205 53.2885 34.0205 53.2885C34.0205 53.2885 20.7002 42.7849 16.8665 38.648C16.3167 37.99 15.8119 37.2957 15.3555 36.5698C14.4559 35.0508 14.0066 33.3074 14.0597 31.5429C14.0611 29.1491 14.8881 26.829 16.4014 24.9741C17.9146 23.1193 20.0213 21.8431 22.3661 21.3611C24.7109 20.879 27.1502 21.2205 29.2724 22.328C31.3947 23.4355 33.0699 25.2411 34.0156 27.4402C34.9569 25.2366 36.6303 23.4256 38.7528 22.3134C40.8752 21.2012 43.3166 20.856 45.6643 21.3361C48.0119 21.8162 50.1218 23.0922 51.6372 24.9484C53.1526 26.8046 53.9806 29.1271 53.9813 31.5233H53.9862Z" stroke="var(--stroke-0, #5B6A5A)" stroke-width="2" stroke-linecap="round" stroke-linejoin="round"/>
<path id="Vector_4" d="M32.177 30.5897H35.8885C35.9482 30.5897 36.0073 30.6014 36.0625 30.6243C36.1177 30.6471 36.1678 30.6806 36.21 30.7229C36.2523 30.7651 36.2858 30.8152 36.3086 30.8704C36.3315 30.9256 36.3432 30.9847 36.3432 31.0444V34.4332C36.3432 34.5538 36.3911 34.6695 36.4764 34.7548C36.5617 34.84 36.6774 34.888 36.798 34.888H40.1867C40.3073 34.888 40.423 34.9359 40.5083 35.0212C40.5936 35.1064 40.6415 35.2221 40.6415 35.3427V39.0542C40.6415 39.1748 40.5936 39.2905 40.5083 39.3758C40.423 39.4611 40.3073 39.509 40.1867 39.509H36.798C36.6774 39.509 36.5617 39.5569 36.4764 39.6422C36.3911 39.7274 36.3432 39.8431 36.3432 39.9637V43.3427C36.3432 43.4633 36.2953 43.579 36.21 43.6643C36.1247 43.7495 36.0091 43.7975 35.8885 43.7975H32.177C32.0564 43.7975 31.9407 43.7495 31.8554 43.6643C31.7701 43.579 31.7222 43.4633 31.7222 43.3427V39.9491C31.7222 39.8293 31.675 39.7144 31.5907 39.6292C31.5065 39.5441 31.3921 39.4956 31.2723 39.4943H27.8494C27.7296 39.493 27.6152 39.4445 27.5309 39.3594C27.4467 39.2742 27.3995 39.1593 27.3995 39.0395V35.328C27.3995 35.2083 27.4467 35.0933 27.5309 35.0082C27.6152 34.9231 27.7296 34.8746 27.8494 34.8733H31.2723C31.3318 34.8733 31.3907 34.8615 31.4456 34.8386C31.5005 34.8157 31.5503 34.7821 31.5922 34.7398C31.634 34.6975 31.6671 34.6473 31.6894 34.5922C31.7117 34.537 31.7229 34.478 31.7222 34.4185V31.0298C31.726 30.9117 31.7756 30.7998 31.8605 30.7176C31.9454 30.6355 32.0589 30.5896 32.177 30.5897Z" stroke="var(--stroke-0, #5B6A5A)" stroke-width="2" stroke-linecap="round" stroke-linejoin="round"/>
</g>
</svg>
