<svg preserveAspectRatio="none" width="100%" height="100%" overflow="visible" style="display: block;" viewBox="0 0 84 84" fill="none" xmlns="http://www.w3.org/2000/svg">
<g id="email_15940187 1" clip-path="url(#clip0_0_4)">
<path id="Vector" d="M17.7188 66.2812H66.2812C67.4996 66.2812 68.668 65.7973 69.5295 64.9358C70.391 64.0743 70.875 62.9058 70.875 61.6875C70.875 60.4692 70.391 59.3007 69.5295 58.4392C68.668 57.5777 67.4996 57.0938 66.2812 57.0938H17.7188C16.5004 57.0938 15.332 57.5777 14.4705 58.4392C13.609 59.3007 13.125 60.4692 13.125 61.6875C13.125 62.9058 13.609 64.0743 14.4705 64.9358C15.332 65.7973 16.5004 66.2812 17.7188 66.2812ZM17.7188 59.7188H66.2812C66.8034 59.7188 67.3042 59.9262 67.6734 60.2954C68.0426 60.6646 68.25 61.1654 68.25 61.6875C68.25 62.2096 68.0426 62.7104 67.6734 63.0796C67.3042 63.4488 66.8034 63.6562 66.2812 63.6562H17.7188C17.1966 63.6562 16.6958 63.4488 16.3266 63.0796C15.9574 62.7104 15.75 62.2096 15.75 61.6875C15.75 61.1654 15.9574 60.6646 16.3266 60.2954C16.6958 59.9262 17.1966 59.7188 17.7188 59.7188Z" fill="var(--fill-0, #5B6A5A)"/>
<path id="Vector_2" d="M17.7188 78.0938H66.2812C67.4996 78.0938 68.668 77.6098 69.5295 76.7483C70.391 75.8868 70.875 74.7183 70.875 73.5C70.875 72.2817 70.391 71.1132 69.5295 70.2517C68.668 69.3902 67.4996 68.9062 66.2812 68.9062H17.7188C16.5004 68.9063 15.332 69.3902 14.4705 70.2517C13.609 71.1132 13.125 72.2817 13.125 73.5C13.125 74.7183 13.609 75.8868 14.4705 76.7483C15.332 77.6098 16.5004 78.0937 17.7188 78.0938ZM17.7188 71.5312H66.2812C66.8034 71.5312 67.3042 71.7387 67.6734 72.1079C68.0426 72.4771 68.25 72.9779 68.25 73.5C68.25 74.0221 68.0426 74.5229 67.6734 74.8921C67.3042 75.2613 66.8034 75.4688 66.2812 75.4688H17.7188C17.1966 75.4687 16.6958 75.2613 16.3266 74.8921C15.9574 74.5229 15.75 74.0221 15.75 73.5C15.75 72.9779 15.9574 72.4771 16.3266 72.1079C16.6958 71.7387 17.1966 71.5312 17.7188 71.5312Z" fill="var(--fill-0, #5B6A5A)"/>
<path id="Vector_3" d="M82.6875 28.875H66.2446C66.1966 27.9954 66.1006 27.1191 65.9571 26.25H76.125C76.4731 26.25 76.8069 26.1117 77.0531 25.8656C77.2992 25.6194 77.4375 25.2856 77.4375 24.9375C77.4375 24.5894 77.2992 24.2556 77.0531 24.0094C76.8069 23.7633 76.4731 23.625 76.125 23.625H65.3728C63.9427 18.5266 60.8847 14.0356 56.6649 10.8366C52.4452 7.63768 47.2952 5.90625 42 5.90625C36.7048 5.90625 31.5548 7.63768 27.3351 10.8366C23.1153 14.0356 20.0573 18.5266 18.6272 23.625H7.875C7.5269 23.625 7.19306 23.7633 6.94692 24.0094C6.70078 24.2556 6.5625 24.5894 6.5625 24.9375C6.5625 25.2856 6.70078 25.6194 6.94692 25.8656C7.19306 26.1117 7.5269 26.25 7.875 26.25H18.0429C17.8994 27.1191 17.8034 27.9954 17.7554 28.875H1.3125C0.964403 28.875 0.630564 29.0133 0.384422 29.2594C0.138281 29.5056 0 29.8394 0 30.1875C0 30.5356 0.138281 30.8694 0.384422 31.1156C0.630564 31.3617 0.964403 31.5 1.3125 31.5H17.7554C17.8034 32.3796 17.8994 33.2559 18.0429 34.125H7.875C7.5269 34.125 7.19306 34.2633 6.94692 34.5094C6.70078 34.7556 6.5625 35.0894 6.5625 35.4375C6.5625 35.7856 6.70078 36.1194 6.94692 36.3656C7.19306 36.6117 7.5269 36.75 7.875 36.75H18.6272C20.0573 41.8484 23.1153 46.3394 27.3351 49.5384C31.5548 52.7373 36.7048 54.4688 42 54.4688C47.2952 54.4688 52.4452 52.7373 56.6649 49.5384C60.8847 46.3394 63.9427 41.8484 65.3728 36.75H76.125C76.4731 36.75 76.8069 36.6117 77.0531 36.3656C77.2992 36.1194 77.4375 35.7856 77.4375 35.4375C77.4375 35.0894 77.2992 34.7556 77.0531 34.5094C76.8069 34.2633 76.4731 34.125 76.125 34.125H65.9571C66.1006 33.2559 66.1966 32.3796 66.2446 31.5H82.6875C83.0356 31.5 83.3694 31.3617 83.6156 31.1156C83.8617 30.8694 84 30.5356 84 30.1875C84 29.8394 83.8617 29.5056 83.6156 29.2594C83.3694 29.0133 83.0356 28.875 82.6875 28.875ZM42 51.8438C37.7168 51.8438 33.5298 50.5736 29.9684 48.194C26.4071 45.8144 23.6313 42.4321 21.9922 38.475C20.3531 34.5178 19.9243 30.1635 20.7599 25.9626C21.5955 21.7617 23.658 17.9029 26.6867 14.8742C29.7154 11.8455 33.5742 9.78298 37.7751 8.94737C41.976 8.11176 46.3303 8.54062 50.2875 10.1797C54.2447 11.8188 57.6269 14.5946 60.0065 18.1559C62.3861 21.7173 63.6562 25.9043 63.6562 30.1875C63.6498 35.9291 61.366 41.4337 57.3061 45.4936C53.2462 49.5535 47.7416 51.8373 42 51.8438Z" fill="var(--fill-0, #5B6A5A)"/>
<path id="Vector_4" d="M35.4375 39.4192C35.0894 39.4192 34.7556 39.5575 34.5094 39.8037C34.2633 40.0498 34.125 40.3836 34.125 40.7317V43.9687C34.125 44.3168 34.2633 44.6507 34.5094 44.8968C34.7556 45.143 35.0894 45.2812 35.4375 45.2812C35.7856 45.2812 36.1194 45.143 36.3656 44.8968C36.6117 44.6507 36.75 44.3168 36.75 43.9687V40.7317C36.75 40.3836 36.6117 40.0498 36.3656 39.8037C36.1194 39.5575 35.7856 39.4192 35.4375 39.4192Z" fill="var(--fill-0, #5B6A5A)"/>
<path id="Vector_5" d="M48.5625 39.4192C48.2144 39.4192 47.8806 39.5575 47.6344 39.8037C47.3883 40.0498 47.25 40.3836 47.25 40.7317V43.9687C47.25 44.3168 47.3883 44.6507 47.6344 44.8968C47.8806 45.143 48.2144 45.2812 48.5625 45.2812C48.9106 45.2812 49.2444 45.143 49.4906 44.8968C49.7367 44.6507 49.875 44.3168 49.875 43.9687V40.7317C49.875 40.3836 49.7367 40.0498 49.4906 39.8037C49.2444 39.5575 48.9106 39.4192 48.5625 39.4192Z" fill="var(--fill-0, #5B6A5A)"/>
<path id="Vector_6" d="M52.1645 32.2812L46.5938 29.9259V27.6475C47.2172 27.0382 47.7125 26.3104 48.0506 25.5069C48.3886 24.7034 48.5627 23.8405 48.5625 22.9687V20.3437C48.5625 20.2994 48.5396 20.1032 48.5373 20.0894L48.5363 20.0843C48.0483 17.1767 47.1954 15.3793 45.8523 14.434C44.3584 13.3826 42.7043 13.6851 41.3749 13.9258C40.9083 14.0265 40.4341 14.088 39.9572 14.1094C38.8642 14.1066 37.8154 13.6772 37.0342 12.9126C36.8826 12.7409 36.6887 12.6119 36.4718 12.5383C36.2549 12.4648 36.0225 12.4493 35.7978 12.4934C35.573 12.5375 35.3637 12.6396 35.1907 12.7897C35.0176 12.9397 34.8869 13.1324 34.8114 13.3487C33.3406 17.5625 34.5668 19.8373 35.4448 20.8323C35.4432 20.8886 35.4375 20.9431 35.4375 21V22.9687C35.4373 23.8405 35.6114 24.7034 35.9494 25.5069C36.2875 26.3104 36.7828 27.0382 37.4062 27.6475V29.9265L31.7797 32.3065C30.9188 32.7008 30.1883 33.3324 29.6738 34.1273C29.1593 34.9222 28.8822 35.8474 28.875 36.7942V43.9688C28.875 44.3168 29.0133 44.6507 29.2594 44.8968C29.5056 45.143 29.8394 45.2813 30.1875 45.2813C30.5356 45.2813 30.8694 45.143 31.1156 44.8968C31.3617 44.6507 31.5 44.3168 31.5 43.9688V36.7942C31.507 36.3528 31.638 35.9223 31.8781 35.5518C32.1182 35.1813 32.4576 34.8859 32.8577 34.6992L37.4397 32.7618C37.4988 33.0263 37.6383 33.2659 37.8391 33.4479L41.1204 36.4116C41.3616 36.6294 41.675 36.75 42 36.75C42.325 36.75 42.6384 36.6294 42.8796 36.4116L46.1608 33.4479C46.3593 33.2678 46.4977 33.0312 46.5576 32.7699L51.0865 34.6739C51.4992 34.8566 51.8513 35.153 52.1016 35.5285C52.352 35.904 52.4901 36.343 52.5 36.7942V43.9688C52.5 44.3168 52.6383 44.6507 52.8844 44.8968C53.1306 45.143 53.4644 45.2813 53.8125 45.2813C54.1606 45.2813 54.4944 45.143 54.7406 44.8968C54.9867 44.6507 55.125 44.3168 55.125 43.9688V36.7942C55.115 35.8376 54.8308 34.9039 54.306 34.1039C53.7813 33.304 53.038 32.6714 52.1645 32.2812ZM37.3338 19.0312C37.0419 18.6647 36.5497 17.7511 36.834 15.9637C37.7974 16.4693 38.8692 16.7337 39.9572 16.7344C40.592 16.7162 41.2238 16.6405 41.8449 16.5085C43.0289 16.2935 43.7868 16.1909 44.3414 16.5809C44.7253 16.851 45.2229 17.5002 45.6324 19.0312H37.3338ZM43.9688 31.8906L42 33.669L40.0312 31.8906V29.2286C41.3127 29.6321 42.6873 29.6321 43.9688 29.2286V31.8906ZM45.9375 22.9687C45.9375 24.013 45.5227 25.0146 44.7842 25.753C44.0458 26.4914 43.0443 26.9063 42 26.9063C40.9557 26.9063 39.9542 26.4914 39.2158 25.753C38.4773 25.0146 38.0625 24.013 38.0625 22.9687V21.6562H45.9375V22.9687Z" fill="var(--fill-0, #5B6A5A)"/>
</g>
<defs>
<clipPath id="clip0_0_4">
<rect width="84" height="84" fill="white"/>
</clipPath>
</defs>
</svg>
